G04 EAGLE Gerber RS-274X export*
G75*
%MOMM*%
%FSLAX34Y34*%
%LPD*%
%INTop Copper*%
%IPPOS*%
%AMOC8*
5,1,8,0,0,1.08239X$1,22.5*%
G01*
%ADD10C,0.130000*%
%ADD11C,0.152400*%
%ADD12P,3.409096X8X112.500000*%
%ADD13C,1.422400*%
%ADD14C,1.778000*%
%ADD15P,1.231672X8X22.500000*%
%ADD16R,1.143000X1.270000*%
%ADD17R,1.270000X1.143000*%
%ADD18C,1.960000*%
%ADD19C,1.930400*%
%ADD20C,0.254000*%
%ADD21C,0.654800*%
%ADD22C,0.812800*%


D10*
X66040Y50800D02*
X66040Y5900D01*
X35560Y5900D02*
X35560Y50800D01*
X34910Y25400D02*
X-16440Y25400D01*
X66690Y25400D02*
X141668Y25400D01*
X92040Y28592D02*
X66690Y25400D01*
X92040Y28592D02*
X92040Y22208D01*
X66690Y25400D01*
X92040Y26700D01*
X92040Y24100D02*
X66690Y25400D01*
X92040Y28000D01*
X92040Y22800D02*
X66690Y25400D01*
X34910Y25400D02*
X9560Y28592D01*
X9560Y22208D01*
X34910Y25400D01*
X9560Y26700D01*
X9560Y24100D02*
X34910Y25400D01*
X9560Y28000D01*
X9560Y22800D02*
X34910Y25400D01*
X50800Y47608D02*
X50800Y53992D01*
X47608Y50800D02*
X53992Y50800D01*
D11*
X92802Y31907D02*
X97318Y31907D01*
X97451Y31909D01*
X97583Y31915D01*
X97715Y31925D01*
X97847Y31938D01*
X97979Y31956D01*
X98109Y31977D01*
X98240Y32002D01*
X98369Y32031D01*
X98497Y32064D01*
X98625Y32100D01*
X98751Y32140D01*
X98876Y32184D01*
X99000Y32232D01*
X99122Y32283D01*
X99243Y32338D01*
X99362Y32396D01*
X99480Y32458D01*
X99595Y32523D01*
X99709Y32592D01*
X99820Y32663D01*
X99929Y32739D01*
X100036Y32817D01*
X100141Y32898D01*
X100243Y32983D01*
X100343Y33070D01*
X100440Y33160D01*
X100535Y33253D01*
X100626Y33349D01*
X100715Y33447D01*
X100801Y33548D01*
X100884Y33652D01*
X100964Y33758D01*
X101040Y33866D01*
X101114Y33976D01*
X101184Y34089D01*
X101251Y34203D01*
X101314Y34320D01*
X101374Y34438D01*
X101431Y34558D01*
X101484Y34680D01*
X101533Y34803D01*
X101579Y34927D01*
X101621Y35053D01*
X101659Y35180D01*
X101694Y35308D01*
X101725Y35437D01*
X101752Y35566D01*
X101775Y35697D01*
X101795Y35828D01*
X101810Y35960D01*
X101822Y36092D01*
X101830Y36224D01*
X101834Y36357D01*
X101834Y36489D01*
X101830Y36622D01*
X101822Y36754D01*
X101810Y36886D01*
X101795Y37018D01*
X101775Y37149D01*
X101752Y37280D01*
X101725Y37409D01*
X101694Y37538D01*
X101659Y37666D01*
X101621Y37793D01*
X101579Y37919D01*
X101533Y38043D01*
X101484Y38166D01*
X101431Y38288D01*
X101374Y38408D01*
X101314Y38526D01*
X101251Y38643D01*
X101184Y38757D01*
X101114Y38870D01*
X101040Y38980D01*
X100964Y39088D01*
X100884Y39194D01*
X100801Y39298D01*
X100715Y39399D01*
X100626Y39497D01*
X100535Y39593D01*
X100440Y39686D01*
X100343Y39776D01*
X100243Y39863D01*
X100141Y39948D01*
X100036Y40029D01*
X99929Y40107D01*
X99820Y40183D01*
X99709Y40254D01*
X99595Y40323D01*
X99480Y40388D01*
X99362Y40450D01*
X99243Y40508D01*
X99122Y40563D01*
X99000Y40614D01*
X98876Y40662D01*
X98751Y40706D01*
X98625Y40746D01*
X98497Y40782D01*
X98369Y40815D01*
X98240Y40844D01*
X98109Y40869D01*
X97979Y40890D01*
X97847Y40908D01*
X97715Y40921D01*
X97583Y40931D01*
X97451Y40937D01*
X97318Y40939D01*
X98221Y48163D02*
X92802Y48163D01*
X98221Y48163D02*
X98340Y48161D01*
X98460Y48155D01*
X98579Y48145D01*
X98697Y48131D01*
X98816Y48114D01*
X98933Y48092D01*
X99050Y48067D01*
X99165Y48037D01*
X99280Y48004D01*
X99394Y47967D01*
X99506Y47927D01*
X99617Y47882D01*
X99726Y47834D01*
X99834Y47783D01*
X99940Y47728D01*
X100044Y47669D01*
X100146Y47607D01*
X100246Y47542D01*
X100344Y47473D01*
X100440Y47401D01*
X100533Y47326D01*
X100623Y47249D01*
X100711Y47168D01*
X100796Y47084D01*
X100878Y46997D01*
X100958Y46908D01*
X101034Y46816D01*
X101108Y46722D01*
X101178Y46625D01*
X101245Y46527D01*
X101309Y46426D01*
X101369Y46322D01*
X101426Y46217D01*
X101479Y46110D01*
X101529Y46002D01*
X101575Y45892D01*
X101617Y45780D01*
X101656Y45667D01*
X101691Y45553D01*
X101722Y45438D01*
X101750Y45321D01*
X101773Y45204D01*
X101793Y45087D01*
X101809Y44968D01*
X101821Y44849D01*
X101829Y44730D01*
X101833Y44611D01*
X101833Y44491D01*
X101829Y44372D01*
X101821Y44253D01*
X101809Y44134D01*
X101793Y44015D01*
X101773Y43898D01*
X101750Y43781D01*
X101722Y43664D01*
X101691Y43549D01*
X101656Y43435D01*
X101617Y43322D01*
X101575Y43210D01*
X101529Y43100D01*
X101479Y42992D01*
X101426Y42885D01*
X101369Y42780D01*
X101309Y42676D01*
X101245Y42575D01*
X101178Y42477D01*
X101108Y42380D01*
X101034Y42286D01*
X100958Y42194D01*
X100878Y42105D01*
X100796Y42018D01*
X100711Y41934D01*
X100623Y41853D01*
X100533Y41776D01*
X100440Y41701D01*
X100344Y41629D01*
X100246Y41560D01*
X100146Y41495D01*
X100044Y41433D01*
X99940Y41374D01*
X99834Y41319D01*
X99726Y41268D01*
X99617Y41220D01*
X99506Y41175D01*
X99394Y41135D01*
X99280Y41098D01*
X99165Y41065D01*
X99050Y41035D01*
X98933Y41010D01*
X98816Y40988D01*
X98697Y40971D01*
X98579Y40957D01*
X98460Y40947D01*
X98340Y40941D01*
X98221Y40939D01*
X98221Y40938D02*
X94608Y40938D01*
X107808Y32810D02*
X107808Y31907D01*
X107808Y32810D02*
X108711Y32810D01*
X108711Y31907D01*
X107808Y31907D01*
X114686Y40035D02*
X114690Y40355D01*
X114701Y40674D01*
X114720Y40994D01*
X114747Y41312D01*
X114781Y41630D01*
X114823Y41947D01*
X114873Y42263D01*
X114930Y42578D01*
X114994Y42891D01*
X115066Y43203D01*
X115145Y43513D01*
X115232Y43820D01*
X115326Y44126D01*
X115427Y44429D01*
X115536Y44730D01*
X115651Y45028D01*
X115774Y45324D01*
X115904Y45616D01*
X116041Y45905D01*
X116040Y45906D02*
X116079Y46014D01*
X116122Y46121D01*
X116168Y46226D01*
X116219Y46330D01*
X116272Y46432D01*
X116329Y46532D01*
X116390Y46630D01*
X116454Y46725D01*
X116521Y46819D01*
X116592Y46910D01*
X116665Y46999D01*
X116742Y47085D01*
X116821Y47168D01*
X116903Y47249D01*
X116988Y47327D01*
X117076Y47401D01*
X117166Y47473D01*
X117258Y47541D01*
X117353Y47607D01*
X117450Y47669D01*
X117549Y47727D01*
X117651Y47783D01*
X117753Y47834D01*
X117858Y47882D01*
X117964Y47927D01*
X118072Y47968D01*
X118181Y48005D01*
X118291Y48038D01*
X118403Y48067D01*
X118515Y48093D01*
X118628Y48115D01*
X118742Y48132D01*
X118856Y48146D01*
X118971Y48156D01*
X119086Y48162D01*
X119201Y48164D01*
X119201Y48163D02*
X119316Y48161D01*
X119431Y48155D01*
X119546Y48145D01*
X119660Y48131D01*
X119774Y48114D01*
X119887Y48092D01*
X119999Y48066D01*
X120111Y48037D01*
X120221Y48004D01*
X120330Y47967D01*
X120438Y47926D01*
X120544Y47881D01*
X120649Y47833D01*
X120751Y47782D01*
X120852Y47726D01*
X120952Y47668D01*
X121049Y47606D01*
X121143Y47541D01*
X121236Y47472D01*
X121326Y47400D01*
X121414Y47326D01*
X121499Y47248D01*
X121581Y47167D01*
X121660Y47084D01*
X121737Y46998D01*
X121810Y46909D01*
X121881Y46818D01*
X121948Y46724D01*
X122012Y46629D01*
X122073Y46531D01*
X122130Y46431D01*
X122183Y46329D01*
X122234Y46225D01*
X122280Y46120D01*
X122323Y46013D01*
X122362Y45905D01*
X122499Y45616D01*
X122629Y45324D01*
X122752Y45028D01*
X122867Y44730D01*
X122976Y44429D01*
X123077Y44126D01*
X123171Y43820D01*
X123258Y43513D01*
X123337Y43203D01*
X123409Y42891D01*
X123473Y42578D01*
X123530Y42263D01*
X123580Y41947D01*
X123622Y41630D01*
X123656Y41312D01*
X123683Y40994D01*
X123702Y40674D01*
X123713Y40355D01*
X123717Y40035D01*
X114686Y40035D02*
X114690Y39715D01*
X114701Y39396D01*
X114720Y39076D01*
X114747Y38758D01*
X114781Y38440D01*
X114823Y38123D01*
X114873Y37807D01*
X114930Y37492D01*
X114994Y37179D01*
X115066Y36867D01*
X115145Y36557D01*
X115232Y36250D01*
X115326Y35944D01*
X115427Y35641D01*
X115536Y35340D01*
X115651Y35042D01*
X115774Y34746D01*
X115904Y34454D01*
X116041Y34165D01*
X116040Y34165D02*
X116079Y34057D01*
X116122Y33950D01*
X116168Y33845D01*
X116219Y33741D01*
X116272Y33639D01*
X116329Y33539D01*
X116390Y33441D01*
X116454Y33346D01*
X116521Y33252D01*
X116592Y33161D01*
X116665Y33072D01*
X116742Y32986D01*
X116821Y32903D01*
X116903Y32822D01*
X116988Y32744D01*
X117076Y32670D01*
X117166Y32598D01*
X117259Y32529D01*
X117353Y32464D01*
X117450Y32402D01*
X117550Y32344D01*
X117651Y32288D01*
X117753Y32237D01*
X117858Y32189D01*
X117964Y32144D01*
X118072Y32103D01*
X118181Y32066D01*
X118291Y32033D01*
X118403Y32004D01*
X118515Y31978D01*
X118628Y31956D01*
X118742Y31939D01*
X118856Y31925D01*
X118971Y31915D01*
X119086Y31909D01*
X119201Y31907D01*
X122361Y34165D02*
X122498Y34454D01*
X122628Y34746D01*
X122751Y35042D01*
X122866Y35340D01*
X122975Y35641D01*
X123076Y35944D01*
X123170Y36250D01*
X123257Y36557D01*
X123336Y36867D01*
X123408Y37179D01*
X123472Y37492D01*
X123529Y37807D01*
X123579Y38123D01*
X123621Y38440D01*
X123655Y38758D01*
X123682Y39076D01*
X123701Y39396D01*
X123712Y39715D01*
X123716Y40035D01*
X122362Y34165D02*
X122323Y34057D01*
X122280Y33950D01*
X122234Y33845D01*
X122183Y33741D01*
X122130Y33639D01*
X122073Y33539D01*
X122012Y33441D01*
X121948Y33346D01*
X121881Y33252D01*
X121810Y33161D01*
X121737Y33072D01*
X121660Y32986D01*
X121581Y32903D01*
X121499Y32822D01*
X121414Y32744D01*
X121326Y32670D01*
X121236Y32598D01*
X121143Y32529D01*
X121049Y32464D01*
X120952Y32402D01*
X120852Y32344D01*
X120751Y32288D01*
X120648Y32237D01*
X120544Y32189D01*
X120438Y32144D01*
X120330Y32103D01*
X120221Y32066D01*
X120111Y32033D01*
X119999Y32004D01*
X119887Y31978D01*
X119774Y31956D01*
X119660Y31939D01*
X119546Y31925D01*
X119431Y31915D01*
X119316Y31909D01*
X119201Y31907D01*
X115589Y35519D02*
X122814Y44551D01*
X130317Y31907D02*
X135736Y31907D01*
X135854Y31909D01*
X135972Y31915D01*
X136090Y31924D01*
X136207Y31938D01*
X136324Y31955D01*
X136441Y31976D01*
X136556Y32001D01*
X136671Y32030D01*
X136785Y32063D01*
X136897Y32099D01*
X137008Y32139D01*
X137118Y32182D01*
X137227Y32229D01*
X137334Y32279D01*
X137439Y32334D01*
X137542Y32391D01*
X137643Y32452D01*
X137743Y32516D01*
X137840Y32583D01*
X137935Y32653D01*
X138027Y32727D01*
X138118Y32803D01*
X138205Y32883D01*
X138290Y32965D01*
X138372Y33050D01*
X138452Y33137D01*
X138528Y33228D01*
X138602Y33320D01*
X138672Y33415D01*
X138739Y33512D01*
X138803Y33612D01*
X138864Y33713D01*
X138921Y33816D01*
X138976Y33921D01*
X139026Y34028D01*
X139073Y34137D01*
X139116Y34247D01*
X139156Y34358D01*
X139192Y34470D01*
X139225Y34584D01*
X139254Y34699D01*
X139279Y34814D01*
X139300Y34931D01*
X139317Y35048D01*
X139331Y35165D01*
X139340Y35283D01*
X139346Y35401D01*
X139348Y35519D01*
X139348Y37326D01*
X139346Y37444D01*
X139340Y37562D01*
X139331Y37680D01*
X139317Y37797D01*
X139300Y37914D01*
X139279Y38031D01*
X139254Y38146D01*
X139225Y38261D01*
X139192Y38375D01*
X139156Y38487D01*
X139116Y38598D01*
X139073Y38708D01*
X139026Y38817D01*
X138976Y38924D01*
X138921Y39029D01*
X138864Y39132D01*
X138803Y39233D01*
X138739Y39333D01*
X138672Y39430D01*
X138602Y39525D01*
X138528Y39617D01*
X138452Y39708D01*
X138372Y39795D01*
X138290Y39880D01*
X138205Y39962D01*
X138118Y40042D01*
X138027Y40118D01*
X137935Y40192D01*
X137840Y40262D01*
X137743Y40329D01*
X137643Y40393D01*
X137542Y40454D01*
X137439Y40511D01*
X137334Y40566D01*
X137227Y40616D01*
X137118Y40663D01*
X137008Y40706D01*
X136897Y40746D01*
X136785Y40782D01*
X136671Y40815D01*
X136556Y40844D01*
X136441Y40869D01*
X136324Y40890D01*
X136207Y40907D01*
X136090Y40921D01*
X135972Y40930D01*
X135854Y40936D01*
X135736Y40938D01*
X130317Y40938D01*
X130317Y48163D01*
X139348Y48163D01*
D10*
X949960Y50800D02*
X949960Y95700D01*
X980440Y95700D02*
X980440Y50800D01*
X949310Y76200D02*
X897960Y76200D01*
X981090Y76200D02*
X1056068Y76200D01*
X949310Y76200D02*
X923960Y79392D01*
X923960Y73008D01*
X949310Y76200D01*
X923960Y77500D01*
X923960Y74900D02*
X949310Y76200D01*
X923960Y78800D01*
X923960Y73600D02*
X949310Y76200D01*
X981090Y76200D02*
X1006440Y79392D01*
X1006440Y73008D01*
X981090Y76200D01*
X1006440Y77500D01*
X1006440Y74900D02*
X981090Y76200D01*
X1006440Y78800D01*
X1006440Y73600D02*
X981090Y76200D01*
X965200Y53992D02*
X965200Y47608D01*
X962008Y50800D02*
X968392Y50800D01*
D11*
X1007202Y82707D02*
X1011718Y82707D01*
X1011851Y82709D01*
X1011983Y82715D01*
X1012115Y82725D01*
X1012247Y82738D01*
X1012379Y82756D01*
X1012509Y82777D01*
X1012640Y82802D01*
X1012769Y82831D01*
X1012897Y82864D01*
X1013025Y82900D01*
X1013151Y82940D01*
X1013276Y82984D01*
X1013400Y83032D01*
X1013522Y83083D01*
X1013643Y83138D01*
X1013762Y83196D01*
X1013880Y83258D01*
X1013995Y83323D01*
X1014109Y83392D01*
X1014220Y83463D01*
X1014329Y83539D01*
X1014436Y83617D01*
X1014541Y83698D01*
X1014643Y83783D01*
X1014743Y83870D01*
X1014840Y83960D01*
X1014935Y84053D01*
X1015026Y84149D01*
X1015115Y84247D01*
X1015201Y84348D01*
X1015284Y84452D01*
X1015364Y84558D01*
X1015440Y84666D01*
X1015514Y84776D01*
X1015584Y84889D01*
X1015651Y85003D01*
X1015714Y85120D01*
X1015774Y85238D01*
X1015831Y85358D01*
X1015884Y85480D01*
X1015933Y85603D01*
X1015979Y85727D01*
X1016021Y85853D01*
X1016059Y85980D01*
X1016094Y86108D01*
X1016125Y86237D01*
X1016152Y86366D01*
X1016175Y86497D01*
X1016195Y86628D01*
X1016210Y86760D01*
X1016222Y86892D01*
X1016230Y87024D01*
X1016234Y87157D01*
X1016234Y87289D01*
X1016230Y87422D01*
X1016222Y87554D01*
X1016210Y87686D01*
X1016195Y87818D01*
X1016175Y87949D01*
X1016152Y88080D01*
X1016125Y88209D01*
X1016094Y88338D01*
X1016059Y88466D01*
X1016021Y88593D01*
X1015979Y88719D01*
X1015933Y88843D01*
X1015884Y88966D01*
X1015831Y89088D01*
X1015774Y89208D01*
X1015714Y89326D01*
X1015651Y89443D01*
X1015584Y89557D01*
X1015514Y89670D01*
X1015440Y89780D01*
X1015364Y89888D01*
X1015284Y89994D01*
X1015201Y90098D01*
X1015115Y90199D01*
X1015026Y90297D01*
X1014935Y90393D01*
X1014840Y90486D01*
X1014743Y90576D01*
X1014643Y90663D01*
X1014541Y90748D01*
X1014436Y90829D01*
X1014329Y90907D01*
X1014220Y90983D01*
X1014109Y91054D01*
X1013995Y91123D01*
X1013880Y91188D01*
X1013762Y91250D01*
X1013643Y91308D01*
X1013522Y91363D01*
X1013400Y91414D01*
X1013276Y91462D01*
X1013151Y91506D01*
X1013025Y91546D01*
X1012897Y91582D01*
X1012769Y91615D01*
X1012640Y91644D01*
X1012509Y91669D01*
X1012379Y91690D01*
X1012247Y91708D01*
X1012115Y91721D01*
X1011983Y91731D01*
X1011851Y91737D01*
X1011718Y91739D01*
X1012621Y98963D02*
X1007202Y98963D01*
X1012621Y98963D02*
X1012740Y98961D01*
X1012860Y98955D01*
X1012979Y98945D01*
X1013097Y98931D01*
X1013216Y98914D01*
X1013333Y98892D01*
X1013450Y98867D01*
X1013565Y98837D01*
X1013680Y98804D01*
X1013794Y98767D01*
X1013906Y98727D01*
X1014017Y98682D01*
X1014126Y98634D01*
X1014234Y98583D01*
X1014340Y98528D01*
X1014444Y98469D01*
X1014546Y98407D01*
X1014646Y98342D01*
X1014744Y98273D01*
X1014840Y98201D01*
X1014933Y98126D01*
X1015023Y98049D01*
X1015111Y97968D01*
X1015196Y97884D01*
X1015278Y97797D01*
X1015358Y97708D01*
X1015434Y97616D01*
X1015508Y97522D01*
X1015578Y97425D01*
X1015645Y97327D01*
X1015709Y97226D01*
X1015769Y97122D01*
X1015826Y97017D01*
X1015879Y96910D01*
X1015929Y96802D01*
X1015975Y96692D01*
X1016017Y96580D01*
X1016056Y96467D01*
X1016091Y96353D01*
X1016122Y96238D01*
X1016150Y96121D01*
X1016173Y96004D01*
X1016193Y95887D01*
X1016209Y95768D01*
X1016221Y95649D01*
X1016229Y95530D01*
X1016233Y95411D01*
X1016233Y95291D01*
X1016229Y95172D01*
X1016221Y95053D01*
X1016209Y94934D01*
X1016193Y94815D01*
X1016173Y94698D01*
X1016150Y94581D01*
X1016122Y94464D01*
X1016091Y94349D01*
X1016056Y94235D01*
X1016017Y94122D01*
X1015975Y94010D01*
X1015929Y93900D01*
X1015879Y93792D01*
X1015826Y93685D01*
X1015769Y93580D01*
X1015709Y93476D01*
X1015645Y93375D01*
X1015578Y93277D01*
X1015508Y93180D01*
X1015434Y93086D01*
X1015358Y92994D01*
X1015278Y92905D01*
X1015196Y92818D01*
X1015111Y92734D01*
X1015023Y92653D01*
X1014933Y92576D01*
X1014840Y92501D01*
X1014744Y92429D01*
X1014646Y92360D01*
X1014546Y92295D01*
X1014444Y92233D01*
X1014340Y92174D01*
X1014234Y92119D01*
X1014126Y92068D01*
X1014017Y92020D01*
X1013906Y91975D01*
X1013794Y91935D01*
X1013680Y91898D01*
X1013565Y91865D01*
X1013450Y91835D01*
X1013333Y91810D01*
X1013216Y91788D01*
X1013097Y91771D01*
X1012979Y91757D01*
X1012860Y91747D01*
X1012740Y91741D01*
X1012621Y91739D01*
X1012621Y91738D02*
X1009008Y91738D01*
X1022208Y83610D02*
X1022208Y82707D01*
X1022208Y83610D02*
X1023111Y83610D01*
X1023111Y82707D01*
X1022208Y82707D01*
X1029086Y90835D02*
X1029090Y91155D01*
X1029101Y91474D01*
X1029120Y91794D01*
X1029147Y92112D01*
X1029181Y92430D01*
X1029223Y92747D01*
X1029273Y93063D01*
X1029330Y93378D01*
X1029394Y93691D01*
X1029466Y94003D01*
X1029545Y94313D01*
X1029632Y94620D01*
X1029726Y94926D01*
X1029827Y95229D01*
X1029936Y95530D01*
X1030051Y95828D01*
X1030174Y96124D01*
X1030304Y96416D01*
X1030441Y96705D01*
X1030440Y96706D02*
X1030479Y96814D01*
X1030522Y96921D01*
X1030568Y97026D01*
X1030619Y97130D01*
X1030672Y97232D01*
X1030729Y97332D01*
X1030790Y97430D01*
X1030854Y97525D01*
X1030921Y97619D01*
X1030992Y97710D01*
X1031065Y97799D01*
X1031142Y97885D01*
X1031221Y97968D01*
X1031303Y98049D01*
X1031388Y98127D01*
X1031476Y98201D01*
X1031566Y98273D01*
X1031658Y98341D01*
X1031753Y98407D01*
X1031850Y98469D01*
X1031949Y98527D01*
X1032051Y98583D01*
X1032153Y98634D01*
X1032258Y98682D01*
X1032364Y98727D01*
X1032472Y98768D01*
X1032581Y98805D01*
X1032691Y98838D01*
X1032803Y98867D01*
X1032915Y98893D01*
X1033028Y98915D01*
X1033142Y98932D01*
X1033256Y98946D01*
X1033371Y98956D01*
X1033486Y98962D01*
X1033601Y98964D01*
X1033601Y98963D02*
X1033716Y98961D01*
X1033831Y98955D01*
X1033946Y98945D01*
X1034060Y98931D01*
X1034174Y98914D01*
X1034287Y98892D01*
X1034399Y98866D01*
X1034511Y98837D01*
X1034621Y98804D01*
X1034730Y98767D01*
X1034838Y98726D01*
X1034944Y98681D01*
X1035049Y98633D01*
X1035151Y98582D01*
X1035252Y98526D01*
X1035352Y98468D01*
X1035449Y98406D01*
X1035543Y98341D01*
X1035636Y98272D01*
X1035726Y98200D01*
X1035814Y98126D01*
X1035899Y98048D01*
X1035981Y97967D01*
X1036060Y97884D01*
X1036137Y97798D01*
X1036210Y97709D01*
X1036281Y97618D01*
X1036348Y97524D01*
X1036412Y97429D01*
X1036473Y97331D01*
X1036530Y97231D01*
X1036583Y97129D01*
X1036634Y97025D01*
X1036680Y96920D01*
X1036723Y96813D01*
X1036762Y96705D01*
X1036899Y96416D01*
X1037029Y96124D01*
X1037152Y95828D01*
X1037267Y95530D01*
X1037376Y95229D01*
X1037477Y94926D01*
X1037571Y94620D01*
X1037658Y94313D01*
X1037737Y94003D01*
X1037809Y93691D01*
X1037873Y93378D01*
X1037930Y93063D01*
X1037980Y92747D01*
X1038022Y92430D01*
X1038056Y92112D01*
X1038083Y91794D01*
X1038102Y91474D01*
X1038113Y91155D01*
X1038117Y90835D01*
X1029086Y90835D02*
X1029090Y90515D01*
X1029101Y90196D01*
X1029120Y89876D01*
X1029147Y89558D01*
X1029181Y89240D01*
X1029223Y88923D01*
X1029273Y88607D01*
X1029330Y88292D01*
X1029394Y87979D01*
X1029466Y87667D01*
X1029545Y87357D01*
X1029632Y87050D01*
X1029726Y86744D01*
X1029827Y86441D01*
X1029936Y86140D01*
X1030051Y85842D01*
X1030174Y85546D01*
X1030304Y85254D01*
X1030441Y84965D01*
X1030440Y84965D02*
X1030479Y84857D01*
X1030522Y84750D01*
X1030568Y84645D01*
X1030619Y84541D01*
X1030672Y84439D01*
X1030729Y84339D01*
X1030790Y84241D01*
X1030854Y84146D01*
X1030921Y84052D01*
X1030992Y83961D01*
X1031065Y83872D01*
X1031142Y83786D01*
X1031221Y83703D01*
X1031303Y83622D01*
X1031388Y83544D01*
X1031476Y83470D01*
X1031566Y83398D01*
X1031659Y83329D01*
X1031753Y83264D01*
X1031850Y83202D01*
X1031950Y83144D01*
X1032051Y83088D01*
X1032153Y83037D01*
X1032258Y82989D01*
X1032364Y82944D01*
X1032472Y82903D01*
X1032581Y82866D01*
X1032691Y82833D01*
X1032803Y82804D01*
X1032915Y82778D01*
X1033028Y82756D01*
X1033142Y82739D01*
X1033256Y82725D01*
X1033371Y82715D01*
X1033486Y82709D01*
X1033601Y82707D01*
X1036761Y84965D02*
X1036898Y85254D01*
X1037028Y85546D01*
X1037151Y85842D01*
X1037266Y86140D01*
X1037375Y86441D01*
X1037476Y86744D01*
X1037570Y87050D01*
X1037657Y87357D01*
X1037736Y87667D01*
X1037808Y87979D01*
X1037872Y88292D01*
X1037929Y88607D01*
X1037979Y88923D01*
X1038021Y89240D01*
X1038055Y89558D01*
X1038082Y89876D01*
X1038101Y90196D01*
X1038112Y90515D01*
X1038116Y90835D01*
X1036762Y84965D02*
X1036723Y84857D01*
X1036680Y84750D01*
X1036634Y84645D01*
X1036583Y84541D01*
X1036530Y84439D01*
X1036473Y84339D01*
X1036412Y84241D01*
X1036348Y84146D01*
X1036281Y84052D01*
X1036210Y83961D01*
X1036137Y83872D01*
X1036060Y83786D01*
X1035981Y83703D01*
X1035899Y83622D01*
X1035814Y83544D01*
X1035726Y83470D01*
X1035636Y83398D01*
X1035543Y83329D01*
X1035449Y83264D01*
X1035352Y83202D01*
X1035252Y83144D01*
X1035151Y83088D01*
X1035048Y83037D01*
X1034944Y82989D01*
X1034838Y82944D01*
X1034730Y82903D01*
X1034621Y82866D01*
X1034511Y82833D01*
X1034399Y82804D01*
X1034287Y82778D01*
X1034174Y82756D01*
X1034060Y82739D01*
X1033946Y82725D01*
X1033831Y82715D01*
X1033716Y82709D01*
X1033601Y82707D01*
X1029989Y86319D02*
X1037214Y95351D01*
X1044717Y82707D02*
X1050136Y82707D01*
X1050254Y82709D01*
X1050372Y82715D01*
X1050490Y82724D01*
X1050607Y82738D01*
X1050724Y82755D01*
X1050841Y82776D01*
X1050956Y82801D01*
X1051071Y82830D01*
X1051185Y82863D01*
X1051297Y82899D01*
X1051408Y82939D01*
X1051518Y82982D01*
X1051627Y83029D01*
X1051734Y83079D01*
X1051839Y83134D01*
X1051942Y83191D01*
X1052043Y83252D01*
X1052143Y83316D01*
X1052240Y83383D01*
X1052335Y83453D01*
X1052427Y83527D01*
X1052518Y83603D01*
X1052605Y83683D01*
X1052690Y83765D01*
X1052772Y83850D01*
X1052852Y83937D01*
X1052928Y84028D01*
X1053002Y84120D01*
X1053072Y84215D01*
X1053139Y84312D01*
X1053203Y84412D01*
X1053264Y84513D01*
X1053321Y84616D01*
X1053376Y84721D01*
X1053426Y84828D01*
X1053473Y84937D01*
X1053516Y85047D01*
X1053556Y85158D01*
X1053592Y85270D01*
X1053625Y85384D01*
X1053654Y85499D01*
X1053679Y85614D01*
X1053700Y85731D01*
X1053717Y85848D01*
X1053731Y85965D01*
X1053740Y86083D01*
X1053746Y86201D01*
X1053748Y86319D01*
X1053748Y88126D01*
X1053746Y88244D01*
X1053740Y88362D01*
X1053731Y88480D01*
X1053717Y88597D01*
X1053700Y88714D01*
X1053679Y88831D01*
X1053654Y88946D01*
X1053625Y89061D01*
X1053592Y89175D01*
X1053556Y89287D01*
X1053516Y89398D01*
X1053473Y89508D01*
X1053426Y89617D01*
X1053376Y89724D01*
X1053321Y89829D01*
X1053264Y89932D01*
X1053203Y90033D01*
X1053139Y90133D01*
X1053072Y90230D01*
X1053002Y90325D01*
X1052928Y90417D01*
X1052852Y90508D01*
X1052772Y90595D01*
X1052690Y90680D01*
X1052605Y90762D01*
X1052518Y90842D01*
X1052427Y90918D01*
X1052335Y90992D01*
X1052240Y91062D01*
X1052143Y91129D01*
X1052043Y91193D01*
X1051942Y91254D01*
X1051839Y91311D01*
X1051734Y91366D01*
X1051627Y91416D01*
X1051518Y91463D01*
X1051408Y91506D01*
X1051297Y91546D01*
X1051185Y91582D01*
X1051071Y91615D01*
X1050956Y91644D01*
X1050841Y91669D01*
X1050724Y91690D01*
X1050607Y91707D01*
X1050490Y91721D01*
X1050372Y91730D01*
X1050254Y91736D01*
X1050136Y91738D01*
X1044717Y91738D01*
X1044717Y98963D01*
X1053748Y98963D01*
D12*
X114300Y88900D03*
X114300Y595630D03*
D13*
X246888Y510540D02*
X261112Y510540D01*
X261112Y485140D02*
X246888Y485140D01*
X246888Y459740D02*
X261112Y459740D01*
X261112Y434340D02*
X246888Y434340D01*
X246888Y408940D02*
X261112Y408940D01*
X261112Y383540D02*
X246888Y383540D01*
X246888Y358140D02*
X261112Y358140D01*
X261112Y332740D02*
X246888Y332740D01*
X246888Y292100D02*
X261112Y292100D01*
X261112Y266700D02*
X246888Y266700D01*
X246888Y241300D02*
X261112Y241300D01*
X261112Y215900D02*
X246888Y215900D01*
X246888Y190500D02*
X261112Y190500D01*
X261112Y165100D02*
X246888Y165100D01*
X246888Y139700D02*
X261112Y139700D01*
X261112Y114300D02*
X246888Y114300D01*
X729488Y419100D02*
X743712Y419100D01*
X743712Y393700D02*
X729488Y393700D01*
X729488Y368300D02*
X743712Y368300D01*
X743712Y342900D02*
X729488Y342900D01*
X729488Y317500D02*
X743712Y317500D01*
X743712Y292100D02*
X729488Y292100D01*
X729488Y241300D02*
X743712Y241300D01*
X743712Y215900D02*
X729488Y215900D01*
X729488Y190500D02*
X743712Y190500D01*
X743712Y165100D02*
X729488Y165100D01*
X729488Y139700D02*
X743712Y139700D01*
X743712Y114300D02*
X729488Y114300D01*
D14*
X444500Y889000D03*
X419100Y889000D03*
X393700Y889000D03*
X368300Y889000D03*
X342900Y889000D03*
X317500Y889000D03*
X292100Y889000D03*
X266700Y889000D03*
X241300Y889000D03*
D15*
X469900Y635000D03*
X495300Y635000D03*
X838200Y635000D03*
X863600Y635000D03*
X469900Y317500D03*
X495300Y317500D03*
X838200Y317500D03*
X863600Y317500D03*
X571500Y889000D03*
X596900Y889000D03*
D16*
X334010Y444500D03*
X351790Y444500D03*
X631190Y114300D03*
X613410Y114300D03*
X626110Y584200D03*
X643890Y584200D03*
D17*
X711200Y524510D03*
X711200Y542290D03*
D16*
X613410Y457200D03*
X631190Y457200D03*
D17*
X647700Y219710D03*
X647700Y237490D03*
D16*
X364490Y292100D03*
X346710Y292100D03*
X770890Y685800D03*
X753110Y685800D03*
D18*
X545100Y520300D03*
X545100Y470300D03*
X420100Y470300D03*
X420100Y520300D03*
X913400Y520300D03*
X913400Y470300D03*
X788400Y470300D03*
X788400Y520300D03*
X545100Y202800D03*
X545100Y152800D03*
X420100Y152800D03*
X420100Y202800D03*
X913400Y202800D03*
X913400Y152800D03*
X788400Y152800D03*
X788400Y202800D03*
D19*
X97800Y851300D03*
X97800Y876300D03*
X97800Y901300D03*
X130800Y851300D03*
X130800Y876300D03*
X130800Y901300D03*
D20*
X669290Y584200D02*
X711200Y542290D01*
X669290Y584200D02*
X643890Y584200D01*
X635000Y461010D02*
X631190Y457200D01*
X635000Y461010D02*
X635000Y469900D01*
X707390Y542290D01*
X711200Y542290D01*
X631190Y457200D02*
X631190Y397510D01*
X685800Y342900D01*
X736600Y342900D01*
X736600Y317500D02*
X723900Y317500D01*
X647700Y241300D01*
X647700Y237490D01*
X139700Y787400D02*
X241300Y889000D01*
D21*
X139700Y368300D03*
D20*
X139700Y787400D01*
X165100Y762000D02*
X292100Y889000D01*
X165100Y762000D02*
X165100Y482600D01*
D21*
X165100Y482600D03*
D20*
X190500Y736600D02*
X342900Y889000D01*
X190500Y736600D02*
X190500Y508000D01*
D21*
X190500Y508000D03*
D20*
X152400Y774700D02*
X266700Y889000D01*
X152400Y774700D02*
X152400Y304800D01*
D21*
X152400Y304800D03*
X177800Y495300D03*
D20*
X177800Y749300D01*
X317500Y889000D01*
X368300Y889000D02*
X203200Y723900D01*
X203200Y241300D01*
X254000Y190500D01*
X444500Y635000D02*
X469900Y635000D01*
X444500Y635000D02*
X334010Y524510D01*
X334010Y444500D01*
X364490Y292100D02*
X444500Y292100D01*
X469900Y317500D01*
X770890Y685800D02*
X787400Y685800D01*
X838200Y635000D01*
X631190Y114300D02*
X635000Y110490D01*
X635000Y76200D01*
X673100Y38100D01*
X749300Y38100D01*
X812800Y101600D01*
X812800Y292100D02*
X838200Y317500D01*
X812800Y292100D02*
X812800Y101600D01*
X613410Y114300D02*
X431800Y114300D01*
X254000Y292100D01*
X290830Y383540D02*
X351790Y444500D01*
X290830Y383540D02*
X254000Y383540D01*
X254000Y332740D02*
X294640Y292100D01*
X346710Y292100D01*
X358140Y358140D02*
X254000Y358140D01*
X358140Y358140D02*
X685800Y685800D01*
X753110Y685800D01*
X254000Y241300D02*
X215900Y279400D01*
X215900Y711200D01*
X355600Y850900D01*
D21*
X355600Y850900D03*
D20*
X647700Y219710D02*
X647700Y139700D01*
X673100Y114300D01*
X736600Y114300D01*
X762000Y176400D02*
X788400Y202800D01*
X762000Y139700D02*
X736600Y114300D01*
X762000Y139700D02*
X762000Y176400D01*
X613410Y271110D02*
X613410Y457200D01*
X613410Y271110D02*
X545100Y202800D01*
X711200Y524510D02*
X784190Y524510D01*
X788400Y520300D01*
X763400Y495300D01*
X762000Y495300D01*
X762000Y190500D02*
X736600Y165100D01*
X762000Y190500D02*
X762000Y495300D01*
X609000Y584200D02*
X545100Y520300D01*
X609000Y584200D02*
X626110Y584200D01*
D22*
X114300Y595630D02*
X114300Y762000D01*
X63500Y812800D01*
X63500Y842000D01*
X97800Y876300D01*
D20*
X130800Y876300D01*
M02*
