G04 EAGLE Gerber RS-274X export*
G75*
%MOMM*%
%FSLAX34Y34*%
%LPD*%
%IN*%
%IPPOS*%
%AMOC8*
5,1,8,0,0,1.08239X$1,22.5*%
G01*
%ADD10C,0.254000*%


D10*
X0Y0D02*
X1016000Y0D01*
X1016000Y1000000D01*
X0Y1000000D01*
X0Y0D01*
X904240Y786856D02*
X904240Y787944D01*
X904162Y789030D01*
X904007Y790108D01*
X903776Y791171D01*
X903469Y792216D01*
X903089Y793236D01*
X902637Y794226D01*
X902115Y795181D01*
X901526Y796097D01*
X900874Y796969D01*
X900161Y797791D01*
X899391Y798561D01*
X898569Y799274D01*
X897697Y799926D01*
X896781Y800515D01*
X895826Y801037D01*
X894836Y801489D01*
X893816Y801869D01*
X892771Y802176D01*
X891708Y802407D01*
X890630Y802562D01*
X889544Y802640D01*
X888456Y802640D01*
X887370Y802562D01*
X886292Y802407D01*
X885229Y802176D01*
X884184Y801869D01*
X883164Y801489D01*
X882174Y801037D01*
X881219Y800515D01*
X880303Y799926D01*
X879431Y799274D01*
X878609Y798561D01*
X877839Y797791D01*
X877126Y796969D01*
X876474Y796097D01*
X875885Y795181D01*
X875363Y794226D01*
X874911Y793236D01*
X874531Y792216D01*
X874224Y791171D01*
X873993Y790108D01*
X873838Y789030D01*
X873760Y787944D01*
X873760Y786856D01*
X873838Y785770D01*
X873993Y784692D01*
X874224Y783629D01*
X874531Y782584D01*
X874911Y781564D01*
X875363Y780574D01*
X875885Y779619D01*
X876474Y778703D01*
X877126Y777831D01*
X877839Y777009D01*
X878609Y776239D01*
X879431Y775526D01*
X880303Y774874D01*
X881219Y774285D01*
X882174Y773763D01*
X883164Y773311D01*
X884184Y772931D01*
X885229Y772624D01*
X886292Y772393D01*
X887370Y772238D01*
X888456Y772160D01*
X889544Y772160D01*
X890630Y772238D01*
X891708Y772393D01*
X892771Y772624D01*
X893816Y772931D01*
X894836Y773311D01*
X895826Y773763D01*
X896781Y774285D01*
X897697Y774874D01*
X898569Y775526D01*
X899391Y776239D01*
X900161Y777009D01*
X900874Y777831D01*
X901526Y778703D01*
X902115Y779619D01*
X902637Y780574D01*
X903089Y781564D01*
X903469Y782584D01*
X903776Y783629D01*
X904007Y784692D01*
X904162Y785770D01*
X904240Y786856D01*
X980440Y50256D02*
X980440Y51344D01*
X980362Y52430D01*
X980207Y53508D01*
X979976Y54571D01*
X979669Y55616D01*
X979289Y56636D01*
X978837Y57626D01*
X978315Y58581D01*
X977726Y59497D01*
X977074Y60369D01*
X976361Y61191D01*
X975591Y61961D01*
X974769Y62674D01*
X973897Y63326D01*
X972981Y63915D01*
X972026Y64437D01*
X971036Y64889D01*
X970016Y65269D01*
X968971Y65576D01*
X967908Y65807D01*
X966830Y65962D01*
X965744Y66040D01*
X964656Y66040D01*
X963570Y65962D01*
X962492Y65807D01*
X961429Y65576D01*
X960384Y65269D01*
X959364Y64889D01*
X958374Y64437D01*
X957419Y63915D01*
X956503Y63326D01*
X955631Y62674D01*
X954809Y61961D01*
X954039Y61191D01*
X953326Y60369D01*
X952674Y59497D01*
X952085Y58581D01*
X951563Y57626D01*
X951111Y56636D01*
X950731Y55616D01*
X950424Y54571D01*
X950193Y53508D01*
X950038Y52430D01*
X949960Y51344D01*
X949960Y50256D01*
X950038Y49170D01*
X950193Y48092D01*
X950424Y47029D01*
X950731Y45984D01*
X951111Y44964D01*
X951563Y43974D01*
X952085Y43019D01*
X952674Y42103D01*
X953326Y41231D01*
X954039Y40409D01*
X954809Y39639D01*
X955631Y38926D01*
X956503Y38274D01*
X957419Y37685D01*
X958374Y37163D01*
X959364Y36711D01*
X960384Y36331D01*
X961429Y36024D01*
X962492Y35793D01*
X963570Y35638D01*
X964656Y35560D01*
X965744Y35560D01*
X966830Y35638D01*
X967908Y35793D01*
X968971Y36024D01*
X970016Y36331D01*
X971036Y36711D01*
X972026Y37163D01*
X972981Y37685D01*
X973897Y38274D01*
X974769Y38926D01*
X975591Y39639D01*
X976361Y40409D01*
X977074Y41231D01*
X977726Y42103D01*
X978315Y43019D01*
X978837Y43974D01*
X979289Y44964D01*
X979669Y45984D01*
X979976Y47029D01*
X980207Y48092D01*
X980362Y49170D01*
X980440Y50256D01*
X66040Y50256D02*
X66040Y51344D01*
X65962Y52430D01*
X65807Y53508D01*
X65576Y54571D01*
X65269Y55616D01*
X64889Y56636D01*
X64437Y57626D01*
X63915Y58581D01*
X63326Y59497D01*
X62674Y60369D01*
X61961Y61191D01*
X61191Y61961D01*
X60369Y62674D01*
X59497Y63326D01*
X58581Y63915D01*
X57626Y64437D01*
X56636Y64889D01*
X55616Y65269D01*
X54571Y65576D01*
X53508Y65807D01*
X52430Y65962D01*
X51344Y66040D01*
X50256Y66040D01*
X49170Y65962D01*
X48092Y65807D01*
X47029Y65576D01*
X45984Y65269D01*
X44964Y64889D01*
X43974Y64437D01*
X43019Y63915D01*
X42103Y63326D01*
X41231Y62674D01*
X40409Y61961D01*
X39639Y61191D01*
X38926Y60369D01*
X38274Y59497D01*
X37685Y58581D01*
X37163Y57626D01*
X36711Y56636D01*
X36331Y55616D01*
X36024Y54571D01*
X35793Y53508D01*
X35638Y52430D01*
X35560Y51344D01*
X35560Y50256D01*
X35638Y49170D01*
X35793Y48092D01*
X36024Y47029D01*
X36331Y45984D01*
X36711Y44964D01*
X37163Y43974D01*
X37685Y43019D01*
X38274Y42103D01*
X38926Y41231D01*
X39639Y40409D01*
X40409Y39639D01*
X41231Y38926D01*
X42103Y38274D01*
X43019Y37685D01*
X43974Y37163D01*
X44964Y36711D01*
X45984Y36331D01*
X47029Y36024D01*
X48092Y35793D01*
X49170Y35638D01*
X50256Y35560D01*
X51344Y35560D01*
X52430Y35638D01*
X53508Y35793D01*
X54571Y36024D01*
X55616Y36331D01*
X56636Y36711D01*
X57626Y37163D01*
X58581Y37685D01*
X59497Y38274D01*
X60369Y38926D01*
X61191Y39639D01*
X61961Y40409D01*
X62674Y41231D01*
X63326Y42103D01*
X63915Y43019D01*
X64437Y43974D01*
X64889Y44964D01*
X65269Y45984D01*
X65576Y47029D01*
X65807Y48092D01*
X65962Y49170D01*
X66040Y50256D01*
X66040Y939256D02*
X66040Y940344D01*
X65962Y941430D01*
X65807Y942508D01*
X65576Y943571D01*
X65269Y944616D01*
X64889Y945636D01*
X64437Y946626D01*
X63915Y947581D01*
X63326Y948497D01*
X62674Y949369D01*
X61961Y950191D01*
X61191Y950961D01*
X60369Y951674D01*
X59497Y952326D01*
X58581Y952915D01*
X57626Y953437D01*
X56636Y953889D01*
X55616Y954269D01*
X54571Y954576D01*
X53508Y954807D01*
X52430Y954962D01*
X51344Y955040D01*
X50256Y955040D01*
X49170Y954962D01*
X48092Y954807D01*
X47029Y954576D01*
X45984Y954269D01*
X44964Y953889D01*
X43974Y953437D01*
X43019Y952915D01*
X42103Y952326D01*
X41231Y951674D01*
X40409Y950961D01*
X39639Y950191D01*
X38926Y949369D01*
X38274Y948497D01*
X37685Y947581D01*
X37163Y946626D01*
X36711Y945636D01*
X36331Y944616D01*
X36024Y943571D01*
X35793Y942508D01*
X35638Y941430D01*
X35560Y940344D01*
X35560Y939256D01*
X35638Y938170D01*
X35793Y937092D01*
X36024Y936029D01*
X36331Y934984D01*
X36711Y933964D01*
X37163Y932974D01*
X37685Y932019D01*
X38274Y931103D01*
X38926Y930231D01*
X39639Y929409D01*
X40409Y928639D01*
X41231Y927926D01*
X42103Y927274D01*
X43019Y926685D01*
X43974Y926163D01*
X44964Y925711D01*
X45984Y925331D01*
X47029Y925024D01*
X48092Y924793D01*
X49170Y924638D01*
X50256Y924560D01*
X51344Y924560D01*
X52430Y924638D01*
X53508Y924793D01*
X54571Y925024D01*
X55616Y925331D01*
X56636Y925711D01*
X57626Y926163D01*
X58581Y926685D01*
X59497Y927274D01*
X60369Y927926D01*
X61191Y928639D01*
X61961Y929409D01*
X62674Y930231D01*
X63326Y931103D01*
X63915Y932019D01*
X64437Y932974D01*
X64889Y933964D01*
X65269Y934984D01*
X65576Y936029D01*
X65807Y937092D01*
X65962Y938170D01*
X66040Y939256D01*
X254524Y580900D02*
X255569Y580969D01*
X256608Y581105D01*
X257635Y581310D01*
X258647Y581581D01*
X259639Y581917D01*
X260607Y582318D01*
X261546Y582782D01*
X262454Y583306D01*
X263325Y583888D01*
X264156Y584525D01*
X264943Y585216D01*
X265684Y585957D01*
X266375Y586744D01*
X267013Y587575D01*
X267595Y588446D01*
X268118Y589354D01*
X268582Y590293D01*
X268983Y591261D01*
X269319Y592253D01*
X269590Y593265D01*
X269795Y594292D01*
X269932Y595331D01*
X270000Y596376D01*
X270000Y597424D01*
X269932Y598469D01*
X269795Y599508D01*
X269590Y600535D01*
X269319Y601547D01*
X268983Y602539D01*
X268582Y603507D01*
X268118Y604446D01*
X267595Y605354D01*
X267013Y606225D01*
X266375Y607056D01*
X265684Y607843D01*
X264943Y608584D01*
X264156Y609275D01*
X263325Y609913D01*
X262454Y610495D01*
X261546Y611018D01*
X260607Y611482D01*
X259639Y611883D01*
X258647Y612219D01*
X257635Y612490D01*
X256608Y612695D01*
X255569Y612832D01*
X254524Y612900D01*
X253476Y612900D01*
X252431Y612832D01*
X251392Y612695D01*
X250365Y612490D01*
X249353Y612219D01*
X248361Y611883D01*
X247393Y611482D01*
X246454Y611018D01*
X245546Y610495D01*
X244675Y609913D01*
X243844Y609275D01*
X243057Y608584D01*
X242316Y607843D01*
X241625Y607056D01*
X240988Y606225D01*
X240406Y605354D01*
X239882Y604446D01*
X239418Y603507D01*
X239017Y602539D01*
X238681Y601547D01*
X238410Y600535D01*
X238205Y599508D01*
X238069Y598469D01*
X238000Y597424D01*
X238000Y596376D01*
X238069Y595331D01*
X238205Y594292D01*
X238410Y593265D01*
X238681Y592253D01*
X239017Y591261D01*
X239418Y590293D01*
X239882Y589354D01*
X240406Y588446D01*
X240988Y587575D01*
X241625Y586744D01*
X242316Y585957D01*
X243057Y585216D01*
X243844Y584525D01*
X244675Y583888D01*
X245546Y583306D01*
X246454Y582782D01*
X247393Y582318D01*
X248361Y581917D01*
X249353Y581581D01*
X250365Y581310D01*
X251392Y581105D01*
X252431Y580969D01*
X253476Y580900D01*
X254524Y580900D01*
X406924Y72900D02*
X407969Y72969D01*
X409008Y73105D01*
X410035Y73310D01*
X411047Y73581D01*
X412039Y73917D01*
X413007Y74318D01*
X413946Y74782D01*
X414854Y75306D01*
X415725Y75888D01*
X416556Y76525D01*
X417343Y77216D01*
X418084Y77957D01*
X418775Y78744D01*
X419413Y79575D01*
X419995Y80446D01*
X420518Y81354D01*
X420982Y82293D01*
X421383Y83261D01*
X421719Y84253D01*
X421990Y85265D01*
X422195Y86292D01*
X422332Y87331D01*
X422400Y88376D01*
X422400Y89424D01*
X422332Y90469D01*
X422195Y91508D01*
X421990Y92535D01*
X421719Y93547D01*
X421383Y94539D01*
X420982Y95507D01*
X420518Y96446D01*
X419995Y97354D01*
X419413Y98225D01*
X418775Y99056D01*
X418084Y99843D01*
X417343Y100584D01*
X416556Y101275D01*
X415725Y101913D01*
X414854Y102495D01*
X413946Y103018D01*
X413007Y103482D01*
X412039Y103883D01*
X411047Y104219D01*
X410035Y104490D01*
X409008Y104695D01*
X407969Y104832D01*
X406924Y104900D01*
X405876Y104900D01*
X404831Y104832D01*
X403792Y104695D01*
X402765Y104490D01*
X401753Y104219D01*
X400761Y103883D01*
X399793Y103482D01*
X398854Y103018D01*
X397946Y102495D01*
X397075Y101913D01*
X396244Y101275D01*
X395457Y100584D01*
X394716Y99843D01*
X394025Y99056D01*
X393388Y98225D01*
X392806Y97354D01*
X392282Y96446D01*
X391818Y95507D01*
X391417Y94539D01*
X391081Y93547D01*
X390810Y92535D01*
X390605Y91508D01*
X390469Y90469D01*
X390400Y89424D01*
X390400Y88376D01*
X390469Y87331D01*
X390605Y86292D01*
X390810Y85265D01*
X391081Y84253D01*
X391417Y83261D01*
X391818Y82293D01*
X392282Y81354D01*
X392806Y80446D01*
X393388Y79575D01*
X394025Y78744D01*
X394716Y77957D01*
X395457Y77216D01*
X396244Y76525D01*
X397075Y75888D01*
X397946Y75306D01*
X398854Y74782D01*
X399793Y74318D01*
X400761Y73917D01*
X401753Y73581D01*
X402765Y73310D01*
X403792Y73105D01*
X404831Y72969D01*
X405876Y72900D01*
X406924Y72900D01*
X686324Y72900D02*
X687369Y72969D01*
X688408Y73105D01*
X689435Y73310D01*
X690447Y73581D01*
X691439Y73917D01*
X692407Y74318D01*
X693346Y74782D01*
X694254Y75306D01*
X695125Y75888D01*
X695956Y76525D01*
X696743Y77216D01*
X697484Y77957D01*
X698175Y78744D01*
X698813Y79575D01*
X699395Y80446D01*
X699918Y81354D01*
X700382Y82293D01*
X700783Y83261D01*
X701119Y84253D01*
X701390Y85265D01*
X701595Y86292D01*
X701732Y87331D01*
X701800Y88376D01*
X701800Y89424D01*
X701732Y90469D01*
X701595Y91508D01*
X701390Y92535D01*
X701119Y93547D01*
X700783Y94539D01*
X700382Y95507D01*
X699918Y96446D01*
X699395Y97354D01*
X698813Y98225D01*
X698175Y99056D01*
X697484Y99843D01*
X696743Y100584D01*
X695956Y101275D01*
X695125Y101913D01*
X694254Y102495D01*
X693346Y103018D01*
X692407Y103482D01*
X691439Y103883D01*
X690447Y104219D01*
X689435Y104490D01*
X688408Y104695D01*
X687369Y104832D01*
X686324Y104900D01*
X685276Y104900D01*
X684231Y104832D01*
X683192Y104695D01*
X682165Y104490D01*
X681153Y104219D01*
X680161Y103883D01*
X679193Y103482D01*
X678254Y103018D01*
X677346Y102495D01*
X676475Y101913D01*
X675644Y101275D01*
X674857Y100584D01*
X674116Y99843D01*
X673425Y99056D01*
X672788Y98225D01*
X672206Y97354D01*
X671682Y96446D01*
X671218Y95507D01*
X670817Y94539D01*
X670481Y93547D01*
X670210Y92535D01*
X670005Y91508D01*
X669869Y90469D01*
X669800Y89424D01*
X669800Y88376D01*
X669869Y87331D01*
X670005Y86292D01*
X670210Y85265D01*
X670481Y84253D01*
X670817Y83261D01*
X671218Y82293D01*
X671682Y81354D01*
X672206Y80446D01*
X672788Y79575D01*
X673425Y78744D01*
X674116Y77957D01*
X674857Y77216D01*
X675644Y76525D01*
X676475Y75888D01*
X677346Y75306D01*
X678254Y74782D01*
X679193Y74318D01*
X680161Y73917D01*
X681153Y73581D01*
X682165Y73310D01*
X683192Y73105D01*
X684231Y72969D01*
X685276Y72900D01*
X686324Y72900D01*
X491299Y187604D02*
X492169Y187680D01*
X493028Y187832D01*
X493872Y188058D01*
X494692Y188356D01*
X495484Y188725D01*
X496240Y189162D01*
X496955Y189663D01*
X497624Y190224D01*
X498242Y190842D01*
X498803Y191511D01*
X499304Y192226D01*
X499741Y192982D01*
X500110Y193774D01*
X500408Y194594D01*
X500634Y195438D01*
X500786Y196298D01*
X500862Y197167D01*
X500862Y198041D01*
X500786Y198911D01*
X500634Y199770D01*
X500408Y200614D01*
X500110Y201434D01*
X499741Y202226D01*
X499304Y202982D01*
X498803Y203697D01*
X498242Y204366D01*
X497624Y204984D01*
X496955Y205545D01*
X496240Y206046D01*
X495484Y206483D01*
X494692Y206852D01*
X493872Y207150D01*
X493028Y207376D01*
X492169Y207528D01*
X491299Y207604D01*
X490425Y207604D01*
X489556Y207528D01*
X488696Y207376D01*
X487852Y207150D01*
X487032Y206852D01*
X486240Y206483D01*
X485484Y206046D01*
X484769Y205545D01*
X484100Y204984D01*
X483482Y204366D01*
X482921Y203697D01*
X482420Y202982D01*
X481983Y202226D01*
X481614Y201434D01*
X481316Y200614D01*
X481090Y199770D01*
X480938Y198911D01*
X480862Y198041D01*
X480862Y197167D01*
X480938Y196298D01*
X481090Y195438D01*
X481316Y194594D01*
X481614Y193774D01*
X481983Y192982D01*
X482420Y192226D01*
X482921Y191511D01*
X483482Y190842D01*
X484100Y190224D01*
X484769Y189663D01*
X485484Y189162D01*
X486240Y188725D01*
X487032Y188356D01*
X487852Y188058D01*
X488696Y187832D01*
X489556Y187680D01*
X490425Y187604D01*
X491299Y187604D01*
M02*
