G04 EAGLE Gerber RS-274X export*
G75*
%MOMM*%
%FSLAX34Y34*%
%LPD*%
%INSoldermask Top*%
%IPPOS*%
%AMOC8*
5,1,8,0,0,1.08239X$1,22.5*%
G01*
%ADD10P,3.574052X8X112.500000*%
%ADD11C,1.574800*%
%ADD12C,3.352400*%
%ADD13C,2.152400*%
%ADD14C,1.930400*%
%ADD15P,1.396628X8X22.500000*%
%ADD16R,1.295400X1.422400*%
%ADD17R,1.422400X1.295400*%
%ADD18C,2.112400*%
%ADD19C,2.082800*%


D10*
X114300Y88900D03*
X114300Y595630D03*
D11*
X246888Y510540D02*
X261112Y510540D01*
X261112Y485140D02*
X246888Y485140D01*
X246888Y459740D02*
X261112Y459740D01*
X261112Y434340D02*
X246888Y434340D01*
X246888Y408940D02*
X261112Y408940D01*
X261112Y383540D02*
X246888Y383540D01*
X246888Y358140D02*
X261112Y358140D01*
X261112Y332740D02*
X246888Y332740D01*
X246888Y292100D02*
X261112Y292100D01*
X261112Y266700D02*
X246888Y266700D01*
X246888Y241300D02*
X261112Y241300D01*
X261112Y215900D02*
X246888Y215900D01*
X246888Y190500D02*
X261112Y190500D01*
X261112Y165100D02*
X246888Y165100D01*
X246888Y139700D02*
X261112Y139700D01*
X261112Y114300D02*
X246888Y114300D01*
X729488Y419100D02*
X743712Y419100D01*
X743712Y393700D02*
X729488Y393700D01*
X729488Y368300D02*
X743712Y368300D01*
X743712Y342900D02*
X729488Y342900D01*
X729488Y317500D02*
X743712Y317500D01*
X743712Y292100D02*
X729488Y292100D01*
X729488Y241300D02*
X743712Y241300D01*
X743712Y215900D02*
X729488Y215900D01*
X729488Y190500D02*
X743712Y190500D01*
X743712Y165100D02*
X729488Y165100D01*
X729488Y139700D02*
X743712Y139700D01*
X743712Y114300D02*
X729488Y114300D01*
D12*
X254000Y596900D03*
X406400Y88900D03*
X685800Y88900D03*
D13*
X490862Y197604D03*
D14*
X444500Y889000D03*
X419100Y889000D03*
X393700Y889000D03*
X368300Y889000D03*
X342900Y889000D03*
X317500Y889000D03*
X292100Y889000D03*
X266700Y889000D03*
X241300Y889000D03*
D15*
X469900Y635000D03*
X495300Y635000D03*
X838200Y635000D03*
X863600Y635000D03*
X469900Y317500D03*
X495300Y317500D03*
X838200Y317500D03*
X863600Y317500D03*
X571500Y889000D03*
X596900Y889000D03*
D16*
X334010Y444500D03*
X351790Y444500D03*
X631190Y114300D03*
X613410Y114300D03*
X626110Y584200D03*
X643890Y584200D03*
D17*
X711200Y524510D03*
X711200Y542290D03*
D16*
X613410Y457200D03*
X631190Y457200D03*
D17*
X647700Y219710D03*
X647700Y237490D03*
D16*
X364490Y292100D03*
X346710Y292100D03*
X770890Y685800D03*
X753110Y685800D03*
D18*
X545100Y520300D03*
X545100Y470300D03*
X420100Y470300D03*
X420100Y520300D03*
X913400Y520300D03*
X913400Y470300D03*
X788400Y470300D03*
X788400Y520300D03*
X545100Y202800D03*
X545100Y152800D03*
X420100Y152800D03*
X420100Y202800D03*
X913400Y202800D03*
X913400Y152800D03*
X788400Y152800D03*
X788400Y202800D03*
D19*
X97800Y851300D03*
X97800Y876300D03*
X97800Y901300D03*
X130800Y851300D03*
X130800Y876300D03*
X130800Y901300D03*
M02*
