M48
;GenerationSoftware,Autodesk,EAGLE,9.6.1*%
;CreationDate,2022-12-13T20:40:39Z*%
FMAT,2
ICI,OFF
METRIC,TZ,000.000
T8C0.350
T7C0.813
T6C1.000
T5C1.016
T4C1.321
T3C1.400
T2C2.000
T1C3.200
%
G90
M71
T1
X25400Y59690
X40640Y8890
X68580Y8890
T2
X49086Y19760
T3
X91340Y47030
X91340Y52030
X42010Y52030
X42010Y47030
X54510Y47030
X42010Y20280
X54510Y52030
X78840Y47030
X78840Y52030
X54510Y20280
X54510Y15280
X42010Y15280
X91340Y20280
X91340Y15280
X78840Y15280
X78840Y20280
T4
X11430Y8890
X11430Y59563
T5
X25400Y24130
X25400Y21590
X25400Y19050
X25400Y16510
X25400Y13970
X25400Y11430
X73660Y41910
X73660Y39370
X73660Y36830
X73660Y34290
X73660Y31750
X73660Y29210
X73660Y24130
X73660Y21590
X73660Y19050
X73660Y16510
X73660Y13970
X73660Y11430
X25400Y29210
X25400Y51054
X25400Y48514
X25400Y45974
X25400Y43434
X25400Y40894
X25400Y38354
X25400Y35814
X25400Y33274
X25400Y26670
T6
X41910Y88900
X39370Y88900
X36830Y88900
X34290Y88900
X31750Y88900
X44450Y88900
X29210Y88900
X26670Y88900
X24130Y88900
X9780Y85130
X9780Y87630
X9780Y90130
X13080Y85130
X13080Y87630
X13080Y90130
T7
X49530Y63500
X83820Y63500
X86360Y63500
X46990Y31750
X49530Y31750
X83820Y31750
X86360Y31750
X57150Y88900
X59690Y88900
X46990Y63500
T8
X13970Y36830
X35560Y85090
X17780Y49530
X15240Y30480
X19050Y50800
X16510Y48260
M30