G04 EAGLE Gerber RS-274X export*
G75*
%MOIN*%
%FSLAX36Y36*%
%LPD*%
%INBottom Copper Layer*%
%IPPOS*%
%AMOC8*
5,1,8,0,0,1.08239X$1,22.5*%
G01*
%ADD10P,0.134216X8X202.500000*%
%ADD11C,0.060000*%
%ADD12C,0.070000*%
%ADD13P,0.056284X8X22.500000*%
%ADD14C,0.078740*%
%ADD15C,0.082677*%
%ADD16C,0.076000*%
%ADD17C,0.029780*%
%ADD18C,0.010000*%

G36*
X5955464Y40059D02*
X5955464Y40059D01*
X5955931Y40088D01*
X5956084Y40137D01*
X5956242Y40157D01*
X5956677Y40329D01*
X5957123Y40474D01*
X5957258Y40559D01*
X5957407Y40618D01*
X5957785Y40892D01*
X5958181Y41143D01*
X5958291Y41260D01*
X5958421Y41354D01*
X5958719Y41714D01*
X5959040Y42055D01*
X5959117Y42195D01*
X5959219Y42318D01*
X5959419Y42742D01*
X5959645Y43151D01*
X5959685Y43306D01*
X5959753Y43451D01*
X5959841Y43910D01*
X5959959Y44364D01*
X5959974Y44602D01*
X5959989Y44681D01*
X5959984Y44762D01*
X5959999Y45000D01*
X5959999Y3955000D01*
X5959941Y3955464D01*
X5959912Y3955931D01*
X5959862Y3956084D01*
X5959842Y3956242D01*
X5959670Y3956677D01*
X5959526Y3957123D01*
X5959440Y3957258D01*
X5959382Y3957407D01*
X5959107Y3957785D01*
X5958857Y3958181D01*
X5958740Y3958291D01*
X5958646Y3958421D01*
X5958286Y3958719D01*
X5957945Y3959040D01*
X5957805Y3959117D01*
X5957681Y3959219D01*
X5957258Y3959419D01*
X5956849Y3959645D01*
X5956694Y3959685D01*
X5956549Y3959753D01*
X5956090Y3959841D01*
X5955636Y3959959D01*
X5955398Y3959974D01*
X5955319Y3959989D01*
X5955238Y3959984D01*
X5955000Y3959999D01*
X45000Y3959999D01*
X44536Y3959941D01*
X44069Y3959912D01*
X43916Y3959862D01*
X43757Y3959842D01*
X43323Y3959670D01*
X42877Y3959526D01*
X42742Y3959440D01*
X42593Y3959382D01*
X42215Y3959107D01*
X41819Y3958857D01*
X41709Y3958740D01*
X41579Y3958646D01*
X41281Y3958286D01*
X40960Y3957945D01*
X40883Y3957805D01*
X40781Y3957681D01*
X40581Y3957258D01*
X40355Y3956849D01*
X40315Y3956694D01*
X40247Y3956549D01*
X40159Y3956090D01*
X40041Y3955636D01*
X40026Y3955398D01*
X40011Y3955319D01*
X40016Y3955238D01*
X40001Y3955000D01*
X40001Y45000D01*
X40059Y44536D01*
X40088Y44069D01*
X40137Y43916D01*
X40157Y43757D01*
X40329Y43323D01*
X40474Y42877D01*
X40559Y42742D01*
X40618Y42593D01*
X40892Y42215D01*
X41143Y41819D01*
X41260Y41709D01*
X41354Y41579D01*
X41714Y41281D01*
X42055Y40960D01*
X42195Y40883D01*
X42318Y40781D01*
X42742Y40581D01*
X43151Y40355D01*
X43306Y40315D01*
X43451Y40247D01*
X43910Y40159D01*
X44364Y40041D01*
X44602Y40026D01*
X44681Y40011D01*
X44762Y40016D01*
X45000Y40001D01*
X5955000Y40001D01*
X5955464Y40059D01*
G37*
%LPC*%
G36*
X362839Y1413999D02*
X362839Y1413999D01*
X349607Y1419480D01*
X339480Y1429607D01*
X336868Y1435913D01*
X336811Y1436013D01*
X336776Y1436123D01*
X336501Y1436557D01*
X336248Y1437001D01*
X336168Y1437083D01*
X336106Y1437181D01*
X335733Y1437533D01*
X335376Y1437901D01*
X335278Y1437961D01*
X335194Y1438040D01*
X334747Y1438287D01*
X334309Y1438555D01*
X334199Y1438589D01*
X334098Y1438645D01*
X333601Y1438773D01*
X333112Y1438924D01*
X332998Y1438930D01*
X332886Y1438959D01*
X332249Y1438999D01*
X295443Y1438999D01*
X287535Y1446908D01*
X246908Y1487535D01*
X246907Y1487535D01*
X238999Y1495443D01*
X238999Y1954556D01*
X445443Y2161001D01*
X2354556Y2161001D01*
X2362464Y2153093D01*
X2362465Y2153092D01*
X2601517Y1914040D01*
X2601825Y1913801D01*
X2602107Y1913535D01*
X2602317Y1913419D01*
X2602507Y1913272D01*
X2602864Y1913117D01*
X2603204Y1912930D01*
X2603436Y1912870D01*
X2603656Y1912774D01*
X2604040Y1912713D01*
X2604416Y1912616D01*
X2604813Y1912591D01*
X2604893Y1912578D01*
X2604941Y1912583D01*
X2605052Y1912575D01*
X3703914Y1912575D01*
X3704028Y1912590D01*
X3704143Y1912581D01*
X3704647Y1912668D01*
X3705156Y1912732D01*
X3705263Y1912775D01*
X3705377Y1912794D01*
X3705844Y1913004D01*
X3706320Y1913193D01*
X3706414Y1913261D01*
X3706519Y1913308D01*
X3706918Y1913627D01*
X3707334Y1913929D01*
X3707408Y1914018D01*
X3707497Y1914089D01*
X3707806Y1914498D01*
X3708133Y1914893D01*
X3708182Y1914997D01*
X3708251Y1915089D01*
X3708532Y1915662D01*
X3713805Y1928390D01*
X3727122Y1941707D01*
X3744521Y1948914D01*
X3763353Y1948914D01*
X3780752Y1941707D01*
X3794069Y1928390D01*
X3799342Y1915662D01*
X3799399Y1915562D01*
X3799434Y1915452D01*
X3799709Y1915018D01*
X3799962Y1914574D01*
X3800042Y1914491D01*
X3800104Y1914394D01*
X3800478Y1914041D01*
X3800833Y1913674D01*
X3800932Y1913614D01*
X3801015Y1913535D01*
X3801463Y1913288D01*
X3801901Y1913019D01*
X3802011Y1912985D01*
X3802112Y1912930D01*
X3802609Y1912801D01*
X3803098Y1912650D01*
X3803212Y1912645D01*
X3803324Y1912616D01*
X3803960Y1912575D01*
X4196039Y1912575D01*
X4196154Y1912590D01*
X4196269Y1912581D01*
X4196773Y1912668D01*
X4197282Y1912732D01*
X4197389Y1912775D01*
X4197503Y1912794D01*
X4197970Y1913004D01*
X4198446Y1913193D01*
X4198540Y1913261D01*
X4198645Y1913308D01*
X4199044Y1913627D01*
X4199460Y1913929D01*
X4199534Y1914018D01*
X4199623Y1914089D01*
X4199932Y1914498D01*
X4200259Y1914893D01*
X4200308Y1914997D01*
X4200377Y1915089D01*
X4200658Y1915662D01*
X4205930Y1928390D01*
X4219248Y1941707D01*
X4236647Y1948914D01*
X4255479Y1948914D01*
X4272878Y1941707D01*
X4286195Y1928390D01*
X4291468Y1915662D01*
X4291525Y1915562D01*
X4291560Y1915452D01*
X4291835Y1915018D01*
X4292088Y1914574D01*
X4292168Y1914491D01*
X4292230Y1914394D01*
X4292604Y1914041D01*
X4292959Y1913674D01*
X4293058Y1913614D01*
X4293141Y1913535D01*
X4293589Y1913288D01*
X4294027Y1913019D01*
X4294137Y1912985D01*
X4294238Y1912930D01*
X4294734Y1912801D01*
X4295224Y1912650D01*
X4295338Y1912645D01*
X4295450Y1912616D01*
X4296086Y1912575D01*
X5203914Y1912575D01*
X5204028Y1912590D01*
X5204143Y1912581D01*
X5204647Y1912668D01*
X5205156Y1912732D01*
X5205263Y1912775D01*
X5205377Y1912794D01*
X5205844Y1913004D01*
X5206320Y1913193D01*
X5206414Y1913261D01*
X5206519Y1913308D01*
X5206918Y1913627D01*
X5207334Y1913929D01*
X5207408Y1914018D01*
X5207497Y1914089D01*
X5207806Y1914498D01*
X5208133Y1914893D01*
X5208182Y1914997D01*
X5208251Y1915089D01*
X5208532Y1915662D01*
X5213805Y1928390D01*
X5227122Y1941707D01*
X5244521Y1948914D01*
X5263353Y1948914D01*
X5280752Y1941707D01*
X5294069Y1928390D01*
X5299342Y1915662D01*
X5299399Y1915562D01*
X5299434Y1915452D01*
X5299709Y1915018D01*
X5299962Y1914574D01*
X5300042Y1914491D01*
X5300104Y1914394D01*
X5300478Y1914041D01*
X5300833Y1913674D01*
X5300932Y1913614D01*
X5301015Y1913535D01*
X5301463Y1913288D01*
X5301901Y1913019D01*
X5302011Y1912985D01*
X5302112Y1912930D01*
X5302609Y1912801D01*
X5303098Y1912650D01*
X5303212Y1912645D01*
X5303324Y1912616D01*
X5303960Y1912575D01*
X5696039Y1912575D01*
X5696154Y1912590D01*
X5696269Y1912581D01*
X5696773Y1912668D01*
X5697282Y1912732D01*
X5697389Y1912775D01*
X5697503Y1912794D01*
X5697970Y1913004D01*
X5698446Y1913193D01*
X5698540Y1913261D01*
X5698645Y1913308D01*
X5699044Y1913627D01*
X5699460Y1913929D01*
X5699534Y1914018D01*
X5699623Y1914089D01*
X5699932Y1914498D01*
X5700259Y1914893D01*
X5700308Y1914997D01*
X5700377Y1915089D01*
X5700658Y1915662D01*
X5705930Y1928390D01*
X5719248Y1941707D01*
X5736647Y1948914D01*
X5755479Y1948914D01*
X5772878Y1941707D01*
X5786195Y1928390D01*
X5793402Y1910991D01*
X5793402Y1892158D01*
X5786195Y1874759D01*
X5772878Y1861442D01*
X5755479Y1854235D01*
X5736647Y1854235D01*
X5719248Y1861442D01*
X5705930Y1874759D01*
X5700658Y1887488D01*
X5700601Y1887588D01*
X5700566Y1887698D01*
X5700291Y1888132D01*
X5700038Y1888576D01*
X5699958Y1888658D01*
X5699896Y1888756D01*
X5699522Y1889108D01*
X5699166Y1889475D01*
X5699068Y1889536D01*
X5698984Y1889615D01*
X5698537Y1889862D01*
X5698099Y1890130D01*
X5697989Y1890164D01*
X5697888Y1890220D01*
X5697391Y1890348D01*
X5696902Y1890499D01*
X5696788Y1890505D01*
X5696676Y1890533D01*
X5696039Y1890574D01*
X5303960Y1890574D01*
X5303846Y1890560D01*
X5303731Y1890569D01*
X5303227Y1890481D01*
X5302718Y1890417D01*
X5302611Y1890375D01*
X5302497Y1890355D01*
X5302030Y1890145D01*
X5301553Y1889956D01*
X5301460Y1889889D01*
X5301355Y1889842D01*
X5300955Y1889522D01*
X5300540Y1889221D01*
X5300466Y1889132D01*
X5300376Y1889060D01*
X5300068Y1888651D01*
X5299741Y1888256D01*
X5299692Y1888152D01*
X5299623Y1888060D01*
X5299342Y1887488D01*
X5294069Y1874759D01*
X5280752Y1861442D01*
X5263353Y1854235D01*
X5244521Y1854235D01*
X5227122Y1861442D01*
X5213805Y1874759D01*
X5208532Y1887488D01*
X5208475Y1887588D01*
X5208440Y1887698D01*
X5208165Y1888132D01*
X5207912Y1888576D01*
X5207832Y1888658D01*
X5207770Y1888756D01*
X5207396Y1889108D01*
X5207040Y1889475D01*
X5206942Y1889536D01*
X5206859Y1889615D01*
X5206411Y1889862D01*
X5205973Y1890130D01*
X5205863Y1890164D01*
X5205762Y1890220D01*
X5205265Y1890348D01*
X5204776Y1890499D01*
X5204662Y1890505D01*
X5204550Y1890533D01*
X5203914Y1890574D01*
X4296086Y1890574D01*
X4295972Y1890560D01*
X4295857Y1890569D01*
X4295353Y1890481D01*
X4294844Y1890417D01*
X4294737Y1890375D01*
X4294623Y1890355D01*
X4294156Y1890145D01*
X4293679Y1889956D01*
X4293586Y1889889D01*
X4293481Y1889842D01*
X4293081Y1889522D01*
X4292666Y1889221D01*
X4292592Y1889132D01*
X4292502Y1889060D01*
X4292194Y1888651D01*
X4291867Y1888256D01*
X4291818Y1888152D01*
X4291749Y1888060D01*
X4291468Y1887488D01*
X4286195Y1874759D01*
X4272878Y1861442D01*
X4255479Y1854235D01*
X4236647Y1854235D01*
X4219248Y1861442D01*
X4205930Y1874759D01*
X4200658Y1887488D01*
X4200601Y1887588D01*
X4200566Y1887698D01*
X4200291Y1888132D01*
X4200038Y1888576D01*
X4199958Y1888658D01*
X4199896Y1888756D01*
X4199522Y1889108D01*
X4199166Y1889475D01*
X4199068Y1889536D01*
X4198984Y1889615D01*
X4198537Y1889862D01*
X4198099Y1890130D01*
X4197989Y1890164D01*
X4197888Y1890220D01*
X4197391Y1890348D01*
X4196902Y1890499D01*
X4196788Y1890505D01*
X4196676Y1890533D01*
X4196039Y1890574D01*
X3803960Y1890574D01*
X3803846Y1890560D01*
X3803731Y1890569D01*
X3803227Y1890481D01*
X3802718Y1890417D01*
X3802611Y1890375D01*
X3802497Y1890355D01*
X3802030Y1890145D01*
X3801553Y1889956D01*
X3801460Y1889889D01*
X3801355Y1889842D01*
X3800955Y1889522D01*
X3800540Y1889221D01*
X3800466Y1889132D01*
X3800376Y1889060D01*
X3800068Y1888651D01*
X3799741Y1888256D01*
X3799692Y1888152D01*
X3799623Y1888060D01*
X3799342Y1887488D01*
X3794069Y1874759D01*
X3780752Y1861442D01*
X3763353Y1854235D01*
X3744521Y1854235D01*
X3727122Y1861442D01*
X3713805Y1874759D01*
X3708532Y1887488D01*
X3708475Y1887588D01*
X3708440Y1887698D01*
X3708165Y1888132D01*
X3707912Y1888576D01*
X3707832Y1888658D01*
X3707770Y1888756D01*
X3707396Y1889108D01*
X3707040Y1889475D01*
X3706942Y1889536D01*
X3706859Y1889615D01*
X3706411Y1889862D01*
X3705973Y1890130D01*
X3705863Y1890164D01*
X3705762Y1890220D01*
X3705265Y1890348D01*
X3704776Y1890499D01*
X3704662Y1890505D01*
X3704550Y1890533D01*
X3703914Y1890574D01*
X2593869Y1890574D01*
X2585961Y1898482D01*
X2585960Y1898483D01*
X2346908Y2137535D01*
X2346600Y2137773D01*
X2346318Y2138040D01*
X2346108Y2138156D01*
X2345918Y2138303D01*
X2345561Y2138457D01*
X2345221Y2138645D01*
X2344989Y2138705D01*
X2344769Y2138800D01*
X2344385Y2138861D01*
X2344009Y2138959D01*
X2343612Y2138984D01*
X2343532Y2138997D01*
X2343484Y2138992D01*
X2343373Y2138999D01*
X456627Y2138999D01*
X456242Y2138951D01*
X455853Y2138939D01*
X455623Y2138872D01*
X455385Y2138842D01*
X455024Y2138700D01*
X454650Y2138592D01*
X454443Y2138470D01*
X454220Y2138382D01*
X453906Y2138153D01*
X453571Y2137956D01*
X453272Y2137694D01*
X453207Y2137646D01*
X453176Y2137609D01*
X453092Y2137535D01*
X262465Y1946908D01*
X262226Y1946600D01*
X261960Y1946318D01*
X261844Y1946108D01*
X261697Y1945918D01*
X261543Y1945561D01*
X261355Y1945221D01*
X261295Y1944989D01*
X261200Y1944769D01*
X261139Y1944385D01*
X261041Y1944009D01*
X261016Y1943612D01*
X261003Y1943532D01*
X261008Y1943484D01*
X261001Y1943373D01*
X261001Y1506627D01*
X261049Y1506242D01*
X261061Y1505853D01*
X261127Y1505623D01*
X261157Y1505385D01*
X261300Y1505024D01*
X261408Y1504650D01*
X261530Y1504443D01*
X261618Y1504220D01*
X261846Y1503906D01*
X262044Y1503571D01*
X262306Y1503272D01*
X262354Y1503207D01*
X262391Y1503176D01*
X262465Y1503092D01*
X303092Y1462465D01*
X303400Y1462226D01*
X303682Y1461960D01*
X303892Y1461844D01*
X304082Y1461697D01*
X304439Y1461543D01*
X304779Y1461355D01*
X305011Y1461295D01*
X305231Y1461200D01*
X305615Y1461139D01*
X305991Y1461041D01*
X306388Y1461016D01*
X306468Y1461003D01*
X306516Y1461008D01*
X306627Y1461001D01*
X332249Y1461001D01*
X332364Y1461015D01*
X332478Y1461006D01*
X332983Y1461093D01*
X333492Y1461157D01*
X333599Y1461200D01*
X333712Y1461219D01*
X334180Y1461430D01*
X334656Y1461618D01*
X334750Y1461686D01*
X334855Y1461733D01*
X335254Y1462052D01*
X335670Y1462354D01*
X335743Y1462443D01*
X335833Y1462515D01*
X336142Y1462924D01*
X336469Y1463318D01*
X336518Y1463422D01*
X336587Y1463515D01*
X336868Y1464087D01*
X339480Y1470393D01*
X349607Y1480520D01*
X362839Y1486001D01*
X437161Y1486001D01*
X450392Y1480520D01*
X460520Y1470392D01*
X466001Y1457161D01*
X466001Y1442839D01*
X460520Y1429607D01*
X450392Y1419480D01*
X437161Y1413999D01*
X362839Y1413999D01*
G37*
%LPD*%
%LPC*%
G36*
X2145443Y238999D02*
X2145443Y238999D01*
X1896908Y487535D01*
X1896600Y487773D01*
X1896318Y488040D01*
X1896108Y488156D01*
X1895918Y488303D01*
X1895561Y488457D01*
X1895221Y488645D01*
X1894989Y488705D01*
X1894769Y488800D01*
X1894385Y488861D01*
X1894009Y488959D01*
X1893612Y488984D01*
X1893532Y488997D01*
X1893484Y488992D01*
X1893373Y488999D01*
X556627Y488999D01*
X556242Y488951D01*
X555853Y488939D01*
X555623Y488872D01*
X555385Y488842D01*
X555024Y488700D01*
X554650Y488592D01*
X554443Y488470D01*
X554220Y488382D01*
X553906Y488153D01*
X553571Y487956D01*
X553272Y487694D01*
X553207Y487646D01*
X553176Y487609D01*
X553092Y487535D01*
X504556Y438999D01*
X467750Y438999D01*
X467636Y438985D01*
X467521Y438994D01*
X467017Y438907D01*
X466508Y438842D01*
X466401Y438800D01*
X466287Y438780D01*
X465820Y438570D01*
X465344Y438382D01*
X465250Y438314D01*
X465145Y438267D01*
X464746Y437948D01*
X464330Y437646D01*
X464256Y437557D01*
X464167Y437485D01*
X463858Y437076D01*
X463531Y436681D01*
X463482Y436578D01*
X463413Y436485D01*
X463132Y435913D01*
X460520Y429607D01*
X450392Y419480D01*
X437161Y413999D01*
X362839Y413999D01*
X349607Y419480D01*
X339480Y429607D01*
X333999Y442839D01*
X333999Y457161D01*
X339480Y470392D01*
X349607Y480520D01*
X362839Y486001D01*
X437161Y486001D01*
X450392Y480520D01*
X460520Y470393D01*
X463132Y464087D01*
X463189Y463987D01*
X463224Y463877D01*
X463499Y463443D01*
X463752Y462999D01*
X463832Y462916D01*
X463894Y462819D01*
X464267Y462467D01*
X464623Y462099D01*
X464722Y462039D01*
X464805Y461960D01*
X465253Y461713D01*
X465691Y461445D01*
X465801Y461411D01*
X465902Y461355D01*
X466399Y461226D01*
X466888Y461076D01*
X467002Y461070D01*
X467114Y461041D01*
X467750Y461001D01*
X493373Y461001D01*
X493758Y461049D01*
X494147Y461061D01*
X494377Y461127D01*
X494615Y461157D01*
X494976Y461300D01*
X495350Y461408D01*
X495557Y461530D01*
X495780Y461618D01*
X496094Y461846D01*
X496429Y462044D01*
X496727Y462306D01*
X496793Y462354D01*
X496824Y462391D01*
X496908Y462465D01*
X545443Y511001D01*
X1904556Y511001D01*
X2153092Y262465D01*
X2153400Y262226D01*
X2153682Y261960D01*
X2153892Y261844D01*
X2154082Y261697D01*
X2154439Y261543D01*
X2154779Y261355D01*
X2155011Y261295D01*
X2155231Y261200D01*
X2155615Y261139D01*
X2155991Y261041D01*
X2156388Y261016D01*
X2156468Y261003D01*
X2156516Y261008D01*
X2156627Y261001D01*
X2443373Y261001D01*
X2443758Y261049D01*
X2444147Y261061D01*
X2444377Y261127D01*
X2444615Y261157D01*
X2444976Y261300D01*
X2445350Y261408D01*
X2445557Y261530D01*
X2445780Y261618D01*
X2446094Y261846D01*
X2446429Y262044D01*
X2446727Y262306D01*
X2446793Y262354D01*
X2446824Y262391D01*
X2446908Y262465D01*
X2695443Y511001D01*
X5043373Y511001D01*
X5043758Y511049D01*
X5044147Y511061D01*
X5044377Y511127D01*
X5044615Y511157D01*
X5044976Y511300D01*
X5045350Y511408D01*
X5045557Y511530D01*
X5045780Y511618D01*
X5046094Y511846D01*
X5046429Y512044D01*
X5046727Y512306D01*
X5046793Y512354D01*
X5046824Y512391D01*
X5046908Y512465D01*
X5077645Y543203D01*
X5077884Y543510D01*
X5078150Y543793D01*
X5078266Y544002D01*
X5078413Y544192D01*
X5078567Y544549D01*
X5078755Y544889D01*
X5078815Y545121D01*
X5078911Y545341D01*
X5078971Y545725D01*
X5079069Y546101D01*
X5079094Y546498D01*
X5079107Y546578D01*
X5079102Y546626D01*
X5079109Y546738D01*
X5079109Y554155D01*
X5082290Y561833D01*
X5088167Y567710D01*
X5095845Y570890D01*
X5104155Y570890D01*
X5111833Y567710D01*
X5117710Y561833D01*
X5120890Y554155D01*
X5120890Y545845D01*
X5117710Y538167D01*
X5111833Y532290D01*
X5104155Y529109D01*
X5096738Y529109D01*
X5096352Y529061D01*
X5095963Y529049D01*
X5095733Y528983D01*
X5095495Y528953D01*
X5095134Y528810D01*
X5094760Y528702D01*
X5094554Y528580D01*
X5094331Y528492D01*
X5094016Y528264D01*
X5093681Y528066D01*
X5093383Y527804D01*
X5093317Y527756D01*
X5093286Y527719D01*
X5093203Y527645D01*
X5054556Y488999D01*
X2706627Y488999D01*
X2706242Y488951D01*
X2705853Y488939D01*
X2705623Y488872D01*
X2705385Y488842D01*
X2705024Y488700D01*
X2704650Y488592D01*
X2704443Y488470D01*
X2704220Y488382D01*
X2703906Y488153D01*
X2703571Y487956D01*
X2703272Y487694D01*
X2703207Y487646D01*
X2703176Y487609D01*
X2703092Y487535D01*
X2454556Y238999D01*
X2145443Y238999D01*
G37*
%LPD*%
%LPC*%
G36*
X5244521Y2051086D02*
X5244521Y2051086D01*
X5227122Y2058293D01*
X5213805Y2071610D01*
X5208532Y2084338D01*
X5208475Y2084438D01*
X5208440Y2084548D01*
X5208165Y2084982D01*
X5207912Y2085426D01*
X5207832Y2085508D01*
X5207770Y2085606D01*
X5207396Y2085959D01*
X5207040Y2086326D01*
X5206942Y2086386D01*
X5206859Y2086465D01*
X5206411Y2086712D01*
X5205973Y2086981D01*
X5205863Y2087015D01*
X5205762Y2087070D01*
X5205265Y2087199D01*
X5204776Y2087349D01*
X5204662Y2087355D01*
X5204550Y2087384D01*
X5203914Y2087424D01*
X4347018Y2087424D01*
X4246908Y2187535D01*
X4246600Y2187773D01*
X4246318Y2188040D01*
X4246108Y2188156D01*
X4245918Y2188303D01*
X4245561Y2188457D01*
X4245221Y2188645D01*
X4244989Y2188705D01*
X4244769Y2188800D01*
X4244385Y2188861D01*
X4244009Y2188959D01*
X4243612Y2188984D01*
X4243532Y2188997D01*
X4243484Y2188992D01*
X4243373Y2188999D01*
X2070614Y2188999D01*
X2070228Y2188951D01*
X2069840Y2188939D01*
X2069609Y2188872D01*
X2069371Y2188842D01*
X2069010Y2188700D01*
X2068636Y2188592D01*
X2068430Y2188470D01*
X2068207Y2188382D01*
X2067892Y2188153D01*
X2067557Y2187956D01*
X2067259Y2187694D01*
X2067193Y2187646D01*
X2067162Y2187609D01*
X2067079Y2187535D01*
X2061833Y2182290D01*
X2054155Y2179109D01*
X2045845Y2179109D01*
X2038167Y2182290D01*
X2032290Y2188167D01*
X2029109Y2195845D01*
X2029109Y2204155D01*
X2032290Y2211833D01*
X2038167Y2217710D01*
X2045845Y2220890D01*
X2054155Y2220890D01*
X2061833Y2217710D01*
X2067079Y2212465D01*
X2067386Y2212226D01*
X2067669Y2211960D01*
X2067879Y2211844D01*
X2068068Y2211697D01*
X2068425Y2211543D01*
X2068765Y2211355D01*
X2068997Y2211295D01*
X2069217Y2211200D01*
X2069601Y2211139D01*
X2069977Y2211041D01*
X2070374Y2211016D01*
X2070454Y2211003D01*
X2070502Y2211008D01*
X2070614Y2211001D01*
X4254556Y2211001D01*
X4354667Y2110890D01*
X4354974Y2110652D01*
X4355257Y2110385D01*
X4355467Y2110269D01*
X4355657Y2110122D01*
X4356013Y2109968D01*
X4356354Y2109780D01*
X4356586Y2109720D01*
X4356806Y2109625D01*
X4357189Y2109564D01*
X4357566Y2109466D01*
X4357963Y2109441D01*
X4358043Y2109428D01*
X4358091Y2109433D01*
X4358202Y2109426D01*
X5203914Y2109426D01*
X5204028Y2109440D01*
X5204143Y2109431D01*
X5204647Y2109518D01*
X5205156Y2109583D01*
X5205263Y2109625D01*
X5205377Y2109645D01*
X5205844Y2109855D01*
X5206320Y2110043D01*
X5206414Y2110111D01*
X5206519Y2110158D01*
X5206918Y2110477D01*
X5207334Y2110779D01*
X5207408Y2110868D01*
X5207497Y2110940D01*
X5207806Y2111349D01*
X5208133Y2111744D01*
X5208182Y2111848D01*
X5208251Y2111940D01*
X5208532Y2112512D01*
X5213805Y2125241D01*
X5227122Y2138558D01*
X5244521Y2145764D01*
X5263353Y2145764D01*
X5280752Y2138558D01*
X5294069Y2125241D01*
X5299342Y2112512D01*
X5299399Y2112412D01*
X5299434Y2112302D01*
X5299709Y2111868D01*
X5299962Y2111424D01*
X5300042Y2111342D01*
X5300104Y2111244D01*
X5300478Y2110892D01*
X5300833Y2110524D01*
X5300932Y2110464D01*
X5301015Y2110385D01*
X5301463Y2110138D01*
X5301901Y2109870D01*
X5302011Y2109836D01*
X5302112Y2109780D01*
X5302609Y2109652D01*
X5303098Y2109501D01*
X5303212Y2109495D01*
X5303324Y2109466D01*
X5303960Y2109426D01*
X5696039Y2109426D01*
X5696154Y2109440D01*
X5696269Y2109431D01*
X5696773Y2109518D01*
X5697282Y2109583D01*
X5697389Y2109625D01*
X5697503Y2109645D01*
X5697970Y2109855D01*
X5698446Y2110043D01*
X5698540Y2110111D01*
X5698645Y2110158D01*
X5699044Y2110477D01*
X5699460Y2110779D01*
X5699534Y2110868D01*
X5699623Y2110940D01*
X5699932Y2111349D01*
X5700259Y2111744D01*
X5700308Y2111848D01*
X5700377Y2111940D01*
X5700658Y2112512D01*
X5705930Y2125241D01*
X5719248Y2138558D01*
X5736647Y2145764D01*
X5755479Y2145764D01*
X5772878Y2138558D01*
X5786195Y2125241D01*
X5793402Y2107842D01*
X5793402Y2089009D01*
X5786195Y2071610D01*
X5772878Y2058293D01*
X5755479Y2051086D01*
X5736647Y2051086D01*
X5719248Y2058293D01*
X5705930Y2071610D01*
X5700658Y2084338D01*
X5700601Y2084438D01*
X5700566Y2084548D01*
X5700291Y2084982D01*
X5700038Y2085426D01*
X5699958Y2085508D01*
X5699896Y2085606D01*
X5699522Y2085959D01*
X5699166Y2086326D01*
X5699068Y2086386D01*
X5698984Y2086465D01*
X5698537Y2086712D01*
X5698099Y2086981D01*
X5697989Y2087015D01*
X5697888Y2087070D01*
X5697391Y2087199D01*
X5696902Y2087349D01*
X5696788Y2087355D01*
X5696676Y2087384D01*
X5696039Y2087424D01*
X5303960Y2087424D01*
X5303846Y2087410D01*
X5303731Y2087419D01*
X5303227Y2087332D01*
X5302718Y2087268D01*
X5302611Y2087225D01*
X5302497Y2087206D01*
X5302030Y2086995D01*
X5301553Y2086807D01*
X5301460Y2086739D01*
X5301355Y2086692D01*
X5300955Y2086373D01*
X5300540Y2086071D01*
X5300466Y2085982D01*
X5300376Y2085911D01*
X5300068Y2085501D01*
X5299741Y2085107D01*
X5299692Y2085003D01*
X5299623Y2084911D01*
X5299342Y2084338D01*
X5294069Y2071610D01*
X5280752Y2058293D01*
X5263353Y2051086D01*
X5244521Y2051086D01*
G37*
%LPD*%
%LPC*%
G36*
X2195443Y288999D02*
X2195443Y288999D01*
X2187536Y296907D01*
X2187535Y296908D01*
X1946908Y537535D01*
X1946600Y537773D01*
X1946318Y538040D01*
X1946108Y538156D01*
X1945918Y538303D01*
X1945561Y538457D01*
X1945221Y538645D01*
X1944989Y538705D01*
X1944769Y538800D01*
X1944385Y538861D01*
X1944009Y538959D01*
X1943612Y538984D01*
X1943532Y538997D01*
X1943484Y538992D01*
X1943373Y538999D01*
X467750Y538999D01*
X467636Y538985D01*
X467521Y538994D01*
X467017Y538907D01*
X466508Y538842D01*
X466401Y538800D01*
X466287Y538780D01*
X465820Y538570D01*
X465344Y538382D01*
X465250Y538314D01*
X465145Y538267D01*
X464746Y537948D01*
X464330Y537646D01*
X464256Y537557D01*
X464167Y537485D01*
X463858Y537076D01*
X463531Y536681D01*
X463482Y536578D01*
X463413Y536485D01*
X463132Y535913D01*
X460520Y529607D01*
X450392Y519480D01*
X437161Y513999D01*
X362839Y513999D01*
X349607Y519480D01*
X339480Y529607D01*
X333999Y542839D01*
X333999Y557161D01*
X339480Y570392D01*
X349607Y580520D01*
X362839Y586001D01*
X437161Y586001D01*
X450392Y580520D01*
X460520Y570393D01*
X463132Y564087D01*
X463189Y563987D01*
X463224Y563877D01*
X463499Y563443D01*
X463752Y562999D01*
X463832Y562916D01*
X463894Y562819D01*
X464267Y562467D01*
X464623Y562099D01*
X464722Y562039D01*
X464805Y561960D01*
X465253Y561713D01*
X465691Y561445D01*
X465801Y561411D01*
X465902Y561355D01*
X466399Y561226D01*
X466888Y561076D01*
X467002Y561070D01*
X467114Y561041D01*
X467750Y561001D01*
X1954556Y561001D01*
X1962464Y553093D01*
X1962465Y553092D01*
X2203092Y312465D01*
X2203399Y312226D01*
X2203682Y311960D01*
X2203892Y311844D01*
X2204082Y311697D01*
X2204438Y311543D01*
X2204779Y311355D01*
X2205011Y311295D01*
X2205231Y311200D01*
X2205614Y311139D01*
X2205991Y311041D01*
X2206388Y311016D01*
X2206468Y311003D01*
X2206516Y311008D01*
X2206627Y311001D01*
X2393373Y311001D01*
X2393758Y311049D01*
X2394147Y311061D01*
X2394377Y311127D01*
X2394615Y311157D01*
X2394976Y311300D01*
X2395350Y311408D01*
X2395557Y311530D01*
X2395780Y311618D01*
X2396094Y311846D01*
X2396429Y312044D01*
X2396727Y312306D01*
X2396793Y312354D01*
X2396824Y312391D01*
X2396908Y312465D01*
X2645443Y561001D01*
X3579386Y561001D01*
X3579772Y561049D01*
X3580160Y561061D01*
X3580391Y561127D01*
X3580629Y561157D01*
X3580990Y561300D01*
X3581363Y561408D01*
X3581570Y561530D01*
X3581793Y561618D01*
X3582108Y561846D01*
X3582443Y562044D01*
X3582741Y562306D01*
X3582807Y562354D01*
X3582837Y562391D01*
X3582921Y562465D01*
X3588167Y567710D01*
X3595845Y570890D01*
X3604155Y570890D01*
X3611833Y567710D01*
X3617710Y561833D01*
X3620890Y554155D01*
X3620890Y545845D01*
X3617710Y538167D01*
X3611833Y532290D01*
X3604155Y529109D01*
X3595845Y529109D01*
X3588167Y532290D01*
X3582921Y537535D01*
X3582614Y537773D01*
X3582331Y538040D01*
X3582121Y538156D01*
X3581932Y538303D01*
X3581575Y538457D01*
X3581235Y538645D01*
X3581003Y538705D01*
X3580782Y538800D01*
X3580399Y538861D01*
X3580022Y538959D01*
X3579626Y538984D01*
X3579546Y538997D01*
X3579498Y538992D01*
X3579386Y538999D01*
X2656627Y538999D01*
X2656242Y538951D01*
X2655853Y538939D01*
X2655623Y538872D01*
X2655385Y538842D01*
X2655024Y538700D01*
X2654650Y538592D01*
X2654443Y538470D01*
X2654220Y538382D01*
X2653906Y538153D01*
X2653571Y537956D01*
X2653272Y537694D01*
X2653207Y537646D01*
X2653176Y537609D01*
X2653092Y537535D01*
X2404556Y288999D01*
X2195443Y288999D01*
G37*
%LPD*%
%LPC*%
G36*
X5486745Y3517999D02*
X5486745Y3517999D01*
X5467999Y3536745D01*
X5467999Y3564373D01*
X5467951Y3564758D01*
X5467939Y3565147D01*
X5467872Y3565377D01*
X5467842Y3565615D01*
X5467700Y3565976D01*
X5467592Y3566350D01*
X5467470Y3566557D01*
X5467382Y3566780D01*
X5467153Y3567094D01*
X5466956Y3567429D01*
X5466694Y3567727D01*
X5466646Y3567793D01*
X5466609Y3567824D01*
X5466535Y3567908D01*
X5296908Y3737535D01*
X5296600Y3737773D01*
X5296318Y3738040D01*
X5296108Y3738156D01*
X5295918Y3738303D01*
X5295561Y3738457D01*
X5295221Y3738645D01*
X5294989Y3738705D01*
X5294769Y3738800D01*
X5294385Y3738861D01*
X5294009Y3738959D01*
X5293612Y3738984D01*
X5293532Y3738997D01*
X5293484Y3738992D01*
X5293373Y3738999D01*
X2656627Y3738999D01*
X2656242Y3738951D01*
X2655853Y3738939D01*
X2655623Y3738872D01*
X2655385Y3738842D01*
X2655024Y3738700D01*
X2654650Y3738592D01*
X2654443Y3738470D01*
X2654220Y3738382D01*
X2653906Y3738153D01*
X2653571Y3737956D01*
X2653272Y3737694D01*
X2653207Y3737646D01*
X2653176Y3737609D01*
X2653092Y3737535D01*
X2522355Y3606797D01*
X2522116Y3606490D01*
X2521850Y3606207D01*
X2521734Y3605997D01*
X2521587Y3605808D01*
X2521432Y3605451D01*
X2521245Y3605111D01*
X2521185Y3604879D01*
X2521089Y3604659D01*
X2521028Y3604275D01*
X2520931Y3603898D01*
X2520906Y3603502D01*
X2520893Y3603422D01*
X2520898Y3603374D01*
X2520890Y3603262D01*
X2520890Y3595845D01*
X2517710Y3588167D01*
X2511833Y3582290D01*
X2504155Y3579109D01*
X2495845Y3579109D01*
X2488167Y3582290D01*
X2482290Y3588167D01*
X2479109Y3595845D01*
X2479109Y3604155D01*
X2482290Y3611833D01*
X2488167Y3617710D01*
X2495845Y3620890D01*
X2503262Y3620890D01*
X2503648Y3620939D01*
X2504036Y3620951D01*
X2504267Y3621017D01*
X2504505Y3621047D01*
X2504866Y3621190D01*
X2505240Y3621298D01*
X2505446Y3621420D01*
X2505669Y3621508D01*
X2505984Y3621736D01*
X2506319Y3621934D01*
X2506617Y3622196D01*
X2506683Y3622244D01*
X2506714Y3622281D01*
X2506797Y3622355D01*
X2645443Y3761001D01*
X5304556Y3761001D01*
X5482092Y3583465D01*
X5482400Y3583226D01*
X5482682Y3582960D01*
X5482892Y3582844D01*
X5483082Y3582697D01*
X5483439Y3582543D01*
X5483779Y3582355D01*
X5484011Y3582295D01*
X5484231Y3582200D01*
X5484615Y3582139D01*
X5484991Y3582041D01*
X5485388Y3582016D01*
X5485468Y3582003D01*
X5485516Y3582008D01*
X5485627Y3582001D01*
X5513255Y3582001D01*
X5532001Y3563255D01*
X5532001Y3536745D01*
X5513255Y3517999D01*
X5486745Y3517999D01*
G37*
%LPD*%
%LPC*%
G36*
X362839Y1113999D02*
X362839Y1113999D01*
X349607Y1119480D01*
X339480Y1129607D01*
X336868Y1135913D01*
X336811Y1136013D01*
X336776Y1136123D01*
X336501Y1136557D01*
X336248Y1137001D01*
X336168Y1137083D01*
X336106Y1137181D01*
X335733Y1137533D01*
X335376Y1137901D01*
X335278Y1137961D01*
X335194Y1138040D01*
X334747Y1138287D01*
X334309Y1138555D01*
X334199Y1138589D01*
X334098Y1138645D01*
X333601Y1138773D01*
X333112Y1138924D01*
X332998Y1138930D01*
X332886Y1138959D01*
X332249Y1138999D01*
X295443Y1138999D01*
X188999Y1245443D01*
X188999Y3221092D01*
X344444Y3376537D01*
X344515Y3376628D01*
X344602Y3376702D01*
X344897Y3377121D01*
X345212Y3377526D01*
X345258Y3377632D01*
X345324Y3377726D01*
X345506Y3378205D01*
X345709Y3378675D01*
X345727Y3378789D01*
X345768Y3378897D01*
X345825Y3379406D01*
X345906Y3379912D01*
X345895Y3380027D01*
X345908Y3380141D01*
X345837Y3380649D01*
X345789Y3381159D01*
X345750Y3381268D01*
X345734Y3381382D01*
X345528Y3381985D01*
X341039Y3392822D01*
X341039Y3410327D01*
X347737Y3426499D01*
X360115Y3438877D01*
X376287Y3445575D01*
X393792Y3445575D01*
X409963Y3438877D01*
X422341Y3426499D01*
X429040Y3410327D01*
X429040Y3392822D01*
X422341Y3376651D01*
X409963Y3364273D01*
X393792Y3357574D01*
X376287Y3357574D01*
X365449Y3362063D01*
X365338Y3362094D01*
X365236Y3362146D01*
X364736Y3362258D01*
X364242Y3362394D01*
X364126Y3362396D01*
X364014Y3362421D01*
X363502Y3362406D01*
X362989Y3362414D01*
X362877Y3362387D01*
X362762Y3362383D01*
X362269Y3362241D01*
X361772Y3362122D01*
X361670Y3362068D01*
X361559Y3362036D01*
X361117Y3361776D01*
X360664Y3361537D01*
X360579Y3361459D01*
X360480Y3361401D01*
X360001Y3360980D01*
X212465Y3213443D01*
X212226Y3213136D01*
X211960Y3212853D01*
X211844Y3212643D01*
X211697Y3212453D01*
X211543Y3212097D01*
X211355Y3211757D01*
X211295Y3211524D01*
X211200Y3211304D01*
X211139Y3210921D01*
X211041Y3210544D01*
X211016Y3210147D01*
X211003Y3210067D01*
X211008Y3210019D01*
X211001Y3209908D01*
X211001Y1256627D01*
X211049Y1256242D01*
X211061Y1255853D01*
X211127Y1255623D01*
X211157Y1255385D01*
X211300Y1255024D01*
X211408Y1254650D01*
X211530Y1254443D01*
X211618Y1254220D01*
X211846Y1253906D01*
X212044Y1253571D01*
X212306Y1253272D01*
X212354Y1253207D01*
X212391Y1253176D01*
X212465Y1253092D01*
X303092Y1162465D01*
X303400Y1162226D01*
X303682Y1161960D01*
X303892Y1161844D01*
X304082Y1161697D01*
X304439Y1161543D01*
X304779Y1161355D01*
X305011Y1161295D01*
X305231Y1161200D01*
X305615Y1161139D01*
X305991Y1161041D01*
X306388Y1161016D01*
X306468Y1161003D01*
X306516Y1161008D01*
X306627Y1161001D01*
X332249Y1161001D01*
X332364Y1161015D01*
X332478Y1161006D01*
X332983Y1161093D01*
X333492Y1161157D01*
X333599Y1161200D01*
X333712Y1161219D01*
X334180Y1161430D01*
X334656Y1161618D01*
X334750Y1161686D01*
X334855Y1161733D01*
X335254Y1162052D01*
X335670Y1162354D01*
X335743Y1162443D01*
X335833Y1162515D01*
X336142Y1162924D01*
X336469Y1163318D01*
X336518Y1163422D01*
X336587Y1163515D01*
X336868Y1164087D01*
X339480Y1170393D01*
X349607Y1180520D01*
X362839Y1186001D01*
X437161Y1186001D01*
X450392Y1180520D01*
X460520Y1170392D01*
X466001Y1157161D01*
X466001Y1142839D01*
X460520Y1129607D01*
X450392Y1119480D01*
X437161Y1113999D01*
X362839Y1113999D01*
G37*
%LPD*%
%LPC*%
G36*
X3744521Y654235D02*
X3744521Y654235D01*
X3727122Y661442D01*
X3713805Y674759D01*
X3706598Y692158D01*
X3706598Y710991D01*
X3713805Y728390D01*
X3727122Y741707D01*
X3744521Y748914D01*
X3763353Y748914D01*
X3780752Y741707D01*
X3794069Y728390D01*
X3799342Y715662D01*
X3799399Y715562D01*
X3799434Y715452D01*
X3799709Y715018D01*
X3799962Y714574D01*
X3800042Y714491D01*
X3800104Y714394D01*
X3800478Y714041D01*
X3800833Y713674D01*
X3800932Y713614D01*
X3801015Y713535D01*
X3801463Y713288D01*
X3801901Y713019D01*
X3802011Y712985D01*
X3802112Y712930D01*
X3802609Y712801D01*
X3803098Y712650D01*
X3803212Y712645D01*
X3803324Y712616D01*
X3803960Y712575D01*
X4196039Y712575D01*
X4196154Y712590D01*
X4196269Y712581D01*
X4196773Y712668D01*
X4197282Y712732D01*
X4197389Y712775D01*
X4197503Y712794D01*
X4197970Y713004D01*
X4198446Y713193D01*
X4198540Y713261D01*
X4198645Y713308D01*
X4199044Y713627D01*
X4199460Y713929D01*
X4199534Y714018D01*
X4199623Y714089D01*
X4199932Y714498D01*
X4200259Y714893D01*
X4200308Y714997D01*
X4200377Y715089D01*
X4200658Y715662D01*
X4205930Y728390D01*
X4219248Y741707D01*
X4236647Y748914D01*
X4255479Y748914D01*
X4272878Y741707D01*
X4286195Y728390D01*
X4291468Y715662D01*
X4291525Y715562D01*
X4291560Y715452D01*
X4291835Y715018D01*
X4292088Y714574D01*
X4292168Y714491D01*
X4292230Y714394D01*
X4292604Y714041D01*
X4292959Y713674D01*
X4293058Y713614D01*
X4293141Y713535D01*
X4293589Y713288D01*
X4294027Y713019D01*
X4294137Y712985D01*
X4294238Y712930D01*
X4294734Y712801D01*
X4295224Y712650D01*
X4295338Y712645D01*
X4295450Y712616D01*
X4296086Y712575D01*
X5203914Y712575D01*
X5204028Y712590D01*
X5204143Y712581D01*
X5204647Y712668D01*
X5205156Y712732D01*
X5205263Y712775D01*
X5205377Y712794D01*
X5205844Y713004D01*
X5206320Y713193D01*
X5206414Y713261D01*
X5206519Y713308D01*
X5206918Y713627D01*
X5207334Y713929D01*
X5207408Y714018D01*
X5207497Y714089D01*
X5207806Y714498D01*
X5208133Y714893D01*
X5208182Y714997D01*
X5208251Y715089D01*
X5208532Y715662D01*
X5213805Y728390D01*
X5227122Y741707D01*
X5244521Y748914D01*
X5263353Y748914D01*
X5280752Y741707D01*
X5294069Y728390D01*
X5299342Y715662D01*
X5299399Y715562D01*
X5299434Y715452D01*
X5299709Y715018D01*
X5299962Y714574D01*
X5300042Y714491D01*
X5300104Y714394D01*
X5300478Y714041D01*
X5300833Y713674D01*
X5300932Y713614D01*
X5301015Y713535D01*
X5301463Y713288D01*
X5301901Y713019D01*
X5302011Y712985D01*
X5302112Y712930D01*
X5302609Y712801D01*
X5303098Y712650D01*
X5303212Y712645D01*
X5303324Y712616D01*
X5303960Y712575D01*
X5696039Y712575D01*
X5696154Y712590D01*
X5696269Y712581D01*
X5696773Y712668D01*
X5697282Y712732D01*
X5697389Y712775D01*
X5697503Y712794D01*
X5697970Y713004D01*
X5698446Y713193D01*
X5698540Y713261D01*
X5698645Y713308D01*
X5699044Y713627D01*
X5699460Y713929D01*
X5699534Y714018D01*
X5699623Y714089D01*
X5699932Y714498D01*
X5700259Y714893D01*
X5700308Y714997D01*
X5700377Y715089D01*
X5700658Y715662D01*
X5705930Y728390D01*
X5719248Y741707D01*
X5736647Y748914D01*
X5755479Y748914D01*
X5772878Y741707D01*
X5786195Y728390D01*
X5793402Y710991D01*
X5793402Y692158D01*
X5786195Y674759D01*
X5772878Y661442D01*
X5755479Y654235D01*
X5736647Y654235D01*
X5719248Y661442D01*
X5705930Y674759D01*
X5700658Y687488D01*
X5700601Y687588D01*
X5700566Y687698D01*
X5700291Y688132D01*
X5700038Y688576D01*
X5699958Y688658D01*
X5699896Y688756D01*
X5699522Y689108D01*
X5699166Y689475D01*
X5699068Y689536D01*
X5698984Y689615D01*
X5698537Y689862D01*
X5698099Y690130D01*
X5697989Y690164D01*
X5697888Y690220D01*
X5697391Y690348D01*
X5696902Y690499D01*
X5696788Y690505D01*
X5696676Y690533D01*
X5696039Y690574D01*
X5303960Y690574D01*
X5303846Y690560D01*
X5303731Y690569D01*
X5303227Y690481D01*
X5302718Y690417D01*
X5302611Y690375D01*
X5302497Y690355D01*
X5302030Y690145D01*
X5301553Y689956D01*
X5301460Y689889D01*
X5301355Y689842D01*
X5300955Y689522D01*
X5300540Y689221D01*
X5300466Y689132D01*
X5300376Y689060D01*
X5300068Y688651D01*
X5299741Y688256D01*
X5299692Y688152D01*
X5299623Y688060D01*
X5299342Y687488D01*
X5294069Y674759D01*
X5280752Y661442D01*
X5263353Y654235D01*
X5244521Y654235D01*
X5227122Y661442D01*
X5213805Y674759D01*
X5208532Y687488D01*
X5208475Y687588D01*
X5208440Y687698D01*
X5208165Y688132D01*
X5207912Y688576D01*
X5207832Y688658D01*
X5207770Y688756D01*
X5207396Y689108D01*
X5207040Y689475D01*
X5206942Y689536D01*
X5206859Y689615D01*
X5206411Y689862D01*
X5205973Y690130D01*
X5205863Y690164D01*
X5205762Y690220D01*
X5205265Y690348D01*
X5204776Y690499D01*
X5204662Y690505D01*
X5204550Y690533D01*
X5203914Y690574D01*
X4296086Y690574D01*
X4295972Y690560D01*
X4295857Y690569D01*
X4295353Y690481D01*
X4294844Y690417D01*
X4294737Y690375D01*
X4294623Y690355D01*
X4294156Y690145D01*
X4293679Y689956D01*
X4293586Y689889D01*
X4293481Y689842D01*
X4293081Y689522D01*
X4292666Y689221D01*
X4292592Y689132D01*
X4292502Y689060D01*
X4292194Y688651D01*
X4291867Y688256D01*
X4291818Y688152D01*
X4291749Y688060D01*
X4291468Y687488D01*
X4286195Y674759D01*
X4272878Y661442D01*
X4255479Y654235D01*
X4236647Y654235D01*
X4219248Y661442D01*
X4205930Y674759D01*
X4200658Y687488D01*
X4200601Y687588D01*
X4200566Y687698D01*
X4200291Y688132D01*
X4200038Y688576D01*
X4199958Y688658D01*
X4199896Y688756D01*
X4199522Y689108D01*
X4199166Y689475D01*
X4199068Y689536D01*
X4198984Y689615D01*
X4198537Y689862D01*
X4198099Y690130D01*
X4197989Y690164D01*
X4197888Y690220D01*
X4197391Y690348D01*
X4196902Y690499D01*
X4196788Y690505D01*
X4196676Y690533D01*
X4196039Y690574D01*
X3803960Y690574D01*
X3803846Y690560D01*
X3803731Y690569D01*
X3803227Y690481D01*
X3802718Y690417D01*
X3802611Y690375D01*
X3802497Y690355D01*
X3802030Y690145D01*
X3801553Y689956D01*
X3801460Y689889D01*
X3801355Y689842D01*
X3800955Y689522D01*
X3800540Y689221D01*
X3800466Y689132D01*
X3800376Y689060D01*
X3800068Y688651D01*
X3799741Y688256D01*
X3799692Y688152D01*
X3799623Y688060D01*
X3799342Y687488D01*
X3794069Y674759D01*
X3780752Y661442D01*
X3763353Y654235D01*
X3744521Y654235D01*
G37*
%LPD*%
%LPC*%
G36*
X2262839Y1373999D02*
X2262839Y1373999D01*
X2249607Y1379480D01*
X2239480Y1389607D01*
X2233999Y1402839D01*
X2233999Y1417161D01*
X2239480Y1430392D01*
X2249607Y1440520D01*
X2262839Y1446001D01*
X2337161Y1446001D01*
X2350392Y1440520D01*
X2360520Y1430393D01*
X2363132Y1424087D01*
X2363189Y1423987D01*
X2363224Y1423877D01*
X2363499Y1423443D01*
X2363752Y1422999D01*
X2363832Y1422916D01*
X2363894Y1422819D01*
X2364267Y1422467D01*
X2364623Y1422099D01*
X2364722Y1422039D01*
X2364805Y1421960D01*
X2365253Y1421713D01*
X2365691Y1421445D01*
X2365801Y1421411D01*
X2365902Y1421355D01*
X2366399Y1421226D01*
X2366888Y1421076D01*
X2367002Y1421070D01*
X2367114Y1421041D01*
X2367750Y1421001D01*
X4352979Y1421001D01*
X4353364Y1421049D01*
X4353753Y1421061D01*
X4353984Y1421127D01*
X4354221Y1421157D01*
X4354582Y1421300D01*
X4354956Y1421408D01*
X4355163Y1421530D01*
X4355386Y1421618D01*
X4355700Y1421846D01*
X4356035Y1422044D01*
X4356334Y1422306D01*
X4356399Y1422354D01*
X4356430Y1422391D01*
X4356514Y1422465D01*
X4407962Y1473913D01*
X4408033Y1474004D01*
X4408121Y1474079D01*
X4408416Y1474497D01*
X4408730Y1474903D01*
X4408776Y1475009D01*
X4408842Y1475103D01*
X4409024Y1475581D01*
X4409228Y1476052D01*
X4409246Y1476166D01*
X4409287Y1476273D01*
X4409344Y1476783D01*
X4409424Y1477289D01*
X4409413Y1477403D01*
X4409426Y1477518D01*
X4409355Y1478025D01*
X4409307Y1478536D01*
X4409268Y1478644D01*
X4409252Y1478758D01*
X4409046Y1479361D01*
X4404235Y1490975D01*
X4404235Y1509025D01*
X4411143Y1525700D01*
X4423906Y1538463D01*
X4440581Y1545371D01*
X4458631Y1545371D01*
X4475306Y1538463D01*
X4488070Y1525700D01*
X4494977Y1509025D01*
X4494977Y1490975D01*
X4488070Y1474300D01*
X4475306Y1461536D01*
X4458631Y1454629D01*
X4440581Y1454629D01*
X4428968Y1459440D01*
X4428857Y1459470D01*
X4428754Y1459523D01*
X4428255Y1459635D01*
X4427760Y1459770D01*
X4427645Y1459772D01*
X4427532Y1459797D01*
X4427186Y1459787D01*
X4427125Y1459791D01*
X4427025Y1459791D01*
X4426963Y1459783D01*
X4426508Y1459790D01*
X4426396Y1459764D01*
X4426281Y1459760D01*
X4425892Y1459648D01*
X4425783Y1459634D01*
X4425671Y1459590D01*
X4425290Y1459499D01*
X4425188Y1459445D01*
X4425077Y1459413D01*
X4424779Y1459237D01*
X4424618Y1459173D01*
X4424466Y1459063D01*
X4424183Y1458913D01*
X4424097Y1458836D01*
X4423998Y1458777D01*
X4423647Y1458469D01*
X4423605Y1458438D01*
X4423585Y1458414D01*
X4423520Y1458356D01*
X4364163Y1398999D01*
X2367750Y1398999D01*
X2367636Y1398985D01*
X2367521Y1398994D01*
X2367017Y1398907D01*
X2366508Y1398842D01*
X2366401Y1398800D01*
X2366287Y1398780D01*
X2365820Y1398570D01*
X2365344Y1398382D01*
X2365250Y1398314D01*
X2365145Y1398267D01*
X2364746Y1397948D01*
X2364330Y1397646D01*
X2364256Y1397557D01*
X2364167Y1397485D01*
X2363858Y1397076D01*
X2363531Y1396681D01*
X2363482Y1396578D01*
X2363413Y1396485D01*
X2363132Y1395913D01*
X2360520Y1389607D01*
X2350392Y1379480D01*
X2337161Y1373999D01*
X2262839Y1373999D01*
G37*
%LPD*%
%LPC*%
G36*
X995845Y2879109D02*
X995845Y2879109D01*
X988167Y2882290D01*
X982290Y2888167D01*
X979109Y2895845D01*
X979109Y2904155D01*
X982290Y2911833D01*
X988167Y2917710D01*
X995845Y2920890D01*
X1003262Y2920890D01*
X1003648Y2920939D01*
X1004036Y2920951D01*
X1004267Y2921017D01*
X1004505Y2921047D01*
X1004866Y2921190D01*
X1005240Y2921298D01*
X1005446Y2921420D01*
X1005669Y2921508D01*
X1005984Y2921736D01*
X1006319Y2921934D01*
X1006617Y2922196D01*
X1006683Y2922244D01*
X1006714Y2922281D01*
X1006797Y2922355D01*
X1145443Y3061001D01*
X3051714Y3061001D01*
X3051828Y3061015D01*
X3051943Y3061006D01*
X3052447Y3061093D01*
X3052956Y3061157D01*
X3053063Y3061200D01*
X3053177Y3061219D01*
X3053644Y3061430D01*
X3054121Y3061618D01*
X3054214Y3061686D01*
X3054319Y3061733D01*
X3054719Y3062053D01*
X3055134Y3062354D01*
X3055207Y3062443D01*
X3055297Y3062514D01*
X3055607Y3062924D01*
X3055933Y3063318D01*
X3055982Y3063422D01*
X3056051Y3063515D01*
X3056332Y3064087D01*
X3061143Y3075700D01*
X3073906Y3088463D01*
X3090581Y3095371D01*
X3108631Y3095371D01*
X3125306Y3088463D01*
X3138070Y3075700D01*
X3144977Y3059025D01*
X3144977Y3040975D01*
X3138070Y3024300D01*
X3125306Y3011536D01*
X3108631Y3004629D01*
X3090581Y3004629D01*
X3073906Y3011536D01*
X3061143Y3024300D01*
X3056332Y3035913D01*
X3056275Y3036013D01*
X3056240Y3036123D01*
X3055965Y3036557D01*
X3055712Y3037001D01*
X3055632Y3037083D01*
X3055570Y3037181D01*
X3055196Y3037533D01*
X3054841Y3037901D01*
X3054742Y3037961D01*
X3054659Y3038040D01*
X3054210Y3038287D01*
X3053773Y3038555D01*
X3053663Y3038589D01*
X3053562Y3038645D01*
X3053065Y3038773D01*
X3052576Y3038924D01*
X3052462Y3038930D01*
X3052350Y3038959D01*
X3051714Y3038999D01*
X1156627Y3038999D01*
X1156242Y3038951D01*
X1155853Y3038939D01*
X1155623Y3038872D01*
X1155385Y3038842D01*
X1155024Y3038700D01*
X1154650Y3038592D01*
X1154443Y3038470D01*
X1154220Y3038382D01*
X1153906Y3038153D01*
X1153571Y3037956D01*
X1153272Y3037694D01*
X1153207Y3037646D01*
X1153176Y3037609D01*
X1153092Y3037535D01*
X1022355Y2906797D01*
X1022116Y2906490D01*
X1021850Y2906207D01*
X1021734Y2905997D01*
X1021587Y2905808D01*
X1021432Y2905451D01*
X1021245Y2905111D01*
X1021185Y2904879D01*
X1021089Y2904659D01*
X1021028Y2904275D01*
X1020931Y2903898D01*
X1020906Y2903502D01*
X1020893Y2903422D01*
X1020898Y2903374D01*
X1020890Y2903262D01*
X1020890Y2895845D01*
X1017710Y2888167D01*
X1011833Y2882290D01*
X1004155Y2879109D01*
X995845Y2879109D01*
G37*
%LPD*%
%LPC*%
G36*
X2095845Y3179109D02*
X2095845Y3179109D01*
X2088167Y3182290D01*
X2082290Y3188167D01*
X2079109Y3195845D01*
X2079109Y3204155D01*
X2082290Y3211833D01*
X2088167Y3217710D01*
X2095845Y3220890D01*
X2103262Y3220890D01*
X2103648Y3220939D01*
X2104036Y3220951D01*
X2104267Y3221017D01*
X2104505Y3221047D01*
X2104866Y3221190D01*
X2105240Y3221298D01*
X2105446Y3221420D01*
X2105669Y3221508D01*
X2105984Y3221736D01*
X2106319Y3221934D01*
X2106617Y3222196D01*
X2106683Y3222244D01*
X2106714Y3222281D01*
X2106797Y3222355D01*
X2395443Y3511001D01*
X2493373Y3511001D01*
X2493758Y3511049D01*
X2494147Y3511061D01*
X2494377Y3511127D01*
X2494615Y3511157D01*
X2494976Y3511300D01*
X2495350Y3511408D01*
X2495557Y3511530D01*
X2495780Y3511618D01*
X2496094Y3511846D01*
X2496429Y3512044D01*
X2496727Y3512306D01*
X2496793Y3512354D01*
X2496824Y3512391D01*
X2496908Y3512465D01*
X2695443Y3711001D01*
X3854556Y3711001D01*
X3977258Y3588299D01*
X3977349Y3588228D01*
X3977424Y3588141D01*
X3977842Y3587846D01*
X3978248Y3587531D01*
X3978353Y3587486D01*
X3978447Y3587419D01*
X3978926Y3587238D01*
X3979397Y3587034D01*
X3979511Y3587016D01*
X3979618Y3586975D01*
X3980128Y3586918D01*
X3980634Y3586837D01*
X3980748Y3586848D01*
X3980863Y3586835D01*
X3981370Y3586907D01*
X3981880Y3586955D01*
X3981989Y3586994D01*
X3982103Y3587010D01*
X3982706Y3587215D01*
X3991844Y3591001D01*
X4008156Y3591001D01*
X4023225Y3584759D01*
X4034759Y3573225D01*
X4041001Y3558156D01*
X4041001Y3541844D01*
X4034759Y3526775D01*
X4023225Y3515241D01*
X4008156Y3508999D01*
X3991844Y3508999D01*
X3976775Y3515241D01*
X3965241Y3526775D01*
X3958999Y3541844D01*
X3958999Y3558156D01*
X3962784Y3567294D01*
X3962815Y3567405D01*
X3962867Y3567507D01*
X3962980Y3568007D01*
X3963115Y3568502D01*
X3963117Y3568617D01*
X3963142Y3568729D01*
X3963127Y3569241D01*
X3963135Y3569754D01*
X3963108Y3569866D01*
X3963105Y3569981D01*
X3962963Y3570473D01*
X3962843Y3570972D01*
X3962789Y3571074D01*
X3962757Y3571184D01*
X3962498Y3571625D01*
X3962258Y3572079D01*
X3962180Y3572164D01*
X3962122Y3572263D01*
X3961701Y3572742D01*
X3846908Y3687535D01*
X3846600Y3687773D01*
X3846318Y3688040D01*
X3846108Y3688156D01*
X3845918Y3688303D01*
X3845561Y3688457D01*
X3845221Y3688645D01*
X3844989Y3688705D01*
X3844769Y3688800D01*
X3844385Y3688861D01*
X3844009Y3688959D01*
X3843612Y3688984D01*
X3843532Y3688997D01*
X3843484Y3688992D01*
X3843373Y3688999D01*
X2706627Y3688999D01*
X2706242Y3688951D01*
X2705853Y3688939D01*
X2705623Y3688872D01*
X2705385Y3688842D01*
X2705024Y3688700D01*
X2704650Y3688592D01*
X2704443Y3688470D01*
X2704220Y3688382D01*
X2703906Y3688153D01*
X2703571Y3687956D01*
X2703272Y3687694D01*
X2703207Y3687646D01*
X2703176Y3687609D01*
X2703092Y3687535D01*
X2504556Y3488999D01*
X2406627Y3488999D01*
X2406242Y3488951D01*
X2405853Y3488939D01*
X2405623Y3488872D01*
X2405385Y3488842D01*
X2405024Y3488700D01*
X2404650Y3488592D01*
X2404443Y3488470D01*
X2404220Y3488382D01*
X2403906Y3488153D01*
X2403571Y3487956D01*
X2403272Y3487694D01*
X2403207Y3487646D01*
X2403176Y3487609D01*
X2403092Y3487535D01*
X2122355Y3206797D01*
X2122116Y3206490D01*
X2121850Y3206207D01*
X2121734Y3205997D01*
X2121587Y3205808D01*
X2121432Y3205451D01*
X2121245Y3205111D01*
X2121185Y3204879D01*
X2121089Y3204659D01*
X2121028Y3204275D01*
X2120931Y3203898D01*
X2120906Y3203502D01*
X2120893Y3203422D01*
X2120898Y3203374D01*
X2120890Y3203262D01*
X2120890Y3195845D01*
X2117710Y3188167D01*
X2111833Y3182290D01*
X2104155Y3179109D01*
X2095845Y3179109D01*
G37*
%LPD*%
%LPC*%
G36*
X2945845Y129109D02*
X2945845Y129109D01*
X2938167Y132290D01*
X2932290Y138167D01*
X2929109Y145845D01*
X2929109Y154155D01*
X2932290Y161833D01*
X2938167Y167710D01*
X2945845Y170890D01*
X2954155Y170890D01*
X2961833Y167710D01*
X2967079Y162465D01*
X2967386Y162226D01*
X2967669Y161960D01*
X2967879Y161844D01*
X2968068Y161697D01*
X2968425Y161543D01*
X2968765Y161355D01*
X2968997Y161295D01*
X2969217Y161200D01*
X2969601Y161139D01*
X2969977Y161041D01*
X2970374Y161016D01*
X2970454Y161003D01*
X2970502Y161008D01*
X2970614Y161001D01*
X4342979Y161001D01*
X4343364Y161049D01*
X4343753Y161061D01*
X4343984Y161127D01*
X4344221Y161157D01*
X4344582Y161300D01*
X4344956Y161408D01*
X4345163Y161530D01*
X4345386Y161618D01*
X4345700Y161846D01*
X4346035Y162044D01*
X4346334Y162306D01*
X4346399Y162354D01*
X4346430Y162391D01*
X4346514Y162465D01*
X4407962Y223913D01*
X4408033Y224004D01*
X4408121Y224079D01*
X4408416Y224497D01*
X4408730Y224903D01*
X4408776Y225009D01*
X4408842Y225103D01*
X4409024Y225581D01*
X4409228Y226052D01*
X4409246Y226166D01*
X4409287Y226273D01*
X4409344Y226783D01*
X4409424Y227289D01*
X4409413Y227403D01*
X4409426Y227518D01*
X4409355Y228025D01*
X4409307Y228536D01*
X4409268Y228644D01*
X4409252Y228758D01*
X4409046Y229361D01*
X4404235Y240975D01*
X4404235Y259025D01*
X4411143Y275700D01*
X4423906Y288463D01*
X4440581Y295371D01*
X4458631Y295371D01*
X4475306Y288463D01*
X4488070Y275700D01*
X4494977Y259025D01*
X4494977Y240975D01*
X4488070Y224300D01*
X4475306Y211536D01*
X4458631Y204629D01*
X4440581Y204629D01*
X4428968Y209440D01*
X4428857Y209470D01*
X4428754Y209523D01*
X4428255Y209635D01*
X4427760Y209770D01*
X4427645Y209772D01*
X4427532Y209797D01*
X4427020Y209782D01*
X4426508Y209790D01*
X4426396Y209764D01*
X4426281Y209760D01*
X4425788Y209618D01*
X4425290Y209499D01*
X4425188Y209445D01*
X4425077Y209413D01*
X4424636Y209153D01*
X4424183Y208913D01*
X4424097Y208836D01*
X4423998Y208777D01*
X4423520Y208356D01*
X4354163Y138999D01*
X2970614Y138999D01*
X2970228Y138951D01*
X2969840Y138939D01*
X2969609Y138872D01*
X2969371Y138842D01*
X2969010Y138700D01*
X2968636Y138592D01*
X2968430Y138470D01*
X2968207Y138382D01*
X2967892Y138153D01*
X2967557Y137956D01*
X2967259Y137694D01*
X2967193Y137646D01*
X2967162Y137609D01*
X2967079Y137535D01*
X2961833Y132290D01*
X2954155Y129109D01*
X2945845Y129109D01*
G37*
%LPD*%
%LPC*%
G36*
X2895845Y3079109D02*
X2895845Y3079109D01*
X2888167Y3082290D01*
X2882290Y3088167D01*
X2879109Y3095845D01*
X2879109Y3104155D01*
X2882290Y3111833D01*
X2888167Y3117710D01*
X2895845Y3120890D01*
X2903262Y3120890D01*
X2903648Y3120939D01*
X2904036Y3120951D01*
X2904267Y3121017D01*
X2904505Y3121047D01*
X2904866Y3121190D01*
X2905240Y3121298D01*
X2905446Y3121420D01*
X2905669Y3121508D01*
X2905984Y3121736D01*
X2906319Y3121934D01*
X2906617Y3122196D01*
X2906683Y3122244D01*
X2906714Y3122281D01*
X2906797Y3122355D01*
X2945443Y3161001D01*
X3693373Y3161001D01*
X3693758Y3161049D01*
X3694147Y3161061D01*
X3694377Y3161127D01*
X3694615Y3161157D01*
X3694976Y3161300D01*
X3695350Y3161408D01*
X3695557Y3161530D01*
X3695780Y3161618D01*
X3696094Y3161846D01*
X3696429Y3162044D01*
X3696727Y3162306D01*
X3696793Y3162354D01*
X3696824Y3162391D01*
X3696908Y3162465D01*
X4061701Y3527258D01*
X4061772Y3527349D01*
X4061859Y3527424D01*
X4062154Y3527842D01*
X4062468Y3528247D01*
X4062514Y3528353D01*
X4062580Y3528447D01*
X4062762Y3528926D01*
X4062966Y3529397D01*
X4062984Y3529510D01*
X4063025Y3529618D01*
X4063082Y3530128D01*
X4063162Y3530633D01*
X4063152Y3530748D01*
X4063164Y3530863D01*
X4063093Y3531371D01*
X4063045Y3531880D01*
X4063006Y3531988D01*
X4062990Y3532103D01*
X4062784Y3532706D01*
X4058999Y3541844D01*
X4058999Y3558156D01*
X4065241Y3573225D01*
X4076775Y3584759D01*
X4091844Y3591001D01*
X4108156Y3591001D01*
X4123225Y3584759D01*
X4134759Y3573225D01*
X4141001Y3558156D01*
X4141001Y3541844D01*
X4134759Y3526775D01*
X4123225Y3515241D01*
X4108156Y3508999D01*
X4091844Y3508999D01*
X4082706Y3512784D01*
X4082595Y3512815D01*
X4082492Y3512867D01*
X4081993Y3512980D01*
X4081498Y3513115D01*
X4081383Y3513117D01*
X4081271Y3513142D01*
X4080759Y3513127D01*
X4080246Y3513135D01*
X4080134Y3513108D01*
X4080019Y3513105D01*
X4079526Y3512963D01*
X4079028Y3512843D01*
X4078926Y3512789D01*
X4078816Y3512757D01*
X4078374Y3512498D01*
X4077921Y3512258D01*
X4077836Y3512180D01*
X4077736Y3512122D01*
X4077258Y3511701D01*
X3712465Y3146908D01*
X3704556Y3138999D01*
X2956627Y3138999D01*
X2956242Y3138951D01*
X2955853Y3138939D01*
X2955623Y3138872D01*
X2955385Y3138842D01*
X2955024Y3138700D01*
X2954650Y3138592D01*
X2954443Y3138470D01*
X2954220Y3138382D01*
X2953906Y3138153D01*
X2953571Y3137956D01*
X2953272Y3137694D01*
X2953207Y3137646D01*
X2953176Y3137609D01*
X2953092Y3137535D01*
X2922355Y3106797D01*
X2922116Y3106490D01*
X2921850Y3106207D01*
X2921734Y3105997D01*
X2921587Y3105808D01*
X2921432Y3105451D01*
X2921245Y3105111D01*
X2921185Y3104879D01*
X2921089Y3104659D01*
X2921028Y3104275D01*
X2920931Y3103898D01*
X2920906Y3103502D01*
X2920893Y3103422D01*
X2920898Y3103374D01*
X2920890Y3103262D01*
X2920890Y3095845D01*
X2917710Y3088167D01*
X2911833Y3082290D01*
X2904155Y3079109D01*
X2895845Y3079109D01*
G37*
%LPD*%
%LPC*%
G36*
X1686440Y247007D02*
X1686440Y247007D01*
X1660246Y254026D01*
X1636761Y267585D01*
X1617585Y286761D01*
X1604026Y310246D01*
X1597007Y336440D01*
X1597007Y363559D01*
X1604026Y389754D01*
X1617585Y413239D01*
X1636761Y432415D01*
X1660246Y445974D01*
X1686440Y452993D01*
X1713559Y452993D01*
X1739754Y445974D01*
X1763239Y432415D01*
X1782415Y413239D01*
X1795974Y389754D01*
X1802993Y363559D01*
X1802993Y336440D01*
X1795974Y310246D01*
X1782415Y286761D01*
X1763239Y267585D01*
X1739754Y254026D01*
X1713559Y247007D01*
X1686440Y247007D01*
G37*
%LPD*%
%LPC*%
G36*
X2286440Y2247007D02*
X2286440Y2247007D01*
X2260246Y2254026D01*
X2236761Y2267585D01*
X2217585Y2286761D01*
X2204026Y2310246D01*
X2197007Y2336440D01*
X2197007Y2363559D01*
X2204026Y2389754D01*
X2217585Y2413239D01*
X2236761Y2432415D01*
X2260246Y2445974D01*
X2286440Y2452993D01*
X2313559Y2452993D01*
X2339754Y2445974D01*
X2363239Y2432415D01*
X2382415Y2413239D01*
X2395974Y2389754D01*
X2402993Y2363559D01*
X2402993Y2336440D01*
X2395974Y2310246D01*
X2382415Y2286761D01*
X2363239Y2267585D01*
X2339754Y2254026D01*
X2313559Y2247007D01*
X2286440Y2247007D01*
G37*
%LPD*%
%LPC*%
G36*
X586440Y247007D02*
X586440Y247007D01*
X560246Y254026D01*
X536761Y267585D01*
X517585Y286761D01*
X504026Y310246D01*
X497007Y336440D01*
X497007Y363559D01*
X504026Y389754D01*
X517585Y413239D01*
X536761Y432415D01*
X560246Y445974D01*
X586440Y452993D01*
X613559Y452993D01*
X639754Y445974D01*
X663239Y432415D01*
X682415Y413239D01*
X695974Y389754D01*
X702993Y363559D01*
X702993Y336440D01*
X695974Y310246D01*
X682415Y286761D01*
X663239Y267585D01*
X639754Y254026D01*
X613559Y247007D01*
X586440Y247007D01*
G37*
%LPD*%
%LPC*%
G36*
X2895845Y3179109D02*
X2895845Y3179109D01*
X2888167Y3182290D01*
X2882290Y3188167D01*
X2879109Y3195845D01*
X2879109Y3204155D01*
X2882290Y3211833D01*
X2888167Y3217710D01*
X2895845Y3220890D01*
X2904155Y3220890D01*
X2911833Y3217710D01*
X2917079Y3212465D01*
X2917386Y3212226D01*
X2917669Y3211960D01*
X2917879Y3211844D01*
X2918068Y3211697D01*
X2918425Y3211543D01*
X2918765Y3211355D01*
X2918997Y3211295D01*
X2919217Y3211200D01*
X2919601Y3211139D01*
X2919977Y3211041D01*
X2920374Y3211016D01*
X2920454Y3211003D01*
X2920502Y3211008D01*
X2920614Y3211001D01*
X3593373Y3211001D01*
X3593758Y3211049D01*
X3594147Y3211061D01*
X3594377Y3211127D01*
X3594615Y3211157D01*
X3594976Y3211300D01*
X3595350Y3211408D01*
X3595557Y3211530D01*
X3595780Y3211618D01*
X3596094Y3211846D01*
X3596429Y3212044D01*
X3596727Y3212306D01*
X3596793Y3212354D01*
X3596824Y3212391D01*
X3596908Y3212465D01*
X3887535Y3503092D01*
X3887773Y3503400D01*
X3888040Y3503682D01*
X3888156Y3503892D01*
X3888303Y3504082D01*
X3888457Y3504439D01*
X3888645Y3504779D01*
X3888705Y3505011D01*
X3888800Y3505231D01*
X3888861Y3505615D01*
X3888959Y3505991D01*
X3888984Y3506388D01*
X3888997Y3506468D01*
X3888992Y3506516D01*
X3888999Y3506627D01*
X3888999Y3506837D01*
X3888985Y3506952D01*
X3888994Y3507066D01*
X3888907Y3507571D01*
X3888842Y3508080D01*
X3888800Y3508187D01*
X3888780Y3508300D01*
X3888570Y3508768D01*
X3888382Y3509244D01*
X3888314Y3509338D01*
X3888267Y3509443D01*
X3887947Y3509843D01*
X3887646Y3510258D01*
X3887557Y3510331D01*
X3887485Y3510421D01*
X3887076Y3510730D01*
X3886681Y3511057D01*
X3886578Y3511106D01*
X3886485Y3511175D01*
X3885913Y3511456D01*
X3876775Y3515241D01*
X3865241Y3526775D01*
X3858999Y3541844D01*
X3858999Y3558156D01*
X3865241Y3573225D01*
X3876775Y3584759D01*
X3891844Y3591001D01*
X3908156Y3591001D01*
X3923225Y3584759D01*
X3934759Y3573225D01*
X3941001Y3558156D01*
X3941001Y3541844D01*
X3934759Y3526775D01*
X3923225Y3515241D01*
X3914087Y3511456D01*
X3913987Y3511399D01*
X3913877Y3511364D01*
X3913443Y3511089D01*
X3912999Y3510836D01*
X3912917Y3510756D01*
X3912819Y3510694D01*
X3912466Y3510320D01*
X3912099Y3509964D01*
X3912039Y3509866D01*
X3911960Y3509782D01*
X3911712Y3509334D01*
X3911445Y3508897D01*
X3911411Y3508787D01*
X3911355Y3508686D01*
X3911226Y3508189D01*
X3911076Y3507700D01*
X3911070Y3507586D01*
X3911041Y3507474D01*
X3911001Y3506837D01*
X3911001Y3495443D01*
X3604556Y3188999D01*
X2920614Y3188999D01*
X2920228Y3188951D01*
X2919840Y3188939D01*
X2919609Y3188872D01*
X2919371Y3188842D01*
X2919010Y3188700D01*
X2918636Y3188592D01*
X2918430Y3188470D01*
X2918207Y3188382D01*
X2917892Y3188153D01*
X2917557Y3187956D01*
X2917259Y3187694D01*
X2917193Y3187646D01*
X2917162Y3187609D01*
X2917079Y3187535D01*
X2911833Y3182290D01*
X2904155Y3179109D01*
X2895845Y3179109D01*
G37*
%LPD*%
%LPC*%
G36*
X2895845Y3279109D02*
X2895845Y3279109D01*
X2888167Y3282290D01*
X2882290Y3288167D01*
X2879109Y3295845D01*
X2879109Y3304155D01*
X2882290Y3311833D01*
X2888167Y3317710D01*
X2895845Y3320890D01*
X2904155Y3320890D01*
X2911833Y3317710D01*
X2917079Y3312465D01*
X2917386Y3312226D01*
X2917669Y3311960D01*
X2917879Y3311844D01*
X2918068Y3311697D01*
X2918425Y3311543D01*
X2918765Y3311355D01*
X2918997Y3311295D01*
X2919217Y3311200D01*
X2919601Y3311139D01*
X2919977Y3311041D01*
X2920374Y3311016D01*
X2920454Y3311003D01*
X2920502Y3311008D01*
X2920614Y3311001D01*
X3593373Y3311001D01*
X3593758Y3311049D01*
X3594147Y3311061D01*
X3594377Y3311127D01*
X3594615Y3311157D01*
X3594976Y3311300D01*
X3595350Y3311408D01*
X3595557Y3311530D01*
X3595780Y3311618D01*
X3596094Y3311846D01*
X3596429Y3312044D01*
X3596727Y3312306D01*
X3596793Y3312354D01*
X3596824Y3312391D01*
X3596908Y3312465D01*
X3787535Y3503092D01*
X3787773Y3503400D01*
X3788040Y3503682D01*
X3788156Y3503892D01*
X3788303Y3504082D01*
X3788457Y3504439D01*
X3788645Y3504779D01*
X3788705Y3505011D01*
X3788800Y3505231D01*
X3788861Y3505615D01*
X3788959Y3505991D01*
X3788984Y3506388D01*
X3788997Y3506468D01*
X3788992Y3506516D01*
X3788999Y3506627D01*
X3788999Y3506837D01*
X3788985Y3506952D01*
X3788994Y3507066D01*
X3788907Y3507571D01*
X3788842Y3508080D01*
X3788800Y3508187D01*
X3788780Y3508300D01*
X3788570Y3508768D01*
X3788382Y3509244D01*
X3788314Y3509338D01*
X3788267Y3509443D01*
X3787947Y3509843D01*
X3787646Y3510258D01*
X3787557Y3510331D01*
X3787485Y3510421D01*
X3787076Y3510730D01*
X3786681Y3511057D01*
X3786578Y3511106D01*
X3786485Y3511175D01*
X3785913Y3511456D01*
X3776775Y3515241D01*
X3765241Y3526775D01*
X3758999Y3541844D01*
X3758999Y3558156D01*
X3765241Y3573225D01*
X3776775Y3584759D01*
X3791844Y3591001D01*
X3808156Y3591001D01*
X3823225Y3584759D01*
X3834759Y3573225D01*
X3841001Y3558156D01*
X3841001Y3541844D01*
X3834759Y3526775D01*
X3823225Y3515241D01*
X3814087Y3511456D01*
X3813987Y3511399D01*
X3813877Y3511364D01*
X3813443Y3511089D01*
X3812999Y3510836D01*
X3812917Y3510756D01*
X3812819Y3510694D01*
X3812466Y3510320D01*
X3812099Y3509964D01*
X3812039Y3509866D01*
X3811960Y3509782D01*
X3811712Y3509334D01*
X3811445Y3508897D01*
X3811411Y3508787D01*
X3811355Y3508686D01*
X3811226Y3508189D01*
X3811076Y3507700D01*
X3811070Y3507586D01*
X3811041Y3507474D01*
X3811001Y3506837D01*
X3811001Y3495443D01*
X3604556Y3288999D01*
X2920614Y3288999D01*
X2920228Y3288951D01*
X2919840Y3288939D01*
X2919609Y3288872D01*
X2919371Y3288842D01*
X2919010Y3288700D01*
X2918636Y3288592D01*
X2918430Y3288470D01*
X2918207Y3288382D01*
X2917892Y3288153D01*
X2917557Y3287956D01*
X2917259Y3287694D01*
X2917193Y3287646D01*
X2917162Y3287609D01*
X2917079Y3287535D01*
X2911833Y3282290D01*
X2904155Y3279109D01*
X2895845Y3279109D01*
G37*
%LPD*%
%LPC*%
G36*
X2940581Y1454629D02*
X2940581Y1454629D01*
X2923906Y1461536D01*
X2911143Y1474300D01*
X2906332Y1485913D01*
X2906275Y1486013D01*
X2906240Y1486123D01*
X2905965Y1486557D01*
X2905712Y1487001D01*
X2905632Y1487083D01*
X2905570Y1487181D01*
X2905196Y1487533D01*
X2904841Y1487901D01*
X2904742Y1487961D01*
X2904659Y1488040D01*
X2904210Y1488287D01*
X2903773Y1488555D01*
X2903663Y1488589D01*
X2903562Y1488645D01*
X2903065Y1488773D01*
X2902576Y1488924D01*
X2902462Y1488930D01*
X2902350Y1488959D01*
X2901714Y1488999D01*
X2361983Y1488999D01*
X2361597Y1488951D01*
X2361209Y1488939D01*
X2360978Y1488872D01*
X2360740Y1488842D01*
X2360379Y1488700D01*
X2360005Y1488592D01*
X2359799Y1488470D01*
X2359576Y1488382D01*
X2359261Y1488153D01*
X2358926Y1487956D01*
X2358628Y1487694D01*
X2358562Y1487646D01*
X2358531Y1487609D01*
X2358448Y1487535D01*
X2350392Y1479480D01*
X2337161Y1473999D01*
X2262839Y1473999D01*
X2249607Y1479480D01*
X2239480Y1489607D01*
X2233999Y1502839D01*
X2233999Y1517161D01*
X2239480Y1530392D01*
X2249607Y1540520D01*
X2262839Y1546001D01*
X2337161Y1546001D01*
X2350392Y1540520D01*
X2360520Y1530392D01*
X2366001Y1517161D01*
X2366001Y1516000D01*
X2366059Y1515536D01*
X2366088Y1515069D01*
X2366137Y1514916D01*
X2366157Y1514757D01*
X2366329Y1514323D01*
X2366474Y1513877D01*
X2366559Y1513742D01*
X2366618Y1513593D01*
X2366892Y1513215D01*
X2367143Y1512819D01*
X2367260Y1512709D01*
X2367354Y1512579D01*
X2367714Y1512281D01*
X2368055Y1511960D01*
X2368195Y1511883D01*
X2368318Y1511781D01*
X2368742Y1511581D01*
X2369151Y1511355D01*
X2369306Y1511315D01*
X2369451Y1511247D01*
X2369910Y1511159D01*
X2370364Y1511041D01*
X2370602Y1511026D01*
X2370681Y1511011D01*
X2370762Y1511016D01*
X2371000Y1511001D01*
X2901714Y1511001D01*
X2901828Y1511015D01*
X2901943Y1511006D01*
X2902447Y1511093D01*
X2902956Y1511157D01*
X2903063Y1511200D01*
X2903177Y1511219D01*
X2903644Y1511430D01*
X2904121Y1511618D01*
X2904214Y1511686D01*
X2904319Y1511733D01*
X2904719Y1512053D01*
X2905134Y1512354D01*
X2905207Y1512443D01*
X2905297Y1512514D01*
X2905607Y1512924D01*
X2905933Y1513318D01*
X2905982Y1513422D01*
X2906051Y1513515D01*
X2906332Y1514087D01*
X2911143Y1525700D01*
X2923906Y1538463D01*
X2940581Y1545371D01*
X2958631Y1545371D01*
X2975306Y1538463D01*
X2988070Y1525700D01*
X2994977Y1509025D01*
X2994977Y1490975D01*
X2988070Y1474300D01*
X2975306Y1461536D01*
X2958631Y1454629D01*
X2940581Y1454629D01*
G37*
%LPD*%
%LPC*%
G36*
X2895845Y3379109D02*
X2895845Y3379109D01*
X2888167Y3382290D01*
X2882290Y3388167D01*
X2879109Y3395845D01*
X2879109Y3404155D01*
X2882290Y3411833D01*
X2888167Y3417710D01*
X2895845Y3420890D01*
X2904155Y3420890D01*
X2911833Y3417710D01*
X2917079Y3412465D01*
X2917386Y3412226D01*
X2917669Y3411960D01*
X2917879Y3411844D01*
X2918068Y3411697D01*
X2918425Y3411543D01*
X2918765Y3411355D01*
X2918997Y3411295D01*
X2919217Y3411200D01*
X2919601Y3411139D01*
X2919977Y3411041D01*
X2920374Y3411016D01*
X2920454Y3411003D01*
X2920502Y3411008D01*
X2920614Y3411001D01*
X3593373Y3411001D01*
X3593758Y3411049D01*
X3594147Y3411061D01*
X3594377Y3411127D01*
X3594615Y3411157D01*
X3594976Y3411300D01*
X3595350Y3411408D01*
X3595557Y3411530D01*
X3595780Y3411618D01*
X3596094Y3411846D01*
X3596429Y3412044D01*
X3596727Y3412306D01*
X3596793Y3412354D01*
X3596824Y3412391D01*
X3596908Y3412465D01*
X3687535Y3503092D01*
X3687773Y3503400D01*
X3688040Y3503682D01*
X3688156Y3503892D01*
X3688303Y3504082D01*
X3688457Y3504439D01*
X3688645Y3504779D01*
X3688705Y3505011D01*
X3688800Y3505231D01*
X3688861Y3505615D01*
X3688959Y3505991D01*
X3688984Y3506388D01*
X3688997Y3506468D01*
X3688992Y3506516D01*
X3688999Y3506627D01*
X3688999Y3506837D01*
X3688985Y3506952D01*
X3688994Y3507066D01*
X3688907Y3507571D01*
X3688842Y3508080D01*
X3688800Y3508187D01*
X3688780Y3508300D01*
X3688570Y3508768D01*
X3688382Y3509244D01*
X3688314Y3509338D01*
X3688267Y3509443D01*
X3687947Y3509843D01*
X3687646Y3510258D01*
X3687557Y3510331D01*
X3687485Y3510421D01*
X3687076Y3510730D01*
X3686681Y3511057D01*
X3686578Y3511106D01*
X3686485Y3511175D01*
X3685913Y3511456D01*
X3676775Y3515241D01*
X3665241Y3526775D01*
X3658999Y3541844D01*
X3658999Y3558156D01*
X3665241Y3573225D01*
X3676775Y3584759D01*
X3691844Y3591001D01*
X3708156Y3591001D01*
X3723225Y3584759D01*
X3734759Y3573225D01*
X3741001Y3558156D01*
X3741001Y3541844D01*
X3734759Y3526775D01*
X3723225Y3515241D01*
X3714087Y3511456D01*
X3713987Y3511399D01*
X3713877Y3511364D01*
X3713443Y3511089D01*
X3712999Y3510836D01*
X3712917Y3510756D01*
X3712819Y3510694D01*
X3712466Y3510320D01*
X3712099Y3509964D01*
X3712039Y3509866D01*
X3711960Y3509782D01*
X3711712Y3509334D01*
X3711445Y3508897D01*
X3711411Y3508787D01*
X3711355Y3508686D01*
X3711226Y3508189D01*
X3711076Y3507700D01*
X3711070Y3507586D01*
X3711041Y3507474D01*
X3711001Y3506837D01*
X3711001Y3495443D01*
X3604556Y3388999D01*
X2920614Y3388999D01*
X2920228Y3388951D01*
X2919840Y3388939D01*
X2919609Y3388872D01*
X2919371Y3388842D01*
X2919010Y3388700D01*
X2918636Y3388592D01*
X2918430Y3388470D01*
X2918207Y3388382D01*
X2917892Y3388153D01*
X2917557Y3387956D01*
X2917259Y3387694D01*
X2917193Y3387646D01*
X2917162Y3387609D01*
X2917079Y3387535D01*
X2911833Y3382290D01*
X2904155Y3379109D01*
X2895845Y3379109D01*
G37*
%LPD*%
%LPC*%
G36*
X3744521Y851086D02*
X3744521Y851086D01*
X3727122Y858293D01*
X3713805Y871610D01*
X3706598Y889009D01*
X3706598Y907842D01*
X3713805Y925241D01*
X3727122Y938558D01*
X3744521Y945764D01*
X3763353Y945764D01*
X3780752Y938558D01*
X3794069Y925241D01*
X3799342Y912512D01*
X3799399Y912412D01*
X3799434Y912302D01*
X3799709Y911868D01*
X3799962Y911424D01*
X3800042Y911342D01*
X3800104Y911244D01*
X3800478Y910892D01*
X3800833Y910524D01*
X3800932Y910464D01*
X3801015Y910385D01*
X3801463Y910138D01*
X3801901Y909870D01*
X3802011Y909836D01*
X3802112Y909780D01*
X3802609Y909652D01*
X3803098Y909501D01*
X3803212Y909495D01*
X3803324Y909466D01*
X3803960Y909426D01*
X4196039Y909426D01*
X4196154Y909440D01*
X4196269Y909431D01*
X4196773Y909518D01*
X4197282Y909583D01*
X4197389Y909625D01*
X4197503Y909645D01*
X4197970Y909855D01*
X4198446Y910043D01*
X4198540Y910111D01*
X4198645Y910158D01*
X4199044Y910477D01*
X4199460Y910779D01*
X4199534Y910868D01*
X4199623Y910940D01*
X4199932Y911349D01*
X4200259Y911744D01*
X4200308Y911848D01*
X4200377Y911940D01*
X4200658Y912512D01*
X4205930Y925241D01*
X4219248Y938558D01*
X4236647Y945764D01*
X4255479Y945764D01*
X4272878Y938558D01*
X4286195Y925241D01*
X4293402Y907842D01*
X4293402Y889009D01*
X4286195Y871610D01*
X4272878Y858293D01*
X4255479Y851086D01*
X4236647Y851086D01*
X4219248Y858293D01*
X4205930Y871610D01*
X4200658Y884338D01*
X4200601Y884438D01*
X4200566Y884548D01*
X4200291Y884982D01*
X4200038Y885426D01*
X4199958Y885508D01*
X4199896Y885606D01*
X4199522Y885959D01*
X4199166Y886326D01*
X4199068Y886386D01*
X4198984Y886465D01*
X4198537Y886712D01*
X4198099Y886981D01*
X4197989Y887015D01*
X4197888Y887070D01*
X4197391Y887199D01*
X4196902Y887349D01*
X4196788Y887355D01*
X4196676Y887384D01*
X4196039Y887424D01*
X3803960Y887424D01*
X3803846Y887410D01*
X3803731Y887419D01*
X3803227Y887332D01*
X3802718Y887268D01*
X3802611Y887225D01*
X3802497Y887206D01*
X3802030Y886995D01*
X3801553Y886807D01*
X3801460Y886739D01*
X3801355Y886692D01*
X3800955Y886373D01*
X3800540Y886071D01*
X3800466Y885982D01*
X3800376Y885911D01*
X3800068Y885501D01*
X3799741Y885107D01*
X3799692Y885003D01*
X3799623Y884911D01*
X3799342Y884338D01*
X3794069Y871610D01*
X3780752Y858293D01*
X3763353Y851086D01*
X3744521Y851086D01*
G37*
%LPD*%
%LPC*%
G36*
X3744521Y2051086D02*
X3744521Y2051086D01*
X3727122Y2058293D01*
X3713805Y2071610D01*
X3706598Y2089009D01*
X3706598Y2107842D01*
X3713805Y2125241D01*
X3727122Y2138558D01*
X3744521Y2145764D01*
X3763353Y2145764D01*
X3780752Y2138558D01*
X3794069Y2125241D01*
X3799342Y2112512D01*
X3799399Y2112412D01*
X3799434Y2112302D01*
X3799709Y2111868D01*
X3799962Y2111424D01*
X3800042Y2111342D01*
X3800104Y2111244D01*
X3800478Y2110892D01*
X3800833Y2110524D01*
X3800932Y2110464D01*
X3801015Y2110385D01*
X3801463Y2110138D01*
X3801901Y2109870D01*
X3802011Y2109836D01*
X3802112Y2109780D01*
X3802609Y2109652D01*
X3803098Y2109501D01*
X3803212Y2109495D01*
X3803324Y2109466D01*
X3803960Y2109426D01*
X4196039Y2109426D01*
X4196154Y2109440D01*
X4196269Y2109431D01*
X4196773Y2109518D01*
X4197282Y2109583D01*
X4197389Y2109625D01*
X4197503Y2109645D01*
X4197970Y2109855D01*
X4198446Y2110043D01*
X4198540Y2110111D01*
X4198645Y2110158D01*
X4199044Y2110477D01*
X4199460Y2110779D01*
X4199534Y2110868D01*
X4199623Y2110940D01*
X4199932Y2111349D01*
X4200259Y2111744D01*
X4200308Y2111848D01*
X4200377Y2111940D01*
X4200658Y2112512D01*
X4205930Y2125241D01*
X4219248Y2138558D01*
X4236647Y2145764D01*
X4255479Y2145764D01*
X4272878Y2138558D01*
X4286195Y2125241D01*
X4293402Y2107842D01*
X4293402Y2089009D01*
X4286195Y2071610D01*
X4272878Y2058293D01*
X4255479Y2051086D01*
X4236647Y2051086D01*
X4219248Y2058293D01*
X4205930Y2071610D01*
X4200658Y2084338D01*
X4200601Y2084438D01*
X4200566Y2084548D01*
X4200291Y2084982D01*
X4200038Y2085426D01*
X4199958Y2085508D01*
X4199896Y2085606D01*
X4199522Y2085959D01*
X4199166Y2086326D01*
X4199068Y2086386D01*
X4198984Y2086465D01*
X4198537Y2086712D01*
X4198099Y2086981D01*
X4197989Y2087015D01*
X4197888Y2087070D01*
X4197391Y2087199D01*
X4196902Y2087349D01*
X4196788Y2087355D01*
X4196676Y2087384D01*
X4196039Y2087424D01*
X3803960Y2087424D01*
X3803846Y2087410D01*
X3803731Y2087419D01*
X3803227Y2087332D01*
X3802718Y2087268D01*
X3802611Y2087225D01*
X3802497Y2087206D01*
X3802030Y2086995D01*
X3801553Y2086807D01*
X3801460Y2086739D01*
X3801355Y2086692D01*
X3800955Y2086373D01*
X3800540Y2086071D01*
X3800466Y2085982D01*
X3800376Y2085911D01*
X3800068Y2085501D01*
X3799741Y2085107D01*
X3799692Y2085003D01*
X3799623Y2084911D01*
X3799342Y2084338D01*
X3794069Y2071610D01*
X3780752Y2058293D01*
X3763353Y2051086D01*
X3744521Y2051086D01*
G37*
%LPD*%
%LPC*%
G36*
X5244521Y851086D02*
X5244521Y851086D01*
X5227122Y858293D01*
X5213805Y871610D01*
X5206598Y889009D01*
X5206598Y907842D01*
X5213805Y925241D01*
X5227122Y938558D01*
X5244521Y945764D01*
X5263353Y945764D01*
X5280752Y938558D01*
X5294069Y925241D01*
X5299342Y912512D01*
X5299399Y912412D01*
X5299434Y912302D01*
X5299709Y911868D01*
X5299962Y911424D01*
X5300042Y911342D01*
X5300104Y911244D01*
X5300478Y910892D01*
X5300833Y910524D01*
X5300932Y910464D01*
X5301015Y910385D01*
X5301463Y910138D01*
X5301901Y909870D01*
X5302011Y909836D01*
X5302112Y909780D01*
X5302609Y909652D01*
X5303098Y909501D01*
X5303212Y909495D01*
X5303324Y909466D01*
X5303960Y909426D01*
X5696039Y909426D01*
X5696154Y909440D01*
X5696269Y909431D01*
X5696773Y909518D01*
X5697282Y909583D01*
X5697389Y909625D01*
X5697503Y909645D01*
X5697970Y909855D01*
X5698446Y910043D01*
X5698540Y910111D01*
X5698645Y910158D01*
X5699044Y910477D01*
X5699460Y910779D01*
X5699534Y910868D01*
X5699623Y910940D01*
X5699932Y911349D01*
X5700259Y911744D01*
X5700308Y911848D01*
X5700377Y911940D01*
X5700658Y912512D01*
X5705930Y925241D01*
X5719248Y938558D01*
X5736647Y945764D01*
X5755479Y945764D01*
X5772878Y938558D01*
X5786195Y925241D01*
X5793402Y907842D01*
X5793402Y889009D01*
X5786195Y871610D01*
X5772878Y858293D01*
X5755479Y851086D01*
X5736647Y851086D01*
X5719248Y858293D01*
X5705930Y871610D01*
X5700658Y884338D01*
X5700601Y884438D01*
X5700566Y884548D01*
X5700291Y884982D01*
X5700038Y885426D01*
X5699958Y885508D01*
X5699896Y885606D01*
X5699522Y885959D01*
X5699166Y886326D01*
X5699068Y886386D01*
X5698984Y886465D01*
X5698537Y886712D01*
X5698099Y886981D01*
X5697989Y887015D01*
X5697888Y887070D01*
X5697391Y887199D01*
X5696902Y887349D01*
X5696788Y887355D01*
X5696676Y887384D01*
X5696039Y887424D01*
X5303960Y887424D01*
X5303846Y887410D01*
X5303731Y887419D01*
X5303227Y887332D01*
X5302718Y887268D01*
X5302611Y887225D01*
X5302497Y887206D01*
X5302030Y886995D01*
X5301553Y886807D01*
X5301460Y886739D01*
X5301355Y886692D01*
X5300955Y886373D01*
X5300540Y886071D01*
X5300466Y885982D01*
X5300376Y885911D01*
X5300068Y885501D01*
X5299741Y885107D01*
X5299692Y885003D01*
X5299623Y884911D01*
X5299342Y884338D01*
X5294069Y871610D01*
X5280752Y858293D01*
X5263353Y851086D01*
X5244521Y851086D01*
G37*
%LPD*%
%LPC*%
G36*
X1351685Y698598D02*
X1351685Y698598D01*
X1322513Y710681D01*
X1300185Y733009D01*
X1288102Y762181D01*
X1288102Y793756D01*
X1300185Y822928D01*
X1322513Y845256D01*
X1351685Y857339D01*
X1383260Y857339D01*
X1412432Y845256D01*
X1434760Y822928D01*
X1446843Y793756D01*
X1446843Y762181D01*
X1434760Y733009D01*
X1412432Y710681D01*
X1383260Y698598D01*
X1351685Y698598D01*
G37*
%LPD*%
%LPC*%
G36*
X2262839Y1273999D02*
X2262839Y1273999D01*
X2249607Y1279480D01*
X2239480Y1289607D01*
X2233999Y1302839D01*
X2233999Y1317161D01*
X2239480Y1330392D01*
X2249607Y1340520D01*
X2262839Y1346001D01*
X2337161Y1346001D01*
X2350392Y1340520D01*
X2360520Y1330392D01*
X2366001Y1317161D01*
X2366001Y1316000D01*
X2366059Y1315536D01*
X2366088Y1315069D01*
X2366137Y1314916D01*
X2366157Y1314757D01*
X2366329Y1314323D01*
X2366474Y1313877D01*
X2366559Y1313742D01*
X2366618Y1313593D01*
X2366892Y1313215D01*
X2367143Y1312819D01*
X2367260Y1312709D01*
X2367354Y1312579D01*
X2367714Y1312281D01*
X2368055Y1311960D01*
X2368195Y1311883D01*
X2368318Y1311781D01*
X2368742Y1311581D01*
X2369151Y1311355D01*
X2369306Y1311315D01*
X2369451Y1311247D01*
X2369910Y1311159D01*
X2370364Y1311041D01*
X2370602Y1311026D01*
X2370681Y1311011D01*
X2370762Y1311016D01*
X2371000Y1311001D01*
X2729386Y1311001D01*
X2729772Y1311049D01*
X2730160Y1311061D01*
X2730391Y1311127D01*
X2730629Y1311157D01*
X2730990Y1311300D01*
X2731363Y1311408D01*
X2731570Y1311530D01*
X2731793Y1311618D01*
X2732108Y1311846D01*
X2732443Y1312044D01*
X2732741Y1312306D01*
X2732807Y1312354D01*
X2732837Y1312391D01*
X2732921Y1312465D01*
X2738167Y1317710D01*
X2745845Y1320890D01*
X2754155Y1320890D01*
X2761833Y1317710D01*
X2767710Y1311833D01*
X2770890Y1304155D01*
X2770890Y1295845D01*
X2767710Y1288167D01*
X2761833Y1282290D01*
X2754155Y1279109D01*
X2745845Y1279109D01*
X2738167Y1282290D01*
X2732921Y1287535D01*
X2732614Y1287773D01*
X2732331Y1288040D01*
X2732121Y1288156D01*
X2731932Y1288303D01*
X2731575Y1288457D01*
X2731235Y1288645D01*
X2731003Y1288705D01*
X2730782Y1288800D01*
X2730399Y1288861D01*
X2730022Y1288959D01*
X2729626Y1288984D01*
X2729546Y1288997D01*
X2729498Y1288992D01*
X2729386Y1288999D01*
X2361983Y1288999D01*
X2361597Y1288951D01*
X2361209Y1288939D01*
X2360978Y1288872D01*
X2360740Y1288842D01*
X2360379Y1288700D01*
X2360005Y1288592D01*
X2359799Y1288470D01*
X2359576Y1288382D01*
X2359261Y1288153D01*
X2358926Y1287956D01*
X2358628Y1287694D01*
X2358562Y1287646D01*
X2358531Y1287609D01*
X2358448Y1287535D01*
X2350392Y1279480D01*
X2337161Y1273999D01*
X2262839Y1273999D01*
G37*
%LPD*%
%LPC*%
G36*
X2262839Y1113999D02*
X2262839Y1113999D01*
X2249607Y1119480D01*
X2239480Y1129607D01*
X2233999Y1142839D01*
X2233999Y1157161D01*
X2239480Y1170392D01*
X2249607Y1180520D01*
X2262839Y1186001D01*
X2337161Y1186001D01*
X2350392Y1180520D01*
X2360520Y1170393D01*
X2363132Y1164087D01*
X2363189Y1163987D01*
X2363224Y1163877D01*
X2363499Y1163443D01*
X2363752Y1162999D01*
X2363832Y1162916D01*
X2363894Y1162819D01*
X2364267Y1162467D01*
X2364623Y1162099D01*
X2364722Y1162039D01*
X2364805Y1161960D01*
X2365253Y1161713D01*
X2365691Y1161445D01*
X2365801Y1161411D01*
X2365902Y1161355D01*
X2366399Y1161226D01*
X2366888Y1161076D01*
X2367002Y1161070D01*
X2367114Y1161041D01*
X2367750Y1161001D01*
X2729386Y1161001D01*
X2729772Y1161049D01*
X2730160Y1161061D01*
X2730391Y1161127D01*
X2730629Y1161157D01*
X2730990Y1161300D01*
X2731363Y1161408D01*
X2731570Y1161530D01*
X2731793Y1161618D01*
X2732108Y1161846D01*
X2732443Y1162044D01*
X2732741Y1162306D01*
X2732807Y1162354D01*
X2732837Y1162391D01*
X2732921Y1162465D01*
X2738167Y1167710D01*
X2745845Y1170890D01*
X2754155Y1170890D01*
X2761833Y1167710D01*
X2767710Y1161833D01*
X2770890Y1154155D01*
X2770890Y1145845D01*
X2767710Y1138167D01*
X2761833Y1132290D01*
X2754155Y1129109D01*
X2745845Y1129109D01*
X2738167Y1132290D01*
X2732921Y1137535D01*
X2732614Y1137773D01*
X2732331Y1138040D01*
X2732121Y1138156D01*
X2731932Y1138303D01*
X2731575Y1138457D01*
X2731235Y1138645D01*
X2731003Y1138705D01*
X2730782Y1138800D01*
X2730399Y1138861D01*
X2730022Y1138959D01*
X2729626Y1138984D01*
X2729546Y1138997D01*
X2729498Y1138992D01*
X2729386Y1138999D01*
X2367750Y1138999D01*
X2367636Y1138985D01*
X2367521Y1138994D01*
X2367017Y1138907D01*
X2366508Y1138842D01*
X2366401Y1138800D01*
X2366287Y1138780D01*
X2365820Y1138570D01*
X2365344Y1138382D01*
X2365250Y1138314D01*
X2365145Y1138267D01*
X2364746Y1137948D01*
X2364330Y1137646D01*
X2364256Y1137557D01*
X2364167Y1137485D01*
X2363858Y1137076D01*
X2363531Y1136681D01*
X2363482Y1136578D01*
X2363413Y1136485D01*
X2363132Y1135913D01*
X2360520Y1129607D01*
X2350392Y1119480D01*
X2337161Y1113999D01*
X2262839Y1113999D01*
G37*
%LPD*%
%LPC*%
G36*
X776833Y3431999D02*
X776833Y3431999D01*
X736999Y3471833D01*
X736999Y3528167D01*
X776833Y3568001D01*
X833167Y3568001D01*
X873001Y3528167D01*
X873001Y3471833D01*
X833167Y3431999D01*
X776833Y3431999D01*
G37*
%LPD*%
%LPC*%
G36*
X362839Y1613999D02*
X362839Y1613999D01*
X349607Y1619480D01*
X339480Y1629607D01*
X333999Y1642839D01*
X333999Y1657161D01*
X339480Y1670392D01*
X349607Y1680520D01*
X362839Y1686001D01*
X437161Y1686001D01*
X450392Y1680520D01*
X460520Y1670392D01*
X466001Y1657161D01*
X466001Y1642839D01*
X460520Y1629607D01*
X450392Y1619480D01*
X437161Y1613999D01*
X362839Y1613999D01*
G37*
%LPD*%
%LPC*%
G36*
X2262839Y1973999D02*
X2262839Y1973999D01*
X2249607Y1979480D01*
X2239480Y1989607D01*
X2233999Y2002839D01*
X2233999Y2017161D01*
X2239480Y2030392D01*
X2249607Y2040520D01*
X2262839Y2046001D01*
X2337161Y2046001D01*
X2350392Y2040520D01*
X2360520Y2030392D01*
X2366001Y2017161D01*
X2366001Y2002839D01*
X2360520Y1989607D01*
X2350392Y1979480D01*
X2337161Y1973999D01*
X2262839Y1973999D01*
G37*
%LPD*%
%LPC*%
G36*
X2262839Y1673999D02*
X2262839Y1673999D01*
X2249607Y1679480D01*
X2239480Y1689607D01*
X2233999Y1702839D01*
X2233999Y1717161D01*
X2239480Y1730392D01*
X2249607Y1740520D01*
X2262839Y1746001D01*
X2337161Y1746001D01*
X2350392Y1740520D01*
X2360520Y1730392D01*
X2366001Y1717161D01*
X2366001Y1702839D01*
X2360520Y1689607D01*
X2350392Y1679480D01*
X2337161Y1673999D01*
X2262839Y1673999D01*
G37*
%LPD*%
%LPC*%
G36*
X2262839Y1013999D02*
X2262839Y1013999D01*
X2249607Y1019480D01*
X2239480Y1029607D01*
X2233999Y1042839D01*
X2233999Y1057161D01*
X2239480Y1070392D01*
X2249607Y1080520D01*
X2262839Y1086001D01*
X2337161Y1086001D01*
X2350392Y1080520D01*
X2360520Y1070392D01*
X2366001Y1057161D01*
X2366001Y1042839D01*
X2360520Y1029607D01*
X2350392Y1019480D01*
X2337161Y1013999D01*
X2262839Y1013999D01*
G37*
%LPD*%
%LPC*%
G36*
X2262839Y1773999D02*
X2262839Y1773999D01*
X2249607Y1779480D01*
X2239480Y1789607D01*
X2233999Y1802839D01*
X2233999Y1817161D01*
X2239480Y1830392D01*
X2249607Y1840520D01*
X2262839Y1846001D01*
X2337161Y1846001D01*
X2350392Y1840520D01*
X2360520Y1830392D01*
X2366001Y1817161D01*
X2366001Y1802839D01*
X2360520Y1789607D01*
X2350392Y1779480D01*
X2337161Y1773999D01*
X2262839Y1773999D01*
G37*
%LPD*%
%LPC*%
G36*
X2262839Y513999D02*
X2262839Y513999D01*
X2249607Y519480D01*
X2239480Y529607D01*
X2233999Y542839D01*
X2233999Y557161D01*
X2239480Y570392D01*
X2249607Y580520D01*
X2262839Y586001D01*
X2337161Y586001D01*
X2350392Y580520D01*
X2360520Y570392D01*
X2366001Y557161D01*
X2366001Y542839D01*
X2360520Y529607D01*
X2350392Y519480D01*
X2337161Y513999D01*
X2262839Y513999D01*
G37*
%LPD*%
%LPC*%
G36*
X2262839Y413999D02*
X2262839Y413999D01*
X2249607Y419480D01*
X2239480Y429607D01*
X2233999Y442839D01*
X2233999Y457161D01*
X2239480Y470392D01*
X2249607Y480520D01*
X2262839Y486001D01*
X2337161Y486001D01*
X2350392Y480520D01*
X2360520Y470392D01*
X2366001Y457161D01*
X2366001Y442839D01*
X2360520Y429607D01*
X2350392Y419480D01*
X2337161Y413999D01*
X2262839Y413999D01*
G37*
%LPD*%
%LPC*%
G36*
X362839Y613999D02*
X362839Y613999D01*
X349607Y619480D01*
X339480Y629607D01*
X333999Y642839D01*
X333999Y657161D01*
X339480Y670392D01*
X349607Y680520D01*
X362839Y686001D01*
X437161Y686001D01*
X450392Y680520D01*
X460520Y670392D01*
X466001Y657161D01*
X466001Y642839D01*
X460520Y629607D01*
X450392Y619480D01*
X437161Y613999D01*
X362839Y613999D01*
G37*
%LPD*%
%LPC*%
G36*
X2262839Y613999D02*
X2262839Y613999D01*
X2249607Y619480D01*
X2239480Y629607D01*
X2233999Y642839D01*
X2233999Y657161D01*
X2239480Y670392D01*
X2249607Y680520D01*
X2262839Y686001D01*
X2337161Y686001D01*
X2350392Y680520D01*
X2360520Y670392D01*
X2366001Y657161D01*
X2366001Y642839D01*
X2360520Y629607D01*
X2350392Y619480D01*
X2337161Y613999D01*
X2262839Y613999D01*
G37*
%LPD*%
%LPC*%
G36*
X362839Y713999D02*
X362839Y713999D01*
X349607Y719480D01*
X339480Y729607D01*
X333999Y742839D01*
X333999Y757161D01*
X339480Y770392D01*
X349607Y780520D01*
X362839Y786001D01*
X437161Y786001D01*
X450392Y780520D01*
X460520Y770392D01*
X466001Y757161D01*
X466001Y742839D01*
X460520Y729607D01*
X450392Y719480D01*
X437161Y713999D01*
X362839Y713999D01*
G37*
%LPD*%
%LPC*%
G36*
X2262839Y813999D02*
X2262839Y813999D01*
X2249607Y819480D01*
X2239480Y829607D01*
X2233999Y842839D01*
X2233999Y857161D01*
X2239480Y870392D01*
X2249607Y880520D01*
X2262839Y886001D01*
X2337161Y886001D01*
X2350392Y880520D01*
X2360520Y870392D01*
X2366001Y857161D01*
X2366001Y842839D01*
X2360520Y829607D01*
X2350392Y819480D01*
X2337161Y813999D01*
X2262839Y813999D01*
G37*
%LPD*%
%LPC*%
G36*
X362839Y813999D02*
X362839Y813999D01*
X349607Y819480D01*
X339480Y829607D01*
X333999Y842839D01*
X333999Y857161D01*
X339480Y870392D01*
X349607Y880520D01*
X362839Y886001D01*
X437161Y886001D01*
X450392Y880520D01*
X460520Y870392D01*
X466001Y857161D01*
X466001Y842839D01*
X460520Y829607D01*
X450392Y819480D01*
X437161Y813999D01*
X362839Y813999D01*
G37*
%LPD*%
%LPC*%
G36*
X362839Y913999D02*
X362839Y913999D01*
X349607Y919480D01*
X339480Y929607D01*
X333999Y942839D01*
X333999Y957161D01*
X339480Y970392D01*
X349607Y980520D01*
X362839Y986001D01*
X437161Y986001D01*
X450392Y980520D01*
X460520Y970392D01*
X466001Y957161D01*
X466001Y942839D01*
X460520Y929607D01*
X450392Y919480D01*
X437161Y913999D01*
X362839Y913999D01*
G37*
%LPD*%
%LPC*%
G36*
X2262839Y913999D02*
X2262839Y913999D01*
X2249607Y919480D01*
X2239480Y929607D01*
X2233999Y942839D01*
X2233999Y957161D01*
X2239480Y970392D01*
X2249607Y980520D01*
X2262839Y986001D01*
X2337161Y986001D01*
X2350392Y980520D01*
X2360520Y970392D01*
X2366001Y957161D01*
X2366001Y942839D01*
X2360520Y929607D01*
X2350392Y919480D01*
X2337161Y913999D01*
X2262839Y913999D01*
G37*
%LPD*%
%LPC*%
G36*
X2262839Y713999D02*
X2262839Y713999D01*
X2249607Y719480D01*
X2239480Y729607D01*
X2233999Y742839D01*
X2233999Y757161D01*
X2239480Y770392D01*
X2249607Y780520D01*
X2262839Y786001D01*
X2337161Y786001D01*
X2350392Y780520D01*
X2360520Y770392D01*
X2366001Y757161D01*
X2366001Y742839D01*
X2360520Y729607D01*
X2350392Y719480D01*
X2337161Y713999D01*
X2262839Y713999D01*
G37*
%LPD*%
%LPC*%
G36*
X362839Y1513999D02*
X362839Y1513999D01*
X349607Y1519480D01*
X339480Y1529607D01*
X333999Y1542839D01*
X333999Y1557161D01*
X339480Y1570392D01*
X349607Y1580520D01*
X362839Y1586001D01*
X437161Y1586001D01*
X450392Y1580520D01*
X460520Y1570392D01*
X466001Y1557161D01*
X466001Y1542839D01*
X460520Y1529607D01*
X450392Y1519480D01*
X437161Y1513999D01*
X362839Y1513999D01*
G37*
%LPD*%
%LPC*%
G36*
X2262839Y1573999D02*
X2262839Y1573999D01*
X2249607Y1579480D01*
X2239480Y1589607D01*
X2233999Y1602839D01*
X2233999Y1617161D01*
X2239480Y1630392D01*
X2249607Y1640520D01*
X2262839Y1646001D01*
X2337161Y1646001D01*
X2350392Y1640520D01*
X2360520Y1630392D01*
X2366001Y1617161D01*
X2366001Y1602839D01*
X2360520Y1589607D01*
X2350392Y1579480D01*
X2337161Y1573999D01*
X2262839Y1573999D01*
G37*
%LPD*%
%LPC*%
G36*
X5141369Y204629D02*
X5141369Y204629D01*
X5124693Y211536D01*
X5111930Y224300D01*
X5105023Y240975D01*
X5105023Y259025D01*
X5111930Y275700D01*
X5124693Y288463D01*
X5141369Y295371D01*
X5159418Y295371D01*
X5176094Y288463D01*
X5188857Y275700D01*
X5195764Y259025D01*
X5195764Y240975D01*
X5188857Y224300D01*
X5176094Y211536D01*
X5159418Y204629D01*
X5141369Y204629D01*
G37*
%LPD*%
%LPC*%
G36*
X5141369Y3004629D02*
X5141369Y3004629D01*
X5124693Y3011536D01*
X5111930Y3024300D01*
X5105023Y3040975D01*
X5105023Y3059025D01*
X5111930Y3075700D01*
X5124693Y3088463D01*
X5141369Y3095371D01*
X5159418Y3095371D01*
X5176094Y3088463D01*
X5188857Y3075700D01*
X5195764Y3059025D01*
X5195764Y3040975D01*
X5188857Y3024300D01*
X5176094Y3011536D01*
X5159418Y3004629D01*
X5141369Y3004629D01*
G37*
%LPD*%
%LPC*%
G36*
X3641369Y254629D02*
X3641369Y254629D01*
X3624693Y261536D01*
X3611930Y274300D01*
X3605023Y290975D01*
X3605023Y309025D01*
X3611930Y325700D01*
X3624693Y338463D01*
X3641369Y345371D01*
X3659418Y345371D01*
X3676094Y338463D01*
X3688857Y325700D01*
X3695764Y309025D01*
X3695764Y290975D01*
X3688857Y274300D01*
X3676094Y261536D01*
X3659418Y254629D01*
X3641369Y254629D01*
G37*
%LPD*%
%LPC*%
G36*
X5141369Y2554629D02*
X5141369Y2554629D01*
X5124693Y2561536D01*
X5111930Y2574300D01*
X5105023Y2590975D01*
X5105023Y2609025D01*
X5111930Y2625700D01*
X5124693Y2638463D01*
X5141369Y2645371D01*
X5159418Y2645371D01*
X5176094Y2638463D01*
X5188857Y2625700D01*
X5195764Y2609025D01*
X5195764Y2590975D01*
X5188857Y2574300D01*
X5176094Y2561536D01*
X5159418Y2554629D01*
X5141369Y2554629D01*
G37*
%LPD*%
%LPC*%
G36*
X3090581Y2554629D02*
X3090581Y2554629D01*
X3073906Y2561536D01*
X3061143Y2574300D01*
X3054235Y2590975D01*
X3054235Y2609025D01*
X3061143Y2625700D01*
X3073906Y2638463D01*
X3090581Y2645371D01*
X3108631Y2645371D01*
X3125306Y2638463D01*
X3138070Y2625700D01*
X3144977Y2609025D01*
X3144977Y2590975D01*
X3138070Y2574300D01*
X3125306Y2561536D01*
X3108631Y2554629D01*
X3090581Y2554629D01*
G37*
%LPD*%
%LPC*%
G36*
X2940581Y254629D02*
X2940581Y254629D01*
X2923906Y261536D01*
X2911143Y274300D01*
X2904235Y290975D01*
X2904235Y309025D01*
X2911143Y325700D01*
X2923906Y338463D01*
X2940581Y345371D01*
X2958631Y345371D01*
X2975306Y338463D01*
X2988070Y325700D01*
X2994977Y309025D01*
X2994977Y290975D01*
X2988070Y274300D01*
X2975306Y261536D01*
X2958631Y254629D01*
X2940581Y254629D01*
G37*
%LPD*%
%LPC*%
G36*
X5141369Y1454629D02*
X5141369Y1454629D01*
X5124693Y1461536D01*
X5111930Y1474300D01*
X5105023Y1490975D01*
X5105023Y1509025D01*
X5111930Y1525700D01*
X5124693Y1538463D01*
X5141369Y1545371D01*
X5159418Y1545371D01*
X5176094Y1538463D01*
X5188857Y1525700D01*
X5195764Y1509025D01*
X5195764Y1490975D01*
X5188857Y1474300D01*
X5176094Y1461536D01*
X5159418Y1454629D01*
X5141369Y1454629D01*
G37*
%LPD*%
%LPC*%
G36*
X3641369Y1454629D02*
X3641369Y1454629D01*
X3624693Y1461536D01*
X3611930Y1474300D01*
X3605023Y1490975D01*
X3605023Y1509025D01*
X3611930Y1525700D01*
X3624693Y1538463D01*
X3641369Y1545371D01*
X3659418Y1545371D01*
X3676094Y1538463D01*
X3688857Y1525700D01*
X3695764Y1509025D01*
X3695764Y1490975D01*
X3688857Y1474300D01*
X3676094Y1461536D01*
X3659418Y1454629D01*
X3641369Y1454629D01*
G37*
%LPD*%
%LPC*%
G36*
X506208Y3455999D02*
X506208Y3455999D01*
X490036Y3462698D01*
X477658Y3475076D01*
X470960Y3491248D01*
X470960Y3508752D01*
X477658Y3524924D01*
X490036Y3537302D01*
X506208Y3544001D01*
X523713Y3544001D01*
X539885Y3537302D01*
X552263Y3524924D01*
X558961Y3508752D01*
X558961Y3491248D01*
X552263Y3475076D01*
X539885Y3462698D01*
X523713Y3455999D01*
X506208Y3455999D01*
G37*
%LPD*%
%LPC*%
G36*
X376287Y3554424D02*
X376287Y3554424D01*
X360115Y3561123D01*
X347737Y3573501D01*
X341039Y3589673D01*
X341039Y3607177D01*
X347737Y3623349D01*
X360115Y3635727D01*
X376287Y3642426D01*
X393792Y3642426D01*
X409963Y3635727D01*
X422341Y3623349D01*
X429040Y3607177D01*
X429040Y3589673D01*
X422341Y3573501D01*
X409963Y3561123D01*
X393792Y3554424D01*
X376287Y3554424D01*
G37*
%LPD*%
%LPC*%
G36*
X376287Y3455999D02*
X376287Y3455999D01*
X360115Y3462698D01*
X347737Y3475076D01*
X341039Y3491248D01*
X341039Y3508752D01*
X347737Y3524924D01*
X360115Y3537302D01*
X376287Y3544001D01*
X393792Y3544001D01*
X409963Y3537302D01*
X422341Y3524924D01*
X429040Y3508752D01*
X429040Y3491248D01*
X422341Y3475076D01*
X409963Y3462698D01*
X393792Y3455999D01*
X376287Y3455999D01*
G37*
%LPD*%
%LPC*%
G36*
X506208Y3357574D02*
X506208Y3357574D01*
X490036Y3364273D01*
X477658Y3376651D01*
X470960Y3392822D01*
X470960Y3410327D01*
X477658Y3426499D01*
X490036Y3438877D01*
X506208Y3445575D01*
X523713Y3445575D01*
X539885Y3438877D01*
X552263Y3426499D01*
X558961Y3410327D01*
X558961Y3392822D01*
X552263Y3376651D01*
X539885Y3364273D01*
X523713Y3357574D01*
X506208Y3357574D01*
G37*
%LPD*%
%LPC*%
G36*
X506208Y3554424D02*
X506208Y3554424D01*
X490036Y3561123D01*
X477658Y3573501D01*
X470960Y3589673D01*
X470960Y3607177D01*
X477658Y3623349D01*
X490036Y3635727D01*
X506208Y3642426D01*
X523713Y3642426D01*
X539885Y3635727D01*
X552263Y3623349D01*
X558961Y3607177D01*
X558961Y3589673D01*
X552263Y3573501D01*
X539885Y3561123D01*
X523713Y3554424D01*
X506208Y3554424D01*
G37*
%LPD*%
%LPC*%
G36*
X4391844Y3508999D02*
X4391844Y3508999D01*
X4376775Y3515241D01*
X4365241Y3526775D01*
X4358999Y3541844D01*
X4358999Y3558156D01*
X4365241Y3573225D01*
X4376775Y3584759D01*
X4391844Y3591001D01*
X4408156Y3591001D01*
X4423225Y3584759D01*
X4434759Y3573225D01*
X4441001Y3558156D01*
X4441001Y3541844D01*
X4434759Y3526775D01*
X4423225Y3515241D01*
X4408156Y3508999D01*
X4391844Y3508999D01*
G37*
%LPD*%
%LPC*%
G36*
X4491844Y3508999D02*
X4491844Y3508999D01*
X4476775Y3515241D01*
X4465241Y3526775D01*
X4458999Y3541844D01*
X4458999Y3558156D01*
X4465241Y3573225D01*
X4476775Y3584759D01*
X4491844Y3591001D01*
X4508156Y3591001D01*
X4523225Y3584759D01*
X4534759Y3573225D01*
X4541001Y3558156D01*
X4541001Y3541844D01*
X4534759Y3526775D01*
X4523225Y3515241D01*
X4508156Y3508999D01*
X4491844Y3508999D01*
G37*
%LPD*%
%LPC*%
G36*
X3591844Y3508999D02*
X3591844Y3508999D01*
X3576775Y3515241D01*
X3565241Y3526775D01*
X3558999Y3541844D01*
X3558999Y3558156D01*
X3565241Y3573225D01*
X3576775Y3584759D01*
X3591844Y3591001D01*
X3608156Y3591001D01*
X3623225Y3584759D01*
X3634759Y3573225D01*
X3641001Y3558156D01*
X3641001Y3541844D01*
X3634759Y3526775D01*
X3623225Y3515241D01*
X3608156Y3508999D01*
X3591844Y3508999D01*
G37*
%LPD*%
%LPC*%
G36*
X3491844Y3508999D02*
X3491844Y3508999D01*
X3476775Y3515241D01*
X3465241Y3526775D01*
X3458999Y3541844D01*
X3458999Y3558156D01*
X3465241Y3573225D01*
X3476775Y3584759D01*
X3491844Y3591001D01*
X3508156Y3591001D01*
X3523225Y3584759D01*
X3534759Y3573225D01*
X3541001Y3558156D01*
X3541001Y3541844D01*
X3534759Y3526775D01*
X3523225Y3515241D01*
X3508156Y3508999D01*
X3491844Y3508999D01*
G37*
%LPD*%
%LPC*%
G36*
X3291844Y3508999D02*
X3291844Y3508999D01*
X3276775Y3515241D01*
X3265241Y3526775D01*
X3258999Y3541844D01*
X3258999Y3558156D01*
X3265241Y3573225D01*
X3276775Y3584759D01*
X3291844Y3591001D01*
X3308156Y3591001D01*
X3323225Y3584759D01*
X3334759Y3573225D01*
X3341001Y3558156D01*
X3341001Y3541844D01*
X3334759Y3526775D01*
X3323225Y3515241D01*
X3308156Y3508999D01*
X3291844Y3508999D01*
G37*
%LPD*%
%LPC*%
G36*
X4791844Y3508999D02*
X4791844Y3508999D01*
X4776775Y3515241D01*
X4765241Y3526775D01*
X4758999Y3541844D01*
X4758999Y3558156D01*
X4765241Y3573225D01*
X4776775Y3584759D01*
X4791844Y3591001D01*
X4808156Y3591001D01*
X4823225Y3584759D01*
X4834759Y3573225D01*
X4841001Y3558156D01*
X4841001Y3541844D01*
X4834759Y3526775D01*
X4823225Y3515241D01*
X4808156Y3508999D01*
X4791844Y3508999D01*
G37*
%LPD*%
%LPC*%
G36*
X4691844Y3508999D02*
X4691844Y3508999D01*
X4676775Y3515241D01*
X4665241Y3526775D01*
X4658999Y3541844D01*
X4658999Y3558156D01*
X4665241Y3573225D01*
X4676775Y3584759D01*
X4691844Y3591001D01*
X4708156Y3591001D01*
X4723225Y3584759D01*
X4734759Y3573225D01*
X4741001Y3558156D01*
X4741001Y3541844D01*
X4734759Y3526775D01*
X4723225Y3515241D01*
X4708156Y3508999D01*
X4691844Y3508999D01*
G37*
%LPD*%
%LPC*%
G36*
X4591844Y3508999D02*
X4591844Y3508999D01*
X4576775Y3515241D01*
X4565241Y3526775D01*
X4558999Y3541844D01*
X4558999Y3558156D01*
X4565241Y3573225D01*
X4576775Y3584759D01*
X4591844Y3591001D01*
X4608156Y3591001D01*
X4623225Y3584759D01*
X4634759Y3573225D01*
X4641001Y3558156D01*
X4641001Y3541844D01*
X4634759Y3526775D01*
X4623225Y3515241D01*
X4608156Y3508999D01*
X4591844Y3508999D01*
G37*
%LPD*%
%LPC*%
G36*
X4736745Y1967999D02*
X4736745Y1967999D01*
X4717999Y1986745D01*
X4717999Y2013255D01*
X4736745Y2032001D01*
X4763255Y2032001D01*
X4782001Y2013255D01*
X4782001Y1986745D01*
X4763255Y1967999D01*
X4736745Y1967999D01*
G37*
%LPD*%
%LPC*%
G36*
X3236745Y1967999D02*
X3236745Y1967999D01*
X3217999Y1986745D01*
X3217999Y2013255D01*
X3236745Y2032001D01*
X3263255Y2032001D01*
X3282001Y2013255D01*
X3282001Y1986745D01*
X3263255Y1967999D01*
X3236745Y1967999D01*
G37*
%LPD*%
%LPC*%
G36*
X3236745Y767999D02*
X3236745Y767999D01*
X3217999Y786745D01*
X3217999Y813255D01*
X3236745Y832001D01*
X3263255Y832001D01*
X3282001Y813255D01*
X3282001Y786745D01*
X3263255Y767999D01*
X3236745Y767999D01*
G37*
%LPD*%
%LPC*%
G36*
X4736745Y767999D02*
X4736745Y767999D01*
X4717999Y786745D01*
X4717999Y813255D01*
X4736745Y832001D01*
X4763255Y832001D01*
X4782001Y813255D01*
X4782001Y786745D01*
X4763255Y767999D01*
X4736745Y767999D01*
G37*
%LPD*%
%LPC*%
G36*
X2809999Y3509999D02*
X2809999Y3509999D01*
X2809999Y3572000D01*
X2829823Y3572001D01*
X2872001Y3529823D01*
X2872001Y3509999D01*
X2809999Y3509999D01*
G37*
%LPD*%
%LPC*%
G36*
X2727999Y3509999D02*
X2727999Y3509999D01*
X2727999Y3529823D01*
X2770176Y3572001D01*
X2790001Y3572001D01*
X2790001Y3509999D01*
X2727999Y3509999D01*
G37*
%LPD*%
%LPC*%
G36*
X2809999Y3427999D02*
X2809999Y3427999D01*
X2809999Y3490001D01*
X2872001Y3490001D01*
X2872001Y3470176D01*
X2829823Y3427999D01*
X2809999Y3427999D01*
G37*
%LPD*%
%LPC*%
G36*
X2770176Y3427999D02*
X2770176Y3427999D01*
X2727999Y3470176D01*
X2727999Y3490001D01*
X2790001Y3490001D01*
X2790001Y3427999D01*
X2770176Y3427999D01*
G37*
%LPD*%
%LPC*%
G36*
X2309999Y1919999D02*
X2309999Y1919999D01*
X2309999Y1950001D01*
X2333148Y1950001D01*
X2339367Y1949016D01*
X2345355Y1947070D01*
X2350965Y1944212D01*
X2356058Y1940511D01*
X2360511Y1936058D01*
X2364212Y1930965D01*
X2367070Y1925355D01*
X2368810Y1919999D01*
X2309999Y1919999D01*
G37*
%LPD*%
%LPC*%
G36*
X409999Y1359999D02*
X409999Y1359999D01*
X409999Y1390001D01*
X433148Y1390001D01*
X439367Y1389016D01*
X445355Y1387070D01*
X450965Y1384212D01*
X456058Y1380511D01*
X460511Y1376058D01*
X464212Y1370965D01*
X467070Y1365355D01*
X468810Y1359999D01*
X409999Y1359999D01*
G37*
%LPD*%
%LPC*%
G36*
X409999Y1259999D02*
X409999Y1259999D01*
X409999Y1290001D01*
X433148Y1290001D01*
X439367Y1289016D01*
X445355Y1287070D01*
X450965Y1284212D01*
X456058Y1280511D01*
X460511Y1276058D01*
X464212Y1270965D01*
X467070Y1265355D01*
X468810Y1259999D01*
X409999Y1259999D01*
G37*
%LPD*%
%LPC*%
G36*
X2231190Y1919999D02*
X2231190Y1919999D01*
X2232221Y1923173D01*
X2232221Y1923174D01*
X2232221Y1923175D01*
X2232930Y1925355D01*
X2235788Y1930965D01*
X2239489Y1936058D01*
X2243941Y1940511D01*
X2249035Y1944212D01*
X2254645Y1947070D01*
X2260633Y1949016D01*
X2266852Y1950001D01*
X2290001Y1950001D01*
X2290001Y1919999D01*
X2231190Y1919999D01*
G37*
%LPD*%
%LPC*%
G36*
X331190Y1359999D02*
X331190Y1359999D01*
X332248Y1363256D01*
X332248Y1363257D01*
X332930Y1365355D01*
X335788Y1370965D01*
X339489Y1376058D01*
X343941Y1380511D01*
X349035Y1384212D01*
X354645Y1387070D01*
X360633Y1389016D01*
X366852Y1390001D01*
X390001Y1390001D01*
X390001Y1359999D01*
X331190Y1359999D01*
G37*
%LPD*%
%LPC*%
G36*
X331190Y1259999D02*
X331190Y1259999D01*
X332253Y1263270D01*
X332253Y1263271D01*
X332253Y1263272D01*
X332930Y1265355D01*
X335788Y1270965D01*
X339489Y1276058D01*
X343941Y1280511D01*
X349035Y1284212D01*
X354645Y1287070D01*
X360633Y1289016D01*
X366852Y1290001D01*
X390001Y1290001D01*
X390001Y1259999D01*
X331190Y1259999D01*
G37*
%LPD*%
%LPC*%
G36*
X2309999Y1869999D02*
X2309999Y1869999D01*
X2309999Y1900001D01*
X2368810Y1900001D01*
X2367070Y1894645D01*
X2364212Y1889035D01*
X2360511Y1883941D01*
X2356058Y1879489D01*
X2350965Y1875788D01*
X2345355Y1872930D01*
X2339367Y1870984D01*
X2333148Y1869999D01*
X2309999Y1869999D01*
G37*
%LPD*%
%LPC*%
G36*
X409999Y1209999D02*
X409999Y1209999D01*
X409999Y1240001D01*
X468810Y1240001D01*
X467632Y1236374D01*
X467631Y1236373D01*
X467631Y1236372D01*
X467070Y1234645D01*
X464212Y1229035D01*
X460511Y1223941D01*
X456058Y1219489D01*
X450965Y1215788D01*
X445355Y1212930D01*
X439367Y1210984D01*
X433148Y1209999D01*
X409999Y1209999D01*
G37*
%LPD*%
%LPC*%
G36*
X409999Y1309999D02*
X409999Y1309999D01*
X409999Y1340001D01*
X468810Y1340001D01*
X467627Y1336359D01*
X467627Y1336358D01*
X467626Y1336358D01*
X467070Y1334645D01*
X464212Y1329035D01*
X460511Y1323941D01*
X456058Y1319489D01*
X450965Y1315788D01*
X445355Y1312930D01*
X439367Y1310984D01*
X433148Y1309999D01*
X409999Y1309999D01*
G37*
%LPD*%
%LPC*%
G36*
X2266852Y1869999D02*
X2266852Y1869999D01*
X2260633Y1870984D01*
X2254645Y1872930D01*
X2249035Y1875788D01*
X2243941Y1879489D01*
X2239489Y1883941D01*
X2235788Y1889035D01*
X2232930Y1894645D01*
X2231190Y1900001D01*
X2290001Y1900001D01*
X2290001Y1869999D01*
X2266852Y1869999D01*
G37*
%LPD*%
%LPC*%
G36*
X366852Y1309999D02*
X366852Y1309999D01*
X360633Y1310984D01*
X354645Y1312930D01*
X349035Y1315788D01*
X343941Y1319489D01*
X339489Y1323941D01*
X335788Y1329035D01*
X332930Y1334645D01*
X331190Y1340001D01*
X390001Y1340001D01*
X390001Y1309999D01*
X366852Y1309999D01*
G37*
%LPD*%
%LPC*%
G36*
X366852Y1209999D02*
X366852Y1209999D01*
X360633Y1210984D01*
X354645Y1212930D01*
X349035Y1215788D01*
X343941Y1219489D01*
X339489Y1223941D01*
X335788Y1229035D01*
X332930Y1234645D01*
X331190Y1240001D01*
X390001Y1240001D01*
X390001Y1209999D01*
X366852Y1209999D01*
G37*
%LPD*%
%LPC*%
G36*
X3810393Y3059999D02*
X3810393Y3059999D01*
X3810393Y3098402D01*
X3811955Y3098155D01*
X3819346Y3095754D01*
X3826269Y3092226D01*
X3832556Y3087658D01*
X3838052Y3082163D01*
X3842620Y3075875D01*
X3846147Y3068952D01*
X3848549Y3061561D01*
X3848796Y3059999D01*
X3810393Y3059999D01*
G37*
%LPD*%
%LPC*%
G36*
X4459605Y3059999D02*
X4459605Y3059999D01*
X4459605Y3098402D01*
X4461168Y3098155D01*
X4468558Y3095754D01*
X4475482Y3092226D01*
X4481769Y3087658D01*
X4487264Y3082163D01*
X4491832Y3075875D01*
X4495360Y3068952D01*
X4497761Y3061561D01*
X4498009Y3059999D01*
X4459605Y3059999D01*
G37*
%LPD*%
%LPC*%
G36*
X4459605Y2609999D02*
X4459605Y2609999D01*
X4459605Y2648402D01*
X4461168Y2648155D01*
X4468558Y2645754D01*
X4475482Y2642226D01*
X4481769Y2637658D01*
X4487264Y2632163D01*
X4491832Y2625875D01*
X4495360Y2618952D01*
X4497761Y2611561D01*
X4498009Y2609999D01*
X4459605Y2609999D01*
G37*
%LPD*%
%LPC*%
G36*
X3810393Y2609999D02*
X3810393Y2609999D01*
X3810393Y2648402D01*
X3811955Y2648155D01*
X3819346Y2645754D01*
X3826269Y2642226D01*
X3832556Y2637658D01*
X3838052Y2632163D01*
X3842620Y2625875D01*
X3846147Y2618952D01*
X3848549Y2611561D01*
X3848796Y2609999D01*
X3810393Y2609999D01*
G37*
%LPD*%
%LPC*%
G36*
X3751991Y2609999D02*
X3751991Y2609999D01*
X3752239Y2611561D01*
X3752729Y2613071D01*
X3752730Y2613072D01*
X3752730Y2613073D01*
X3754640Y2618952D01*
X3758168Y2625875D01*
X3762736Y2632163D01*
X3768231Y2637658D01*
X3774518Y2642226D01*
X3781442Y2645754D01*
X3788832Y2648155D01*
X3790394Y2648402D01*
X3790394Y2609999D01*
X3751991Y2609999D01*
G37*
%LPD*%
%LPC*%
G36*
X4401204Y2609999D02*
X4401204Y2609999D01*
X4401451Y2611561D01*
X4401942Y2613071D01*
X4401942Y2613072D01*
X4401942Y2613073D01*
X4403853Y2618952D01*
X4407380Y2625875D01*
X4411948Y2632163D01*
X4417444Y2637658D01*
X4423731Y2642226D01*
X4430654Y2645754D01*
X4438045Y2648155D01*
X4439607Y2648402D01*
X4439607Y2609999D01*
X4401204Y2609999D01*
G37*
%LPD*%
%LPC*%
G36*
X3810393Y2590001D02*
X3810393Y2590001D01*
X3848796Y2590001D01*
X3848549Y2588439D01*
X3846147Y2581048D01*
X3842620Y2574124D01*
X3838052Y2567837D01*
X3832556Y2562342D01*
X3826269Y2557774D01*
X3819346Y2554246D01*
X3811955Y2551845D01*
X3810393Y2551598D01*
X3810393Y2590001D01*
G37*
%LPD*%
%LPC*%
G36*
X4459605Y2590001D02*
X4459605Y2590001D01*
X4498009Y2590001D01*
X4497761Y2588439D01*
X4495360Y2581048D01*
X4491832Y2574124D01*
X4487264Y2567837D01*
X4481769Y2562342D01*
X4475482Y2557774D01*
X4468558Y2554246D01*
X4461168Y2551845D01*
X4459605Y2551598D01*
X4459605Y2590001D01*
G37*
%LPD*%
%LPC*%
G36*
X4401204Y3059999D02*
X4401204Y3059999D01*
X4401451Y3061561D01*
X4403545Y3068004D01*
X4403545Y3068005D01*
X4403853Y3068952D01*
X4407380Y3075875D01*
X4411948Y3082163D01*
X4417444Y3087658D01*
X4423731Y3092226D01*
X4430654Y3095754D01*
X4438045Y3098155D01*
X4439607Y3098402D01*
X4439607Y3059999D01*
X4401204Y3059999D01*
G37*
%LPD*%
%LPC*%
G36*
X3751991Y3059999D02*
X3751991Y3059999D01*
X3752239Y3061561D01*
X3754332Y3068004D01*
X3754332Y3068005D01*
X3754640Y3068952D01*
X3758168Y3075875D01*
X3762736Y3082163D01*
X3768231Y3087658D01*
X3774518Y3092226D01*
X3781442Y3095754D01*
X3788832Y3098155D01*
X3790394Y3098402D01*
X3790394Y3059999D01*
X3751991Y3059999D01*
G37*
%LPD*%
%LPC*%
G36*
X3810393Y3040001D02*
X3810393Y3040001D01*
X3848796Y3040001D01*
X3848549Y3038439D01*
X3847791Y3036108D01*
X3847791Y3036107D01*
X3847791Y3036106D01*
X3846167Y3031109D01*
X3846167Y3031108D01*
X3846166Y3031107D01*
X3846147Y3031048D01*
X3842620Y3024124D01*
X3838052Y3017837D01*
X3832556Y3012342D01*
X3826269Y3007774D01*
X3819346Y3004246D01*
X3811955Y3001845D01*
X3810393Y3001598D01*
X3810393Y3040001D01*
G37*
%LPD*%
%LPC*%
G36*
X4459605Y3040001D02*
X4459605Y3040001D01*
X4498009Y3040001D01*
X4497761Y3038439D01*
X4497004Y3036108D01*
X4497004Y3036107D01*
X4497003Y3036106D01*
X4495380Y3031109D01*
X4495379Y3031108D01*
X4495379Y3031107D01*
X4495360Y3031048D01*
X4491832Y3024124D01*
X4487264Y3017837D01*
X4481769Y3012342D01*
X4475482Y3007774D01*
X4468558Y3004246D01*
X4461168Y3001845D01*
X4459605Y3001598D01*
X4459605Y3040001D01*
G37*
%LPD*%
%LPC*%
G36*
X4438045Y3001845D02*
X4438045Y3001845D01*
X4430654Y3004246D01*
X4423731Y3007774D01*
X4417444Y3012342D01*
X4411948Y3017837D01*
X4407380Y3024124D01*
X4403853Y3031048D01*
X4401451Y3038439D01*
X4401204Y3040001D01*
X4439607Y3040001D01*
X4439607Y3001598D01*
X4438045Y3001845D01*
G37*
%LPD*%
%LPC*%
G36*
X3788832Y3001845D02*
X3788832Y3001845D01*
X3781442Y3004246D01*
X3774518Y3007774D01*
X3768231Y3012342D01*
X3762736Y3017837D01*
X3758168Y3024124D01*
X3754640Y3031048D01*
X3752239Y3038439D01*
X3751991Y3040001D01*
X3790394Y3040001D01*
X3790394Y3001598D01*
X3788832Y3001845D01*
G37*
%LPD*%
%LPC*%
G36*
X4438045Y2551845D02*
X4438045Y2551845D01*
X4430654Y2554246D01*
X4423731Y2557774D01*
X4417444Y2562342D01*
X4411948Y2567837D01*
X4407380Y2574124D01*
X4403853Y2581048D01*
X4401451Y2588439D01*
X4401204Y2590001D01*
X4439607Y2590001D01*
X4439607Y2551598D01*
X4438045Y2551845D01*
G37*
%LPD*%
%LPC*%
G36*
X3788832Y2551845D02*
X3788832Y2551845D01*
X3781442Y2554246D01*
X3774518Y2557774D01*
X3768231Y2562342D01*
X3762736Y2567837D01*
X3758168Y2574124D01*
X3754640Y2581048D01*
X3752239Y2588439D01*
X3751991Y2590001D01*
X3790394Y2590001D01*
X3790394Y2551598D01*
X3788832Y2551845D01*
G37*
%LPD*%
%LPC*%
G36*
X3409842Y3559842D02*
X3409842Y3559842D01*
X3409842Y3594003D01*
X3410538Y3593892D01*
X3417274Y3591704D01*
X3423586Y3588488D01*
X3427785Y3585437D01*
X3429315Y3584325D01*
X3434325Y3579315D01*
X3438488Y3573586D01*
X3441704Y3567274D01*
X3443892Y3560538D01*
X3444003Y3559842D01*
X3409842Y3559842D01*
G37*
%LPD*%
%LPC*%
G36*
X3355997Y3559842D02*
X3355997Y3559842D01*
X3356108Y3560538D01*
X3356885Y3562930D01*
X3356885Y3562931D01*
X3356885Y3562932D01*
X3358296Y3567274D01*
X3361512Y3573586D01*
X3365675Y3579315D01*
X3370685Y3584325D01*
X3376414Y3588488D01*
X3382726Y3591704D01*
X3389462Y3593892D01*
X3390158Y3594003D01*
X3390158Y3559842D01*
X3355997Y3559842D01*
G37*
%LPD*%
%LPC*%
G36*
X3409842Y3540158D02*
X3409842Y3540158D01*
X3444003Y3540158D01*
X3443892Y3539462D01*
X3442779Y3536034D01*
X3442778Y3536033D01*
X3441704Y3532726D01*
X3438488Y3526414D01*
X3434325Y3520685D01*
X3429315Y3515675D01*
X3423586Y3511512D01*
X3417274Y3508296D01*
X3410538Y3506108D01*
X3409842Y3505997D01*
X3409842Y3540158D01*
G37*
%LPD*%
%LPC*%
G36*
X3389462Y3506107D02*
X3389462Y3506107D01*
X3382726Y3508296D01*
X3376414Y3511512D01*
X3370685Y3515675D01*
X3365675Y3520685D01*
X3361512Y3526414D01*
X3358296Y3532726D01*
X3356107Y3539462D01*
X3355997Y3540158D01*
X3390158Y3540158D01*
X3390158Y3505997D01*
X3389462Y3506107D01*
G37*
%LPD*%
%LPC*%
G36*
X4857999Y807999D02*
X4857999Y807999D01*
X4857999Y836001D01*
X4864912Y836001D01*
X4886001Y814912D01*
X4886001Y807999D01*
X4857999Y807999D01*
G37*
%LPD*%
%LPC*%
G36*
X4857999Y2007999D02*
X4857999Y2007999D01*
X4857999Y2036001D01*
X4864912Y2036001D01*
X4886001Y2014912D01*
X4886001Y2007999D01*
X4857999Y2007999D01*
G37*
%LPD*%
%LPC*%
G36*
X5607999Y3557999D02*
X5607999Y3557999D01*
X5607999Y3586001D01*
X5614912Y3586001D01*
X5636001Y3564912D01*
X5636001Y3557999D01*
X5607999Y3557999D01*
G37*
%LPD*%
%LPC*%
G36*
X3357999Y807999D02*
X3357999Y807999D01*
X3357999Y836001D01*
X3364912Y836001D01*
X3386001Y814912D01*
X3386000Y807999D01*
X3357999Y807999D01*
G37*
%LPD*%
%LPC*%
G36*
X3357999Y2007999D02*
X3357999Y2007999D01*
X3357999Y2036001D01*
X3364912Y2036001D01*
X3386001Y2014912D01*
X3386000Y2007999D01*
X3357999Y2007999D01*
G37*
%LPD*%
%LPC*%
G36*
X3313999Y807999D02*
X3313999Y807999D01*
X3313999Y814912D01*
X3335088Y836001D01*
X3342000Y836000D01*
X3342000Y807999D01*
X3313999Y807999D01*
G37*
%LPD*%
%LPC*%
G36*
X3313999Y2007999D02*
X3313999Y2007999D01*
X3313999Y2014912D01*
X3335088Y2036001D01*
X3342000Y2036000D01*
X3342000Y2007999D01*
X3313999Y2007999D01*
G37*
%LPD*%
%LPC*%
G36*
X4857999Y763999D02*
X4857999Y763999D01*
X4857999Y792000D01*
X4886001Y792000D01*
X4886001Y785088D01*
X4864912Y763999D01*
X4857999Y763999D01*
G37*
%LPD*%
%LPC*%
G36*
X3357999Y1963999D02*
X3357999Y1963999D01*
X3357999Y1992000D01*
X3386001Y1992000D01*
X3386001Y1985088D01*
X3364912Y1963999D01*
X3357999Y1963999D01*
G37*
%LPD*%
%LPC*%
G36*
X4857999Y1963999D02*
X4857999Y1963999D01*
X4857999Y1992000D01*
X4886001Y1992000D01*
X4886001Y1985088D01*
X4864912Y1963999D01*
X4857999Y1963999D01*
G37*
%LPD*%
%LPC*%
G36*
X5607999Y3513999D02*
X5607999Y3513999D01*
X5607999Y3542000D01*
X5636001Y3542000D01*
X5636001Y3535088D01*
X5614912Y3513999D01*
X5607999Y3513999D01*
G37*
%LPD*%
%LPC*%
G36*
X3357999Y763999D02*
X3357999Y763999D01*
X3357999Y792000D01*
X3386001Y792000D01*
X3386001Y785088D01*
X3364912Y763999D01*
X3357999Y763999D01*
G37*
%LPD*%
%LPC*%
G36*
X4813999Y2007999D02*
X4813999Y2007999D01*
X4813999Y2014912D01*
X4835088Y2036001D01*
X4842000Y2036000D01*
X4842000Y2007999D01*
X4813999Y2007999D01*
G37*
%LPD*%
%LPC*%
G36*
X4813999Y807999D02*
X4813999Y807999D01*
X4813999Y814912D01*
X4835088Y836001D01*
X4842000Y836000D01*
X4842000Y807999D01*
X4813999Y807999D01*
G37*
%LPD*%
%LPC*%
G36*
X5563999Y3557999D02*
X5563999Y3557999D01*
X5563999Y3564912D01*
X5585088Y3586001D01*
X5592000Y3586000D01*
X5592000Y3557999D01*
X5563999Y3557999D01*
G37*
%LPD*%
%LPC*%
G36*
X3335088Y1963999D02*
X3335088Y1963999D01*
X3313999Y1985088D01*
X3313999Y1992000D01*
X3342000Y1992000D01*
X3342000Y1963999D01*
X3335088Y1963999D01*
G37*
%LPD*%
%LPC*%
G36*
X4835088Y763999D02*
X4835088Y763999D01*
X4813999Y785088D01*
X4813999Y792000D01*
X4842000Y792000D01*
X4842000Y763999D01*
X4835088Y763999D01*
G37*
%LPD*%
%LPC*%
G36*
X3335088Y763999D02*
X3335088Y763999D01*
X3313999Y785088D01*
X3313999Y792000D01*
X3342000Y792000D01*
X3342000Y763999D01*
X3335088Y763999D01*
G37*
%LPD*%
%LPC*%
G36*
X4835088Y1963999D02*
X4835088Y1963999D01*
X4813999Y1985088D01*
X4813999Y1992000D01*
X4842000Y1992000D01*
X4842000Y1963999D01*
X4835088Y1963999D01*
G37*
%LPD*%
%LPC*%
G36*
X5585088Y3513999D02*
X5585088Y3513999D01*
X5563999Y3535088D01*
X5563999Y3542000D01*
X5592000Y3542000D01*
X5592000Y3513999D01*
X5585088Y3513999D01*
G37*
%LPD*%
%LPC*%
G36*
X4449605Y2599999D02*
X4449605Y2599999D01*
X4449605Y2600001D01*
X4449608Y2600001D01*
X4449608Y2599999D01*
X4449605Y2599999D01*
G37*
%LPD*%
%LPC*%
G36*
X3800392Y2599999D02*
X3800392Y2599999D01*
X3800392Y2600001D01*
X3800395Y2600001D01*
X3800395Y2599999D01*
X3800392Y2599999D01*
G37*
%LPD*%
%LPC*%
G36*
X3800392Y3049999D02*
X3800392Y3049999D01*
X3800392Y3050001D01*
X3800395Y3050001D01*
X3800395Y3049999D01*
X3800392Y3049999D01*
G37*
%LPD*%
%LPC*%
G36*
X4449605Y3049999D02*
X4449605Y3049999D01*
X4449605Y3050001D01*
X4449608Y3050001D01*
X4449608Y3049999D01*
X4449605Y3049999D01*
G37*
%LPD*%
%LPC*%
G36*
X2299999Y1909999D02*
X2299999Y1909999D01*
X2299999Y1910001D01*
X2300001Y1910001D01*
X2300001Y1909999D01*
X2299999Y1909999D01*
G37*
%LPD*%
%LPC*%
G36*
X2799999Y3499999D02*
X2799999Y3499999D01*
X2799999Y3500001D01*
X2800001Y3500001D01*
X2800001Y3499999D01*
X2799999Y3499999D01*
G37*
%LPD*%
%LPC*%
G36*
X399999Y1249999D02*
X399999Y1249999D01*
X399999Y1250001D01*
X400001Y1250001D01*
X400001Y1249999D01*
X399999Y1249999D01*
G37*
%LPD*%
%LPC*%
G36*
X399999Y1349999D02*
X399999Y1349999D01*
X399999Y1350001D01*
X400001Y1350001D01*
X400001Y1349999D01*
X399999Y1349999D01*
G37*
%LPD*%
D10*
X2800000Y3500000D03*
X805000Y3500000D03*
D11*
X2270000Y2010000D02*
X2330000Y2010000D01*
X2330000Y1910000D02*
X2270000Y1910000D01*
X2270000Y1810000D02*
X2330000Y1810000D01*
X2330000Y1710000D02*
X2270000Y1710000D01*
X2270000Y1610000D02*
X2330000Y1610000D01*
X2330000Y1510000D02*
X2270000Y1510000D01*
X2270000Y1410000D02*
X2330000Y1410000D01*
X2330000Y1310000D02*
X2270000Y1310000D01*
X2270000Y1150000D02*
X2330000Y1150000D01*
X2330000Y1050000D02*
X2270000Y1050000D01*
X2270000Y950000D02*
X2330000Y950000D01*
X2330000Y850000D02*
X2270000Y850000D01*
X2270000Y750000D02*
X2330000Y750000D01*
X2330000Y650000D02*
X2270000Y650000D01*
X2270000Y550000D02*
X2330000Y550000D01*
X2330000Y450000D02*
X2270000Y450000D01*
X430000Y1650000D02*
X370000Y1650000D01*
X370000Y1550000D02*
X430000Y1550000D01*
X430000Y1450000D02*
X370000Y1450000D01*
X370000Y1350000D02*
X430000Y1350000D01*
X430000Y1250000D02*
X370000Y1250000D01*
X370000Y1150000D02*
X430000Y1150000D01*
X430000Y950000D02*
X370000Y950000D01*
X370000Y850000D02*
X430000Y850000D01*
X430000Y750000D02*
X370000Y750000D01*
X370000Y650000D02*
X430000Y650000D01*
X430000Y550000D02*
X370000Y550000D01*
X370000Y450000D02*
X430000Y450000D01*
D12*
X4400000Y3550000D03*
X4500000Y3550000D03*
X4600000Y3550000D03*
X4700000Y3550000D03*
X4800000Y3550000D03*
X3300000Y3550000D03*
X3400000Y3550000D03*
X3500000Y3550000D03*
X3600000Y3550000D03*
X3700000Y3550000D03*
X3800000Y3550000D03*
X3900000Y3550000D03*
X4000000Y3550000D03*
X4100000Y3550000D03*
D13*
X3250000Y2000000D03*
X3350000Y2000000D03*
X4750000Y2000000D03*
X4850000Y2000000D03*
X3250000Y800000D03*
X3350000Y800000D03*
X4750000Y800000D03*
X4850000Y800000D03*
X5500000Y3550000D03*
X5600000Y3550000D03*
D14*
X3099606Y2600000D03*
X3800394Y2600000D03*
X5150394Y2600000D03*
X4449606Y2600000D03*
X3650394Y1500000D03*
X2949606Y1500000D03*
X5150394Y1500000D03*
X4449606Y1500000D03*
X3650394Y300000D03*
X2949606Y300000D03*
X5150394Y250000D03*
X4449606Y250000D03*
X3099606Y3050000D03*
X3800394Y3050000D03*
X5150394Y3050000D03*
X4449606Y3050000D03*
D15*
X4246063Y2098425D03*
X4246063Y1901575D03*
X3753937Y1901575D03*
X3753937Y2098425D03*
X5746063Y2098425D03*
X5746063Y1901575D03*
X5253937Y1901575D03*
X5253937Y2098425D03*
X4246063Y898425D03*
X4246063Y701575D03*
X3753937Y701575D03*
X3753937Y898425D03*
X5746063Y898425D03*
X5746063Y701575D03*
X5253937Y701575D03*
X5253937Y898425D03*
D16*
X514961Y3598425D03*
X514961Y3500000D03*
X514961Y3401575D03*
X385039Y3598425D03*
X385039Y3500000D03*
X385039Y3401575D03*
D17*
X2900000Y3100000D03*
D18*
X2950000Y3150000D01*
X3700000Y3150000D02*
X4100000Y3550000D01*
X3700000Y3150000D02*
X2950000Y3150000D01*
X3900000Y3500000D02*
X3900000Y3550000D01*
X3900000Y3500000D02*
X3600000Y3200000D01*
X2900000Y3200000D01*
D17*
X2900000Y3200000D03*
X2900000Y3400000D03*
D18*
X3600000Y3400000D01*
X3700000Y3500000D01*
X3700000Y3550000D01*
D17*
X2100000Y3200000D03*
D18*
X2400000Y3500000D01*
X2500000Y3500000D01*
X2700000Y3700000D02*
X3850000Y3700000D01*
X4000000Y3550000D01*
X2700000Y3700000D02*
X2500000Y3500000D01*
X5253937Y1901575D02*
X5746063Y1901575D01*
X4246063Y1901575D02*
X3753937Y1901575D01*
X3753937Y701575D02*
X4246063Y701575D01*
X5253937Y701575D02*
X5746063Y701575D01*
X5253937Y701575D02*
X4246063Y701575D01*
X4246063Y1901575D02*
X5253937Y1901575D01*
X3753937Y1901575D02*
X2598425Y1901575D01*
X2350000Y2150000D01*
X450000Y2150000D01*
X250000Y1500000D02*
X300000Y1450000D01*
X400000Y1450000D01*
X250000Y1950000D02*
X450000Y2150000D01*
X250000Y1950000D02*
X250000Y1500000D01*
D17*
X2900000Y3300000D03*
D18*
X3600000Y3300000D02*
X3800000Y3500000D01*
X3800000Y3550000D01*
X3600000Y3300000D02*
X2900000Y3300000D01*
X2750000Y1150000D02*
X2300000Y1150000D01*
D17*
X2750000Y1150000D03*
X2950000Y150000D03*
D18*
X4349606Y150000D01*
X4449606Y250000D01*
X2310000Y1500000D02*
X2300000Y1510000D01*
X2310000Y1500000D02*
X2949606Y1500000D01*
X2310000Y1300000D02*
X2300000Y1310000D01*
X2310000Y1300000D02*
X2750000Y1300000D01*
D17*
X2750000Y1300000D03*
D18*
X2300000Y1410000D02*
X4359606Y1410000D01*
X4449606Y1500000D01*
D17*
X2500000Y3600000D03*
D18*
X2650000Y3750000D01*
X5300000Y3750000D02*
X5500000Y3550000D01*
X5300000Y3750000D02*
X2650000Y3750000D01*
X500000Y450000D02*
X400000Y450000D01*
X500000Y450000D02*
X550000Y500000D01*
X1900000Y500000D01*
X2150000Y250000D01*
X2450000Y250000D01*
X2700000Y500000D01*
X5050000Y500000D02*
X5100000Y550000D01*
D17*
X5100000Y550000D03*
D18*
X5050000Y500000D02*
X2700000Y500000D01*
X5253937Y898425D02*
X5746063Y898425D01*
X4246063Y898425D02*
X3753937Y898425D01*
X2200000Y300000D02*
X1950000Y550000D01*
X2200000Y300000D02*
X2400000Y300000D01*
X2650000Y550000D01*
X3600000Y550000D01*
D17*
X3600000Y550000D03*
D18*
X1950000Y550000D02*
X400000Y550000D01*
X5253937Y2098425D02*
X5746063Y2098425D01*
X5253937Y2098425D02*
X4351575Y2098425D01*
X4250000Y2200000D01*
D17*
X2050000Y2200000D03*
D18*
X4250000Y2200000D01*
X4246063Y2098425D02*
X3753937Y2098425D01*
X3099606Y3050000D02*
X1150000Y3050000D01*
X1000000Y2900000D01*
D17*
X1000000Y2900000D03*
D18*
X400000Y1150000D02*
X300000Y1150000D01*
X200000Y1250000D01*
X200000Y3216535D01*
X385039Y3401575D01*
M02*
