M48
;GenerationSoftware,Autodesk,EAGLE,9.6.2*%
;CreationDate,2022-12-04T22:15:53Z*%
FMAT,2
ICI,OFF
INCH,TZ,00.0000
T9C0.0138
T8C0.0320
T7C0.0394
T6C0.0400
T5C0.0433
T4C0.0520
T3C0.0551
T2C0.0787
T1C0.1260
%
G90
M72
T1
X23000Y23500
X17000Y3500
X6000Y3500
T2
X13675Y7780
T3
X37539Y20984
X37539Y19016
X42461Y19016
X42461Y20984
X57461Y20984
X57461Y19016
X52539Y19016
X52539Y20984
X42461Y8984
X42461Y7016
X37539Y7016
X37539Y8984
X57461Y8984
X57461Y7016
X52539Y7016
X52539Y8984
T4
X28000Y35000
X8050Y35000
T5
X44496Y30500
X51504Y30500
X38004Y30500
X30996Y30500
X51504Y2500
X29496Y3000
X36504Y3000
X44496Y2500
X38004Y26000
X30996Y26000
X51504Y15000
X44496Y15000
X36504Y15000
X44496Y26000
X51504Y26000
X29496Y15000
T6
X23000Y7500
X23000Y6500
X23000Y5500
X23000Y4500
X4000Y16500
X4000Y15500
X4000Y14500
X4000Y13500
X4000Y12500
X4000Y11500
X4000Y9500
X4000Y8500
X4000Y7500
X4000Y6500
X4000Y5500
X4000Y4500
X23000Y13100
X23000Y20100
X23000Y19100
X23000Y18100
X23000Y17100
X23000Y16100
X23000Y15100
X23000Y14100
X23000Y11500
X23000Y10500
X23000Y9500
X23000Y8500
T7
X34000Y35500
X3850Y35000
X3850Y34016
X36000Y35500
X38000Y35500
X45000Y35500
X33000Y35500
X48000Y35500
X47000Y35500
X46000Y35500
X39000Y35500
X44000Y35500
X35000Y35500
X40000Y35500
X41000Y35500
X5150Y35984
X37000Y35500
X5150Y35000
X5150Y34016
X3850Y35984
T8
X47500Y8000
X48500Y8000
X55000Y35500
X56000Y35500
X33500Y8000
X33500Y20000
X47500Y20000
X48500Y20000
X32500Y8000
X32500Y20000
T9
X29000Y31000
X10000Y29000
X20500Y22000
X36000Y5500
X25000Y36000
X27500Y13000
X29500Y1500
X27500Y11500
X51000Y5500
X21000Y32000
X29000Y33000
X29000Y34000
X29000Y32000
M30