G04 EAGLE Gerber RS-274X export*
G75*
%MOIN*%
%FSLAX36Y36*%
%LPD*%
%INTop Copper Layer*%
%IPPOS*%
%AMOC8*
5,1,8,0,0,1.08239X$1,22.5*%
G01*
%ADD10P,0.134216X8X202.500000*%
%ADD11C,0.060000*%
%ADD12C,0.070000*%
%ADD13P,0.056284X8X22.500000*%
%ADD14C,0.078740*%
%ADD15C,0.082677*%
%ADD16C,0.076000*%
%ADD17C,0.010000*%
%ADD18C,0.029780*%
%ADD19C,0.006000*%


D10*
X2800000Y3500000D03*
X805000Y3500000D03*
D11*
X2270000Y2010000D02*
X2330000Y2010000D01*
X2330000Y1910000D02*
X2270000Y1910000D01*
X2270000Y1810000D02*
X2330000Y1810000D01*
X2330000Y1710000D02*
X2270000Y1710000D01*
X2270000Y1610000D02*
X2330000Y1610000D01*
X2330000Y1510000D02*
X2270000Y1510000D01*
X2270000Y1410000D02*
X2330000Y1410000D01*
X2330000Y1310000D02*
X2270000Y1310000D01*
X2270000Y1150000D02*
X2330000Y1150000D01*
X2330000Y1050000D02*
X2270000Y1050000D01*
X2270000Y950000D02*
X2330000Y950000D01*
X2330000Y850000D02*
X2270000Y850000D01*
X2270000Y750000D02*
X2330000Y750000D01*
X2330000Y650000D02*
X2270000Y650000D01*
X2270000Y550000D02*
X2330000Y550000D01*
X2330000Y450000D02*
X2270000Y450000D01*
X430000Y1650000D02*
X370000Y1650000D01*
X370000Y1550000D02*
X430000Y1550000D01*
X430000Y1450000D02*
X370000Y1450000D01*
X370000Y1350000D02*
X430000Y1350000D01*
X430000Y1250000D02*
X370000Y1250000D01*
X370000Y1150000D02*
X430000Y1150000D01*
X430000Y950000D02*
X370000Y950000D01*
X370000Y850000D02*
X430000Y850000D01*
X430000Y750000D02*
X370000Y750000D01*
X370000Y650000D02*
X430000Y650000D01*
X430000Y550000D02*
X370000Y550000D01*
X370000Y450000D02*
X430000Y450000D01*
D12*
X4400000Y3550000D03*
X4500000Y3550000D03*
X4600000Y3550000D03*
X4700000Y3550000D03*
X4800000Y3550000D03*
X3300000Y3550000D03*
X3400000Y3550000D03*
X3500000Y3550000D03*
X3600000Y3550000D03*
X3700000Y3550000D03*
X3800000Y3550000D03*
X3900000Y3550000D03*
X4000000Y3550000D03*
X4100000Y3550000D03*
D13*
X3250000Y2000000D03*
X3350000Y2000000D03*
X4750000Y2000000D03*
X4850000Y2000000D03*
X3250000Y800000D03*
X3350000Y800000D03*
X4750000Y800000D03*
X4850000Y800000D03*
X5500000Y3550000D03*
X5600000Y3550000D03*
D14*
X3099606Y2600000D03*
X3800394Y2600000D03*
X5150394Y2600000D03*
X4449606Y2600000D03*
X3650394Y1500000D03*
X2949606Y1500000D03*
X5150394Y1500000D03*
X4449606Y1500000D03*
X3650394Y300000D03*
X2949606Y300000D03*
X5150394Y250000D03*
X4449606Y250000D03*
X3099606Y3050000D03*
X3800394Y3050000D03*
X5150394Y3050000D03*
X4449606Y3050000D03*
D15*
X4246063Y2098425D03*
X4246063Y1901575D03*
X3753937Y1901575D03*
X3753937Y2098425D03*
X5746063Y2098425D03*
X5746063Y1901575D03*
X5253937Y1901575D03*
X5253937Y2098425D03*
X4246063Y898425D03*
X4246063Y701575D03*
X3753937Y701575D03*
X3753937Y898425D03*
X5746063Y898425D03*
X5746063Y701575D03*
X5253937Y701575D03*
X5253937Y898425D03*
D16*
X514961Y3598425D03*
X514961Y3500000D03*
X514961Y3401575D03*
X385039Y3598425D03*
X385039Y3500000D03*
X385039Y3401575D03*
D17*
X3150000Y3700000D02*
X3300000Y3550000D01*
X3150000Y3700000D02*
X2500000Y3700000D01*
X650000Y1850000D01*
X650000Y1700000D01*
X500000Y1550000D01*
X400000Y1550000D01*
X2650000Y2850000D02*
X2900000Y3100000D01*
D18*
X2900000Y3100000D03*
D17*
X2650000Y1300000D02*
X2400000Y1050000D01*
X2300000Y1050000D01*
X2650000Y1300000D02*
X2650000Y2850000D01*
D18*
X2900000Y3200000D03*
D17*
X2600000Y2900000D01*
X2600000Y1850000D01*
X2360000Y1610000D01*
X2300000Y1610000D01*
X2300000Y1810000D02*
X2360000Y1810000D01*
X2500000Y1950000D01*
X2500000Y3000000D02*
X2900000Y3400000D01*
D18*
X2900000Y3400000D03*
D17*
X2500000Y3000000D02*
X2500000Y1950000D01*
X2300000Y850000D02*
X2200000Y850000D01*
X2100000Y950000D02*
X2100000Y3200000D01*
D18*
X2100000Y3200000D03*
D17*
X2100000Y950000D02*
X2200000Y850000D01*
X5746063Y1901575D02*
X5850000Y1797638D01*
X5850000Y805512D02*
X5746063Y701575D01*
X5850000Y805512D02*
X5850000Y1797638D01*
X2360000Y1710000D02*
X2300000Y1710000D01*
X2360000Y1710000D02*
X2550000Y1900000D01*
X2550000Y2950000D01*
X2900000Y3300000D01*
D18*
X2900000Y3300000D03*
D17*
X3500000Y3450000D02*
X3600000Y3550000D01*
X3500000Y3450000D02*
X3000000Y3450000D01*
X2950000Y3400000D01*
X2950000Y3050000D01*
X2700000Y2800000D01*
X2700000Y1000000D02*
X2450000Y750000D01*
X2300000Y750000D01*
X2700000Y1000000D02*
X2700000Y2800000D01*
X3250000Y2000000D02*
X3650394Y1599606D01*
X3650394Y1500000D01*
X3250000Y800000D02*
X3650394Y399606D01*
X3650394Y300000D01*
X5150394Y1599606D02*
X4750000Y2000000D01*
X5150394Y1599606D02*
X5150394Y1500000D01*
X4750000Y800000D02*
X5150394Y399606D01*
X5150394Y250000D01*
D18*
X2750000Y1150000D03*
D17*
X2800000Y1100000D01*
X2800000Y300000D02*
X2950000Y150000D01*
D18*
X2950000Y150000D03*
D17*
X2800000Y300000D02*
X2800000Y1100000D01*
D18*
X2750000Y1300000D03*
D17*
X2850000Y1200000D01*
X2850000Y399606D02*
X2949606Y300000D01*
X2850000Y399606D02*
X2850000Y1200000D01*
X2300000Y950000D02*
X2250000Y950000D01*
X2150000Y1050000D01*
X2150000Y3250000D01*
D18*
X2500000Y3600000D03*
D17*
X2150000Y3250000D01*
D18*
X5100000Y550000D03*
D17*
X5100000Y800000D01*
X5198425Y898425D01*
X5250000Y898425D01*
X5253937Y898425D01*
X5150394Y1700394D02*
X5150394Y2600000D01*
X5150394Y1700394D02*
X5150000Y1700000D01*
X5250000Y1600000D01*
X5250000Y898425D01*
X3550000Y2149606D02*
X3099606Y2600000D01*
X3550000Y2149606D02*
X3550000Y1800000D01*
X3753937Y1596063D02*
X3753937Y898425D01*
X3753937Y1596063D02*
X3550000Y1800000D01*
D18*
X3600000Y550000D03*
D17*
X3650000Y600000D01*
X3650000Y800000D01*
X3748425Y898425D01*
X3753937Y898425D01*
X5250000Y2950394D02*
X5150394Y3050000D01*
X5250000Y2102362D02*
X5253937Y2098425D01*
X5250000Y2102362D02*
X5250000Y2950394D01*
D18*
X2050000Y2200000D03*
D17*
X1100000Y2200000D01*
X700000Y1800000D01*
X700000Y850000D02*
X500000Y650000D01*
X400000Y650000D01*
X700000Y850000D02*
X700000Y1800000D01*
X3099606Y3050000D02*
X3753937Y2395669D01*
X3753937Y2098425D01*
D18*
X1000000Y2900000D03*
D17*
X250000Y2150000D01*
X250000Y850000D01*
X350000Y750000D01*
X400000Y750000D01*
X385039Y3598425D02*
X386614Y3600000D01*
X513386Y3600000D02*
X514961Y3598425D01*
X513386Y3600000D02*
X386614Y3600000D01*
X385039Y3401575D02*
X514961Y3401575D01*
D19*
X514961Y3598425D02*
X348425Y3598425D01*
X300000Y3550000D01*
X300000Y3486614D01*
X385039Y3401575D01*
D17*
X385039Y3500000D02*
X514961Y3500000D01*
X805000Y3500000D01*
M02*
